<svg width="63" height="13" viewBox="0 0 63 13" fill="none" xmlns="http://www.w3.org/2000/svg">
<path d="M5.53125 1.63281L1.76562 12H0.226562L4.5625 0.625H5.55469L5.53125 1.63281ZM8.6875 12L4.91406 1.63281L4.89062 0.625H5.88281L10.2344 12H8.6875ZM8.49219 7.78906V9.02344H2.10156V7.78906H8.49219ZM11.5312 0H12.9844V10.3594L12.8594 12H11.5312V0ZM18.6953 7.70312V7.86719C18.6953 8.48177 18.6224 9.05208 18.4766 9.57812C18.3307 10.099 18.1172 10.5521 17.8359 10.9375C17.5547 11.3229 17.2109 11.6224 16.8047 11.8359C16.3984 12.0495 15.9323 12.1562 15.4062 12.1562C14.8698 12.1562 14.3984 12.0651 13.9922 11.8828C13.5911 11.6953 13.2526 11.4271 12.9766 11.0781C12.7005 10.7292 12.4792 10.3073 12.3125 9.8125C12.151 9.31771 12.0391 8.76042 11.9766 8.14062V7.42188C12.0391 6.79688 12.151 6.23698 12.3125 5.74219C12.4792 5.2474 12.7005 4.82552 12.9766 4.47656C13.2526 4.1224 13.5911 3.85417 13.9922 3.67188C14.3932 3.48438 14.8594 3.39062 15.3906 3.39062C15.9219 3.39062 16.3932 3.49479 16.8047 3.70312C17.2161 3.90625 17.5599 4.19792 17.8359 4.57812C18.1172 4.95833 18.3307 5.41406 18.4766 5.94531C18.6224 6.47135 18.6953 7.05729 18.6953 7.70312ZM17.2422 7.86719V7.70312C17.2422 7.28125 17.2031 6.88542 17.125 6.51562C17.0469 6.14062 16.9219 5.8125 16.75 5.53125C16.5781 5.24479 16.3516 5.02083 16.0703 4.85938C15.7891 4.69271 15.4427 4.60938 15.0312 4.60938C14.6667 4.60938 14.349 4.67188 14.0781 4.79688C13.8125 4.92188 13.5859 5.09115 13.3984 5.30469C13.2109 5.51302 13.0573 5.7526 12.9375 6.02344C12.8229 6.28906 12.737 6.5651 12.6797 6.85156V8.73438C12.763 9.09896 12.8984 9.45052 13.0859 9.78906C13.2786 10.1224 13.5339 10.3958 13.8516 10.6094C14.1745 10.8229 14.5729 10.9297 15.0469 10.9297C15.4375 10.9297 15.7708 10.8516 16.0469 10.6953C16.3281 10.5339 16.5547 10.3125 16.7266 10.0312C16.9036 9.75 17.0339 9.42448 17.1172 9.05469C17.2005 8.6849 17.2422 8.28906 17.2422 7.86719ZM20.1406 7.86719V7.6875C20.1406 7.07812 20.2292 6.51302 20.4062 5.99219C20.5833 5.46615 20.8385 5.01042 21.1719 4.625C21.5052 4.23438 21.9089 3.93229 22.3828 3.71875C22.8568 3.5 23.388 3.39062 23.9766 3.39062C24.5703 3.39062 25.1042 3.5 25.5781 3.71875C26.0573 3.93229 26.4635 4.23438 26.7969 4.625C27.1354 5.01042 27.3932 5.46615 27.5703 5.99219C27.7474 6.51302 27.8359 7.07812 27.8359 7.6875V7.86719C27.8359 8.47656 27.7474 9.04167 27.5703 9.5625C27.3932 10.0833 27.1354 10.5391 26.7969 10.9297C26.4635 11.3151 26.0599 11.6172 25.5859 11.8359C25.1172 12.0495 24.5859 12.1562 23.9922 12.1562C23.3984 12.1562 22.8646 12.0495 22.3906 11.8359C21.9167 11.6172 21.5104 11.3151 21.1719 10.9297C20.8385 10.5391 20.5833 10.0833 20.4062 9.5625C20.2292 9.04167 20.1406 8.47656 20.1406 7.86719ZM21.5859 7.6875V7.86719C21.5859 8.28906 21.6354 8.6875 21.7344 9.0625C21.8333 9.43229 21.9818 9.76042 22.1797 10.0469C22.3828 10.3333 22.6354 10.5599 22.9375 10.7266C23.2396 10.888 23.5911 10.9688 23.9922 10.9688C24.388 10.9688 24.7344 10.888 25.0312 10.7266C25.3333 10.5599 25.5833 10.3333 25.7812 10.0469C25.9792 9.76042 26.1276 9.43229 26.2266 9.0625C26.3307 8.6875 26.3828 8.28906 26.3828 7.86719V7.6875C26.3828 7.27083 26.3307 6.8776 26.2266 6.50781C26.1276 6.13281 25.9766 5.80208 25.7734 5.51562C25.5755 5.22396 25.3255 4.99479 25.0234 4.82812C24.7266 4.66146 24.3776 4.57812 23.9766 4.57812C23.5807 4.57812 23.2318 4.66146 22.9297 4.82812C22.6328 4.99479 22.3828 5.22396 22.1797 5.51562C21.9818 5.80208 21.8333 6.13281 21.7344 6.50781C21.6354 6.8776 21.5859 7.27083 21.5859 7.6875ZM34.8203 10.0469V3.54688H36.2734V12H34.8906L34.8203 10.0469ZM35.0938 8.26562L35.6953 8.25C35.6953 8.8125 35.6354 9.33333 35.5156 9.8125C35.401 10.2865 35.2135 10.6979 34.9531 11.0469C34.6927 11.3958 34.3516 11.6693 33.9297 11.8672C33.5078 12.0599 32.9948 12.1562 32.3906 12.1562C31.9792 12.1562 31.6016 12.0964 31.2578 11.9766C30.9193 11.8568 30.6276 11.6719 30.3828 11.4219C30.138 11.1719 29.9479 10.8464 29.8125 10.4453C29.6823 10.0443 29.6172 9.5625 29.6172 9V3.54688H31.0625V9.01562C31.0625 9.39583 31.1042 9.71094 31.1875 9.96094C31.276 10.2057 31.3932 10.401 31.5391 10.5469C31.6901 10.6875 31.8568 10.7865 32.0391 10.8438C32.2266 10.901 32.4193 10.9297 32.6172 10.9297C33.2318 10.9297 33.7188 10.8125 34.0781 10.5781C34.4375 10.3385 34.6953 10.0182 34.8516 9.61719C35.013 9.21094 35.0938 8.76042 35.0938 8.26562ZM42.0156 3.54688V4.65625H37.4453V3.54688H42.0156ZM38.9922 1.49219H40.4375V9.90625C40.4375 10.1927 40.4818 10.4089 40.5703 10.5547C40.6589 10.7005 40.7734 10.7969 40.9141 10.8438C41.0547 10.8906 41.2057 10.9141 41.3672 10.9141C41.487 10.9141 41.612 10.9036 41.7422 10.8828C41.8776 10.8568 41.9792 10.8359 42.0469 10.8203L42.0547 12C41.9401 12.0365 41.7891 12.0703 41.6016 12.1016C41.4193 12.138 41.1979 12.1562 40.9375 12.1562C40.5833 12.1562 40.2578 12.0859 39.9609 11.9453C39.6641 11.8047 39.4271 11.5703 39.25 11.2422C39.0781 10.9089 38.9922 10.4609 38.9922 9.89844V1.49219ZM52.8516 10.0469V3.54688H54.3047V12H52.9219L52.8516 10.0469ZM53.125 8.26562L53.7266 8.25C53.7266 8.8125 53.6667 9.33333 53.5469 9.8125C53.4323 10.2865 53.2448 10.6979 52.9844 11.0469C52.724 11.3958 52.3828 11.6693 51.9609 11.8672C51.5391 12.0599 51.026 12.1562 50.4219 12.1562C50.0104 12.1562 49.6328 12.0964 49.2891 11.9766C48.9505 11.8568 48.6589 11.6719 48.4141 11.4219C48.1693 11.1719 47.9792 10.8464 47.8438 10.4453C47.7135 10.0443 47.6484 9.5625 47.6484 9V3.54688H49.0938V9.01562C49.0938 9.39583 49.1354 9.71094 49.2188 9.96094C49.3073 10.2057 49.4245 10.401 49.5703 10.5469C49.7214 10.6875 49.888 10.7865 50.0703 10.8438C50.2578 10.901 50.4505 10.9297 50.6484 10.9297C51.263 10.9297 51.75 10.8125 52.1094 10.5781C52.4688 10.3385 52.7266 10.0182 52.8828 9.61719C53.0443 9.21094 53.125 8.76042 53.125 8.26562ZM61.4297 9.75781C61.4297 9.54948 61.3828 9.35677 61.2891 9.17969C61.2005 8.9974 61.0156 8.83333 60.7344 8.6875C60.4583 8.53646 60.0417 8.40625 59.4844 8.29688C59.0156 8.19792 58.5911 8.08073 58.2109 7.94531C57.8359 7.8099 57.5156 7.64583 57.25 7.45312C56.9896 7.26042 56.7891 7.03385 56.6484 6.77344C56.5078 6.51302 56.4375 6.20833 56.4375 5.85938C56.4375 5.52604 56.5104 5.21094 56.6562 4.91406C56.8073 4.61719 57.0182 4.35417 57.2891 4.125C57.5651 3.89583 57.8958 3.71615 58.2812 3.58594C58.6667 3.45573 59.0964 3.39062 59.5703 3.39062C60.2474 3.39062 60.8255 3.51042 61.3047 3.75C61.7839 3.98958 62.151 4.3099 62.4062 4.71094C62.6615 5.10677 62.7891 5.54688 62.7891 6.03125H61.3438C61.3438 5.79688 61.2734 5.57031 61.1328 5.35156C60.9974 5.1276 60.7969 4.94271 60.5312 4.79688C60.2708 4.65104 59.9505 4.57812 59.5703 4.57812C59.1693 4.57812 58.8438 4.64062 58.5938 4.76562C58.349 4.88542 58.1693 5.03906 58.0547 5.22656C57.9453 5.41406 57.8906 5.61198 57.8906 5.82031C57.8906 5.97656 57.9167 6.11719 57.9688 6.24219C58.026 6.36198 58.125 6.47396 58.2656 6.57812C58.4062 6.67708 58.6042 6.77083 58.8594 6.85938C59.1146 6.94792 59.4401 7.03646 59.8359 7.125C60.5286 7.28125 61.099 7.46875 61.5469 7.6875C61.9948 7.90625 62.3281 8.17448 62.5469 8.49219C62.7656 8.8099 62.875 9.19531 62.875 9.64844C62.875 10.0182 62.7969 10.3568 62.6406 10.6641C62.4896 10.9714 62.2682 11.237 61.9766 11.4609C61.6901 11.6797 61.3464 11.8516 60.9453 11.9766C60.5495 12.0964 60.1042 12.1562 59.6094 12.1562C58.8646 12.1562 58.2344 12.0234 57.7188 11.7578C57.2031 11.4922 56.8125 11.1484 56.5469 10.7266C56.2812 10.3047 56.1484 9.85938 56.1484 9.39062H57.6016C57.6224 9.78646 57.737 10.1016 57.9453 10.3359C58.1536 10.5651 58.4089 10.7292 58.7109 10.8281C59.013 10.9219 59.3125 10.9688 59.6094 10.9688C60.0052 10.9688 60.3359 10.9167 60.6016 10.8125C60.8724 10.7083 61.0781 10.5651 61.2188 10.3828C61.3594 10.2005 61.4297 9.99219 61.4297 9.75781Z" fill="#FF6600"/>
</svg>
