<svg width="101" height="13" viewBox="0 0 101 13" fill="none" xmlns="http://www.w3.org/2000/svg">
<path d="M5.59375 1.63281L1.82812 12H0.289062L4.625 0.625H5.61719L5.59375 1.63281ZM8.75 12L4.97656 1.63281L4.95312 0.625H5.94531L10.2969 12H8.75ZM8.55469 7.78906V9.02344H2.16406V7.78906H8.55469ZM14.9844 10.9688C15.3281 10.9688 15.6458 10.8984 15.9375 10.7578C16.2292 10.6172 16.4688 10.4245 16.6562 10.1797C16.8438 9.92969 16.9505 9.64583 16.9766 9.32812H18.3516C18.3255 9.82812 18.1562 10.2943 17.8438 10.7266C17.5365 11.1536 17.1328 11.5 16.6328 11.7656C16.1328 12.026 15.5833 12.1562 14.9844 12.1562C14.349 12.1562 13.7943 12.0443 13.3203 11.8203C12.8516 11.5964 12.4609 11.2891 12.1484 10.8984C11.8411 10.5078 11.6094 10.0599 11.4531 9.55469C11.3021 9.04427 11.2266 8.50521 11.2266 7.9375V7.60938C11.2266 7.04167 11.3021 6.50521 11.4531 6C11.6094 5.48958 11.8411 5.03906 12.1484 4.64844C12.4609 4.25781 12.8516 3.95052 13.3203 3.72656C13.7943 3.5026 14.349 3.39062 14.9844 3.39062C15.6458 3.39062 16.224 3.52604 16.7188 3.79688C17.2135 4.0625 17.6016 4.42708 17.8828 4.89062C18.1693 5.34896 18.3255 5.86979 18.3516 6.45312H16.9766C16.9505 6.10417 16.8516 5.78906 16.6797 5.50781C16.513 5.22656 16.2839 5.0026 15.9922 4.83594C15.7057 4.66406 15.3698 4.57812 14.9844 4.57812C14.5417 4.57812 14.1693 4.66667 13.8672 4.84375C13.5703 5.01562 13.3333 5.25 13.1562 5.54688C12.9844 5.83854 12.8594 6.16406 12.7812 6.52344C12.7083 6.8776 12.6719 7.23958 12.6719 7.60938V7.9375C12.6719 8.30729 12.7083 8.67188 12.7812 9.03125C12.8542 9.39062 12.9766 9.71615 13.1484 10.0078C13.3255 10.2995 13.5625 10.5339 13.8594 10.7109C14.1615 10.8828 14.5365 10.9688 14.9844 10.9688ZM21.4219 0V12H19.9766V0H21.4219ZM21.0781 7.45312L20.4766 7.42969C20.4818 6.85156 20.5677 6.31771 20.7344 5.82812C20.901 5.33333 21.1354 4.90365 21.4375 4.53906C21.7396 4.17448 22.099 3.89323 22.5156 3.69531C22.9375 3.49219 23.4036 3.39062 23.9141 3.39062C24.3307 3.39062 24.7057 3.44792 25.0391 3.5625C25.3724 3.67188 25.6562 3.84896 25.8906 4.09375C26.1302 4.33854 26.3125 4.65625 26.4375 5.04688C26.5625 5.43229 26.625 5.90365 26.625 6.46094V12H25.1719V6.44531C25.1719 6.0026 25.1068 5.64844 24.9766 5.38281C24.8464 5.11198 24.6562 4.91667 24.4062 4.79688C24.1562 4.67188 23.849 4.60938 23.4844 4.60938C23.125 4.60938 22.7969 4.6849 22.5 4.83594C22.2083 4.98698 21.9557 5.19531 21.7422 5.46094C21.5339 5.72656 21.3698 6.03125 21.25 6.375C21.1354 6.71354 21.0781 7.07292 21.0781 7.45312ZM30.3594 3.54688V12H28.9062V3.54688H30.3594ZM28.7969 1.30469C28.7969 1.07031 28.8672 0.872396 29.0078 0.710938C29.1536 0.549479 29.3672 0.46875 29.6484 0.46875C29.9245 0.46875 30.1354 0.549479 30.2812 0.710938C30.4323 0.872396 30.5078 1.07031 30.5078 1.30469C30.5078 1.52865 30.4323 1.72135 30.2812 1.88281C30.1354 2.03906 29.9245 2.11719 29.6484 2.11719C29.3672 2.11719 29.1536 2.03906 29.0078 1.88281C28.8672 1.72135 28.7969 1.52865 28.7969 1.30469ZM36.1875 12.1562C35.599 12.1562 35.0651 12.0573 34.5859 11.8594C34.112 11.6562 33.7031 11.3724 33.3594 11.0078C33.0208 10.6432 32.7604 10.2109 32.5781 9.71094C32.3958 9.21094 32.3047 8.66406 32.3047 8.07031V7.74219C32.3047 7.05469 32.4062 6.44271 32.6094 5.90625C32.8125 5.36458 33.0885 4.90625 33.4375 4.53125C33.7865 4.15625 34.1823 3.8724 34.625 3.67969C35.0677 3.48698 35.526 3.39062 36 3.39062C36.6042 3.39062 37.125 3.49479 37.5625 3.70312C38.0052 3.91146 38.3672 4.20312 38.6484 4.57812C38.9297 4.94792 39.138 5.38542 39.2734 5.89062C39.4089 6.39062 39.4766 6.9375 39.4766 7.53125V8.17969H33.1641V7H38.0312V6.89062C38.0104 6.51562 37.9323 6.15104 37.7969 5.79688C37.6667 5.44271 37.4583 5.15104 37.1719 4.92188C36.8854 4.69271 36.4948 4.57812 36 4.57812C35.6719 4.57812 35.3698 4.64844 35.0938 4.78906C34.8177 4.92448 34.5807 5.1276 34.3828 5.39844C34.1849 5.66927 34.0312 6 33.9219 6.39062C33.8125 6.78125 33.7578 7.23177 33.7578 7.74219V8.07031C33.7578 8.47135 33.8125 8.84896 33.9219 9.20312C34.0365 9.55208 34.2005 9.85938 34.4141 10.125C34.6328 10.3906 34.8958 10.599 35.2031 10.75C35.5156 10.901 35.8698 10.9766 36.2656 10.9766C36.776 10.9766 37.2083 10.8724 37.5625 10.6641C37.9167 10.4557 38.2266 10.1771 38.4922 9.82812L39.3672 10.5234C39.1849 10.7995 38.9531 11.0625 38.6719 11.3125C38.3906 11.5625 38.0443 11.7656 37.6328 11.9219C37.2266 12.0781 36.7448 12.1562 36.1875 12.1562ZM43.625 10.6953L45.9375 3.54688H47.4141L44.375 12H43.4062L43.625 10.6953ZM41.6953 3.54688L44.0781 10.7344L44.2422 12H43.2734L40.2109 3.54688H41.6953ZM52.2031 12.1562C51.6146 12.1562 51.0807 12.0573 50.6016 11.8594C50.1276 11.6562 49.7188 11.3724 49.375 11.0078C49.0365 10.6432 48.776 10.2109 48.5938 9.71094C48.4115 9.21094 48.3203 8.66406 48.3203 8.07031V7.74219C48.3203 7.05469 48.4219 6.44271 48.625 5.90625C48.8281 5.36458 49.1042 4.90625 49.4531 4.53125C49.8021 4.15625 50.1979 3.8724 50.6406 3.67969C51.0833 3.48698 51.5417 3.39062 52.0156 3.39062C52.6198 3.39062 53.1406 3.49479 53.5781 3.70312C54.0208 3.91146 54.3828 4.20312 54.6641 4.57812C54.9453 4.94792 55.1536 5.38542 55.2891 5.89062C55.4245 6.39062 55.4922 6.9375 55.4922 7.53125V8.17969H49.1797V7H54.0469V6.89062C54.026 6.51562 53.9479 6.15104 53.8125 5.79688C53.6823 5.44271 53.474 5.15104 53.1875 4.92188C52.901 4.69271 52.5104 4.57812 52.0156 4.57812C51.6875 4.57812 51.3854 4.64844 51.1094 4.78906C50.8333 4.92448 50.5964 5.1276 50.3984 5.39844C50.2005 5.66927 50.0469 6 49.9375 6.39062C49.8281 6.78125 49.7734 7.23177 49.7734 7.74219V8.07031C49.7734 8.47135 49.8281 8.84896 49.9375 9.20312C50.0521 9.55208 50.2161 9.85938 50.4297 10.125C50.6484 10.3906 50.9115 10.599 51.2188 10.75C51.5312 10.901 51.8854 10.9766 52.2812 10.9766C52.7917 10.9766 53.224 10.8724 53.5781 10.6641C53.9323 10.4557 54.2422 10.1771 54.5078 9.82812L55.3828 10.5234C55.2005 10.7995 54.9688 11.0625 54.6875 11.3125C54.4062 11.5625 54.0599 11.7656 53.6484 11.9219C53.2422 12.0781 52.7604 12.1562 52.2031 12.1562ZM58.6172 5.22656V12H57.1641V3.54688H58.5391L58.6172 5.22656ZM58.3203 7.45312L57.6484 7.42969C57.6536 6.85156 57.7292 6.31771 57.875 5.82812C58.0208 5.33333 58.237 4.90365 58.5234 4.53906C58.8099 4.17448 59.1667 3.89323 59.5938 3.69531C60.0208 3.49219 60.5156 3.39062 61.0781 3.39062C61.474 3.39062 61.8385 3.44792 62.1719 3.5625C62.5052 3.67188 62.7943 3.84635 63.0391 4.08594C63.2839 4.32552 63.474 4.63281 63.6094 5.00781C63.7448 5.38281 63.8125 5.83594 63.8125 6.36719V12H62.3672V6.4375C62.3672 5.99479 62.2917 5.64062 62.1406 5.375C61.9948 5.10938 61.7865 4.91667 61.5156 4.79688C61.2448 4.67188 60.9271 4.60938 60.5625 4.60938C60.1354 4.60938 59.7786 4.6849 59.4922 4.83594C59.2057 4.98698 58.9766 5.19531 58.8047 5.46094C58.6328 5.72656 58.5078 6.03125 58.4297 6.375C58.3568 6.71354 58.3203 7.07292 58.3203 7.45312ZM63.7969 6.65625L62.8281 6.95312C62.8333 6.48958 62.9089 6.04427 63.0547 5.61719C63.2057 5.1901 63.4219 4.8099 63.7031 4.47656C63.9896 4.14323 64.3411 3.88021 64.7578 3.6875C65.1745 3.48958 65.651 3.39062 66.1875 3.39062C66.6406 3.39062 67.0417 3.45052 67.3906 3.57031C67.7448 3.6901 68.0417 3.875 68.2812 4.125C68.526 4.36979 68.7109 4.6849 68.8359 5.07031C68.9609 5.45573 69.0234 5.91406 69.0234 6.44531V12H67.5703V6.42969C67.5703 5.95573 67.4948 5.58854 67.3438 5.32812C67.1979 5.0625 66.9896 4.8776 66.7188 4.77344C66.4531 4.66406 66.1354 4.60938 65.7656 4.60938C65.4479 4.60938 65.1667 4.66406 64.9219 4.77344C64.6771 4.88281 64.4714 5.03385 64.3047 5.22656C64.138 5.41406 64.0104 5.63021 63.9219 5.875C63.8385 6.11979 63.7969 6.38021 63.7969 6.65625ZM74.7188 12.1562C74.1302 12.1562 73.5964 12.0573 73.1172 11.8594C72.6432 11.6562 72.2344 11.3724 71.8906 11.0078C71.5521 10.6432 71.2917 10.2109 71.1094 9.71094C70.9271 9.21094 70.8359 8.66406 70.8359 8.07031V7.74219C70.8359 7.05469 70.9375 6.44271 71.1406 5.90625C71.3438 5.36458 71.6198 4.90625 71.9688 4.53125C72.3177 4.15625 72.7135 3.8724 73.1562 3.67969C73.599 3.48698 74.0573 3.39062 74.5312 3.39062C75.1354 3.39062 75.6562 3.49479 76.0938 3.70312C76.5365 3.91146 76.8984 4.20312 77.1797 4.57812C77.4609 4.94792 77.6693 5.38542 77.8047 5.89062C77.9401 6.39062 78.0078 6.9375 78.0078 7.53125V8.17969H71.6953V7H76.5625V6.89062C76.5417 6.51562 76.4635 6.15104 76.3281 5.79688C76.1979 5.44271 75.9896 5.15104 75.7031 4.92188C75.4167 4.69271 75.026 4.57812 74.5312 4.57812C74.2031 4.57812 73.901 4.64844 73.625 4.78906C73.349 4.92448 73.112 5.1276 72.9141 5.39844C72.7161 5.66927 72.5625 6 72.4531 6.39062C72.3438 6.78125 72.2891 7.23177 72.2891 7.74219V8.07031C72.2891 8.47135 72.3438 8.84896 72.4531 9.20312C72.5677 9.55208 72.7318 9.85938 72.9453 10.125C73.1641 10.3906 73.4271 10.599 73.7344 10.75C74.0469 10.901 74.401 10.9766 74.7969 10.9766C75.3073 10.9766 75.7396 10.8724 76.0938 10.6641C76.4479 10.4557 76.7578 10.1771 77.0234 9.82812L77.8984 10.5234C77.7161 10.7995 77.4844 11.0625 77.2031 11.3125C76.9219 11.5625 76.5755 11.7656 76.1641 11.9219C75.7578 12.0781 75.276 12.1562 74.7188 12.1562ZM81.1406 5.35156V12H79.6953V3.54688H81.0625L81.1406 5.35156ZM80.7969 7.45312L80.1953 7.42969C80.2005 6.85156 80.2865 6.31771 80.4531 5.82812C80.6198 5.33333 80.8542 4.90365 81.1562 4.53906C81.4583 4.17448 81.8177 3.89323 82.2344 3.69531C82.6562 3.49219 83.1224 3.39062 83.6328 3.39062C84.0495 3.39062 84.4245 3.44792 84.7578 3.5625C85.0911 3.67188 85.375 3.84896 85.6094 4.09375C85.849 4.33854 86.0312 4.65625 86.1562 5.04688C86.2812 5.43229 86.3438 5.90365 86.3438 6.46094V12H84.8906V6.44531C84.8906 6.0026 84.8255 5.64844 84.6953 5.38281C84.5651 5.11198 84.375 4.91667 84.125 4.79688C83.875 4.67188 83.5677 4.60938 83.2031 4.60938C82.8438 4.60938 82.5156 4.6849 82.2188 4.83594C81.9271 4.98698 81.6745 5.19531 81.4609 5.46094C81.2526 5.72656 81.0885 6.03125 80.9688 6.375C80.8542 6.71354 80.7969 7.07292 80.7969 7.45312ZM92.0781 3.54688V4.65625H87.5078V3.54688H92.0781ZM89.0547 1.49219H90.5V9.90625C90.5 10.1927 90.5443 10.4089 90.6328 10.5547C90.7214 10.7005 90.8359 10.7969 90.9766 10.8438C91.1172 10.8906 91.2682 10.9141 91.4297 10.9141C91.5495 10.9141 91.6745 10.9036 91.8047 10.8828C91.9401 10.8568 92.0417 10.8359 92.1094 10.8203L92.1172 12C92.0026 12.0365 91.8516 12.0703 91.6641 12.1016C91.4818 12.138 91.2604 12.1562 91 12.1562C90.6458 12.1562 90.3203 12.0859 90.0234 11.9453C89.7266 11.8047 89.4896 11.5703 89.3125 11.2422C89.1406 10.9089 89.0547 10.4609 89.0547 9.89844V1.49219ZM98.6953 9.75781C98.6953 9.54948 98.6484 9.35677 98.5547 9.17969C98.4661 8.9974 98.2812 8.83333 98 8.6875C97.724 8.53646 97.3073 8.40625 96.75 8.29688C96.2812 8.19792 95.8568 8.08073 95.4766 7.94531C95.1016 7.8099 94.7812 7.64583 94.5156 7.45312C94.2552 7.26042 94.0547 7.03385 93.9141 6.77344C93.7734 6.51302 93.7031 6.20833 93.7031 5.85938C93.7031 5.52604 93.776 5.21094 93.9219 4.91406C94.0729 4.61719 94.2839 4.35417 94.5547 4.125C94.8307 3.89583 95.1615 3.71615 95.5469 3.58594C95.9323 3.45573 96.362 3.39062 96.8359 3.39062C97.513 3.39062 98.0911 3.51042 98.5703 3.75C99.0495 3.98958 99.4167 4.3099 99.6719 4.71094C99.9271 5.10677 100.055 5.54688 100.055 6.03125H98.6094C98.6094 5.79688 98.5391 5.57031 98.3984 5.35156C98.263 5.1276 98.0625 4.94271 97.7969 4.79688C97.5365 4.65104 97.2161 4.57812 96.8359 4.57812C96.4349 4.57812 96.1094 4.64062 95.8594 4.76562C95.6146 4.88542 95.4349 5.03906 95.3203 5.22656C95.2109 5.41406 95.1562 5.61198 95.1562 5.82031C95.1562 5.97656 95.1823 6.11719 95.2344 6.24219C95.2917 6.36198 95.3906 6.47396 95.5312 6.57812C95.6719 6.67708 95.8698 6.77083 96.125 6.85938C96.3802 6.94792 96.7057 7.03646 97.1016 7.125C97.7943 7.28125 98.3646 7.46875 98.8125 7.6875C99.2604 7.90625 99.5938 8.17448 99.8125 8.49219C100.031 8.8099 100.141 9.19531 100.141 9.64844C100.141 10.0182 100.062 10.3568 99.9062 10.6641C99.7552 10.9714 99.5339 11.237 99.2422 11.4609C98.9557 11.6797 98.612 11.8516 98.2109 11.9766C97.8151 12.0964 97.3698 12.1562 96.875 12.1562C96.1302 12.1562 95.5 12.0234 94.9844 11.7578C94.4688 11.4922 94.0781 11.1484 93.8125 10.7266C93.5469 10.3047 93.4141 9.85938 93.4141 9.39062H94.8672C94.888 9.78646 95.0026 10.1016 95.2109 10.3359C95.4193 10.5651 95.6745 10.7292 95.9766 10.8281C96.2786 10.9219 96.5781 10.9688 96.875 10.9688C97.2708 10.9688 97.6016 10.9167 97.8672 10.8125C98.138 10.7083 98.3438 10.5651 98.4844 10.3828C98.625 10.2005 98.6953 9.99219 98.6953 9.75781Z" fill="#FF6600"/>
</svg>
