<svg width="168" height="16" viewBox="0 0 168 16" fill="none" xmlns="http://www.w3.org/2000/svg">
<path d="M5.90625 1.63281L2.14062 12H0.601562L4.9375 0.625H5.92969L5.90625 1.63281ZM9.0625 12L5.28906 1.63281L5.26562 0.625H6.25781L10.6094 12H9.0625ZM8.86719 7.78906V9.02344H2.47656V7.78906H8.86719ZM15.2969 10.9688C15.6406 10.9688 15.9583 10.8984 16.25 10.7578C16.5417 10.6172 16.7812 10.4245 16.9688 10.1797C17.1562 9.92969 17.263 9.64583 17.2891 9.32812H18.6641C18.638 9.82812 18.4688 10.2943 18.1562 10.7266C17.849 11.1536 17.4453 11.5 16.9453 11.7656C16.4453 12.026 15.8958 12.1562 15.2969 12.1562C14.6615 12.1562 14.1068 12.0443 13.6328 11.8203C13.1641 11.5964 12.7734 11.2891 12.4609 10.8984C12.1536 10.5078 11.9219 10.0599 11.7656 9.55469C11.6146 9.04427 11.5391 8.50521 11.5391 7.9375V7.60938C11.5391 7.04167 11.6146 6.50521 11.7656 6C11.9219 5.48958 12.1536 5.03906 12.4609 4.64844C12.7734 4.25781 13.1641 3.95052 13.6328 3.72656C14.1068 3.5026 14.6615 3.39062 15.2969 3.39062C15.9583 3.39062 16.5365 3.52604 17.0312 3.79688C17.526 4.0625 17.9141 4.42708 18.1953 4.89062C18.4818 5.34896 18.638 5.86979 18.6641 6.45312H17.2891C17.263 6.10417 17.1641 5.78906 16.9922 5.50781C16.8255 5.22656 16.5964 5.0026 16.3047 4.83594C16.0182 4.66406 15.6823 4.57812 15.2969 4.57812C14.8542 4.57812 14.4818 4.66667 14.1797 4.84375C13.8828 5.01562 13.6458 5.25 13.4688 5.54688C13.2969 5.83854 13.1719 6.16406 13.0938 6.52344C13.0208 6.8776 12.9844 7.23958 12.9844 7.60938V7.9375C12.9844 8.30729 13.0208 8.67188 13.0938 9.03125C13.1667 9.39062 13.2891 9.71615 13.4609 10.0078C13.638 10.2995 13.875 10.5339 14.1719 10.7109C14.474 10.8828 14.849 10.9688 15.2969 10.9688ZM21.7344 0V12H20.2891V0H21.7344ZM21.3906 7.45312L20.7891 7.42969C20.7943 6.85156 20.8802 6.31771 21.0469 5.82812C21.2135 5.33333 21.4479 4.90365 21.75 4.53906C22.0521 4.17448 22.4115 3.89323 22.8281 3.69531C23.25 3.49219 23.7161 3.39062 24.2266 3.39062C24.6432 3.39062 25.0182 3.44792 25.3516 3.5625C25.6849 3.67188 25.9688 3.84896 26.2031 4.09375C26.4427 4.33854 26.625 4.65625 26.75 5.04688C26.875 5.43229 26.9375 5.90365 26.9375 6.46094V12H25.4844V6.44531C25.4844 6.0026 25.4193 5.64844 25.2891 5.38281C25.1589 5.11198 24.9688 4.91667 24.7188 4.79688C24.4688 4.67188 24.1615 4.60938 23.7969 4.60938C23.4375 4.60938 23.1094 4.6849 22.8125 4.83594C22.5208 4.98698 22.2682 5.19531 22.0547 5.46094C21.8464 5.72656 21.6823 6.03125 21.5625 6.375C21.4479 6.71354 21.3906 7.07292 21.3906 7.45312ZM30.6719 3.54688V12H29.2188V3.54688H30.6719ZM29.1094 1.30469C29.1094 1.07031 29.1797 0.872396 29.3203 0.710938C29.4661 0.549479 29.6797 0.46875 29.9609 0.46875C30.237 0.46875 30.4479 0.549479 30.5938 0.710938C30.7448 0.872396 30.8203 1.07031 30.8203 1.30469C30.8203 1.52865 30.7448 1.72135 30.5938 1.88281C30.4479 2.03906 30.237 2.11719 29.9609 2.11719C29.6797 2.11719 29.4661 2.03906 29.3203 1.88281C29.1797 1.72135 29.1094 1.52865 29.1094 1.30469ZM36.5 12.1562C35.9115 12.1562 35.3776 12.0573 34.8984 11.8594C34.4245 11.6562 34.0156 11.3724 33.6719 11.0078C33.3333 10.6432 33.0729 10.2109 32.8906 9.71094C32.7083 9.21094 32.6172 8.66406 32.6172 8.07031V7.74219C32.6172 7.05469 32.7188 6.44271 32.9219 5.90625C33.125 5.36458 33.401 4.90625 33.75 4.53125C34.099 4.15625 34.4948 3.8724 34.9375 3.67969C35.3802 3.48698 35.8385 3.39062 36.3125 3.39062C36.9167 3.39062 37.4375 3.49479 37.875 3.70312C38.3177 3.91146 38.6797 4.20312 38.9609 4.57812C39.2422 4.94792 39.4505 5.38542 39.5859 5.89062C39.7214 6.39062 39.7891 6.9375 39.7891 7.53125V8.17969H33.4766V7H38.3438V6.89062C38.3229 6.51562 38.2448 6.15104 38.1094 5.79688C37.9792 5.44271 37.7708 5.15104 37.4844 4.92188C37.1979 4.69271 36.8073 4.57812 36.3125 4.57812C35.9844 4.57812 35.6823 4.64844 35.4062 4.78906C35.1302 4.92448 34.8932 5.1276 34.6953 5.39844C34.4974 5.66927 34.3438 6 34.2344 6.39062C34.125 6.78125 34.0703 7.23177 34.0703 7.74219V8.07031C34.0703 8.47135 34.125 8.84896 34.2344 9.20312C34.349 9.55208 34.513 9.85938 34.7266 10.125C34.9453 10.3906 35.2083 10.599 35.5156 10.75C35.8281 10.901 36.1823 10.9766 36.5781 10.9766C37.0885 10.9766 37.5208 10.8724 37.875 10.6641C38.2292 10.4557 38.5391 10.1771 38.8047 9.82812L39.6797 10.5234C39.4974 10.7995 39.2656 11.0625 38.9844 11.3125C38.7031 11.5625 38.3568 11.7656 37.9453 11.9219C37.5391 12.0781 37.0573 12.1562 36.5 12.1562ZM43.9375 10.6953L46.25 3.54688H47.7266L44.6875 12H43.7188L43.9375 10.6953ZM42.0078 3.54688L44.3906 10.7344L44.5547 12H43.5859L40.5234 3.54688H42.0078ZM52.5156 12.1562C51.9271 12.1562 51.3932 12.0573 50.9141 11.8594C50.4401 11.6562 50.0312 11.3724 49.6875 11.0078C49.349 10.6432 49.0885 10.2109 48.9062 9.71094C48.724 9.21094 48.6328 8.66406 48.6328 8.07031V7.74219C48.6328 7.05469 48.7344 6.44271 48.9375 5.90625C49.1406 5.36458 49.4167 4.90625 49.7656 4.53125C50.1146 4.15625 50.5104 3.8724 50.9531 3.67969C51.3958 3.48698 51.8542 3.39062 52.3281 3.39062C52.9323 3.39062 53.4531 3.49479 53.8906 3.70312C54.3333 3.91146 54.6953 4.20312 54.9766 4.57812C55.2578 4.94792 55.4661 5.38542 55.6016 5.89062C55.737 6.39062 55.8047 6.9375 55.8047 7.53125V8.17969H49.4922V7H54.3594V6.89062C54.3385 6.51562 54.2604 6.15104 54.125 5.79688C53.9948 5.44271 53.7865 5.15104 53.5 4.92188C53.2135 4.69271 52.8229 4.57812 52.3281 4.57812C52 4.57812 51.6979 4.64844 51.4219 4.78906C51.1458 4.92448 50.9089 5.1276 50.7109 5.39844C50.513 5.66927 50.3594 6 50.25 6.39062C50.1406 6.78125 50.0859 7.23177 50.0859 7.74219V8.07031C50.0859 8.47135 50.1406 8.84896 50.25 9.20312C50.3646 9.55208 50.5286 9.85938 50.7422 10.125C50.9609 10.3906 51.224 10.599 51.5312 10.75C51.8438 10.901 52.1979 10.9766 52.5938 10.9766C53.1042 10.9766 53.5365 10.8724 53.8906 10.6641C54.2448 10.4557 54.5547 10.1771 54.8203 9.82812L55.6953 10.5234C55.513 10.7995 55.2812 11.0625 55 11.3125C54.7188 11.5625 54.3724 11.7656 53.9609 11.9219C53.5547 12.0781 53.0729 12.1562 52.5156 12.1562ZM58.9297 5.22656V12H57.4766V3.54688H58.8516L58.9297 5.22656ZM58.6328 7.45312L57.9609 7.42969C57.9661 6.85156 58.0417 6.31771 58.1875 5.82812C58.3333 5.33333 58.5495 4.90365 58.8359 4.53906C59.1224 4.17448 59.4792 3.89323 59.9062 3.69531C60.3333 3.49219 60.8281 3.39062 61.3906 3.39062C61.7865 3.39062 62.151 3.44792 62.4844 3.5625C62.8177 3.67188 63.1068 3.84635 63.3516 4.08594C63.5964 4.32552 63.7865 4.63281 63.9219 5.00781C64.0573 5.38281 64.125 5.83594 64.125 6.36719V12H62.6797V6.4375C62.6797 5.99479 62.6042 5.64062 62.4531 5.375C62.3073 5.10938 62.099 4.91667 61.8281 4.79688C61.5573 4.67188 61.2396 4.60938 60.875 4.60938C60.4479 4.60938 60.0911 4.6849 59.8047 4.83594C59.5182 4.98698 59.2891 5.19531 59.1172 5.46094C58.9453 5.72656 58.8203 6.03125 58.7422 6.375C58.6693 6.71354 58.6328 7.07292 58.6328 7.45312ZM64.1094 6.65625L63.1406 6.95312C63.1458 6.48958 63.2214 6.04427 63.3672 5.61719C63.5182 5.1901 63.7344 4.8099 64.0156 4.47656C64.3021 4.14323 64.6536 3.88021 65.0703 3.6875C65.487 3.48958 65.9635 3.39062 66.5 3.39062C66.9531 3.39062 67.3542 3.45052 67.7031 3.57031C68.0573 3.6901 68.3542 3.875 68.5938 4.125C68.8385 4.36979 69.0234 4.6849 69.1484 5.07031C69.2734 5.45573 69.3359 5.91406 69.3359 6.44531V12H67.8828V6.42969C67.8828 5.95573 67.8073 5.58854 67.6562 5.32812C67.5104 5.0625 67.3021 4.8776 67.0312 4.77344C66.7656 4.66406 66.4479 4.60938 66.0781 4.60938C65.7604 4.60938 65.4792 4.66406 65.2344 4.77344C64.9896 4.88281 64.7839 5.03385 64.6172 5.22656C64.4505 5.41406 64.3229 5.63021 64.2344 5.875C64.151 6.11979 64.1094 6.38021 64.1094 6.65625ZM75.0312 12.1562C74.4427 12.1562 73.9089 12.0573 73.4297 11.8594C72.9557 11.6562 72.5469 11.3724 72.2031 11.0078C71.8646 10.6432 71.6042 10.2109 71.4219 9.71094C71.2396 9.21094 71.1484 8.66406 71.1484 8.07031V7.74219C71.1484 7.05469 71.25 6.44271 71.4531 5.90625C71.6562 5.36458 71.9323 4.90625 72.2812 4.53125C72.6302 4.15625 73.026 3.8724 73.4688 3.67969C73.9115 3.48698 74.3698 3.39062 74.8438 3.39062C75.4479 3.39062 75.9688 3.49479 76.4062 3.70312C76.849 3.91146 77.2109 4.20312 77.4922 4.57812C77.7734 4.94792 77.9818 5.38542 78.1172 5.89062C78.2526 6.39062 78.3203 6.9375 78.3203 7.53125V8.17969H72.0078V7H76.875V6.89062C76.8542 6.51562 76.776 6.15104 76.6406 5.79688C76.5104 5.44271 76.3021 5.15104 76.0156 4.92188C75.7292 4.69271 75.3385 4.57812 74.8438 4.57812C74.5156 4.57812 74.2135 4.64844 73.9375 4.78906C73.6615 4.92448 73.4245 5.1276 73.2266 5.39844C73.0286 5.66927 72.875 6 72.7656 6.39062C72.6562 6.78125 72.6016 7.23177 72.6016 7.74219V8.07031C72.6016 8.47135 72.6562 8.84896 72.7656 9.20312C72.8802 9.55208 73.0443 9.85938 73.2578 10.125C73.4766 10.3906 73.7396 10.599 74.0469 10.75C74.3594 10.901 74.7135 10.9766 75.1094 10.9766C75.6198 10.9766 76.0521 10.8724 76.4062 10.6641C76.7604 10.4557 77.0703 10.1771 77.3359 9.82812L78.2109 10.5234C78.0286 10.7995 77.7969 11.0625 77.5156 11.3125C77.2344 11.5625 76.888 11.7656 76.4766 11.9219C76.0703 12.0781 75.5885 12.1562 75.0312 12.1562ZM81.4531 5.35156V12H80.0078V3.54688H81.375L81.4531 5.35156ZM81.1094 7.45312L80.5078 7.42969C80.513 6.85156 80.599 6.31771 80.7656 5.82812C80.9323 5.33333 81.1667 4.90365 81.4688 4.53906C81.7708 4.17448 82.1302 3.89323 82.5469 3.69531C82.9688 3.49219 83.4349 3.39062 83.9453 3.39062C84.362 3.39062 84.737 3.44792 85.0703 3.5625C85.4036 3.67188 85.6875 3.84896 85.9219 4.09375C86.1615 4.33854 86.3438 4.65625 86.4688 5.04688C86.5938 5.43229 86.6562 5.90365 86.6562 6.46094V12H85.2031V6.44531C85.2031 6.0026 85.138 5.64844 85.0078 5.38281C84.8776 5.11198 84.6875 4.91667 84.4375 4.79688C84.1875 4.67188 83.8802 4.60938 83.5156 4.60938C83.1562 4.60938 82.8281 4.6849 82.5312 4.83594C82.2396 4.98698 81.987 5.19531 81.7734 5.46094C81.5651 5.72656 81.401 6.03125 81.2812 6.375C81.1667 6.71354 81.1094 7.07292 81.1094 7.45312ZM92.3906 3.54688V4.65625H87.8203V3.54688H92.3906ZM89.3672 1.49219H90.8125V9.90625C90.8125 10.1927 90.8568 10.4089 90.9453 10.5547C91.0339 10.7005 91.1484 10.7969 91.2891 10.8438C91.4297 10.8906 91.5807 10.9141 91.7422 10.9141C91.862 10.9141 91.987 10.9036 92.1172 10.8828C92.2526 10.8568 92.3542 10.8359 92.4219 10.8203L92.4297 12C92.3151 12.0365 92.1641 12.0703 91.9766 12.1016C91.7943 12.138 91.5729 12.1562 91.3125 12.1562C90.9583 12.1562 90.6328 12.0859 90.3359 11.9453C90.0391 11.8047 89.8021 11.5703 89.625 11.2422C89.4531 10.9089 89.3672 10.4609 89.3672 9.89844V1.49219ZM99.0078 9.75781C99.0078 9.54948 98.9609 9.35677 98.8672 9.17969C98.7786 8.9974 98.5938 8.83333 98.3125 8.6875C98.0365 8.53646 97.6198 8.40625 97.0625 8.29688C96.5938 8.19792 96.1693 8.08073 95.7891 7.94531C95.4141 7.8099 95.0938 7.64583 94.8281 7.45312C94.5677 7.26042 94.3672 7.03385 94.2266 6.77344C94.0859 6.51302 94.0156 6.20833 94.0156 5.85938C94.0156 5.52604 94.0885 5.21094 94.2344 4.91406C94.3854 4.61719 94.5964 4.35417 94.8672 4.125C95.1432 3.89583 95.474 3.71615 95.8594 3.58594C96.2448 3.45573 96.6745 3.39062 97.1484 3.39062C97.8255 3.39062 98.4036 3.51042 98.8828 3.75C99.362 3.98958 99.7292 4.3099 99.9844 4.71094C100.24 5.10677 100.367 5.54688 100.367 6.03125H98.9219C98.9219 5.79688 98.8516 5.57031 98.7109 5.35156C98.5755 5.1276 98.375 4.94271 98.1094 4.79688C97.849 4.65104 97.5286 4.57812 97.1484 4.57812C96.7474 4.57812 96.4219 4.64062 96.1719 4.76562C95.9271 4.88542 95.7474 5.03906 95.6328 5.22656C95.5234 5.41406 95.4688 5.61198 95.4688 5.82031C95.4688 5.97656 95.4948 6.11719 95.5469 6.24219C95.6042 6.36198 95.7031 6.47396 95.8438 6.57812C95.9844 6.67708 96.1823 6.77083 96.4375 6.85938C96.6927 6.94792 97.0182 7.03646 97.4141 7.125C98.1068 7.28125 98.6771 7.46875 99.125 7.6875C99.5729 7.90625 99.9062 8.17448 100.125 8.49219C100.344 8.8099 100.453 9.19531 100.453 9.64844C100.453 10.0182 100.375 10.3568 100.219 10.6641C100.068 10.9714 99.8464 11.237 99.5547 11.4609C99.2682 11.6797 98.9245 11.8516 98.5234 11.9766C98.1276 12.0964 97.6823 12.1562 97.1875 12.1562C96.4427 12.1562 95.8125 12.0234 95.2969 11.7578C94.7812 11.4922 94.3906 11.1484 94.125 10.7266C93.8594 10.3047 93.7266 9.85938 93.7266 9.39062H95.1797C95.2005 9.78646 95.3151 10.1016 95.5234 10.3359C95.7318 10.5651 95.987 10.7292 96.2891 10.8281C96.5911 10.9219 96.8906 10.9688 97.1875 10.9688C97.5833 10.9688 97.9141 10.9167 98.1797 10.8125C98.4505 10.7083 98.6562 10.5651 98.7969 10.3828C98.9375 10.2005 99.0078 9.99219 99.0078 9.75781ZM110.75 1.63281L106.984 12H105.445L109.781 0.625H110.773L110.75 1.63281ZM113.906 12L110.133 1.63281L110.109 0.625H111.102L115.453 12H113.906ZM113.711 7.78906V9.02344H107.32V7.78906H113.711ZM120.141 10.9688C120.484 10.9688 120.802 10.8984 121.094 10.7578C121.385 10.6172 121.625 10.4245 121.812 10.1797C122 9.92969 122.107 9.64583 122.133 9.32812H123.508C123.482 9.82812 123.312 10.2943 123 10.7266C122.693 11.1536 122.289 11.5 121.789 11.7656C121.289 12.026 120.74 12.1562 120.141 12.1562C119.505 12.1562 118.951 12.0443 118.477 11.8203C118.008 11.5964 117.617 11.2891 117.305 10.8984C116.997 10.5078 116.766 10.0599 116.609 9.55469C116.458 9.04427 116.383 8.50521 116.383 7.9375V7.60938C116.383 7.04167 116.458 6.50521 116.609 6C116.766 5.48958 116.997 5.03906 117.305 4.64844C117.617 4.25781 118.008 3.95052 118.477 3.72656C118.951 3.5026 119.505 3.39062 120.141 3.39062C120.802 3.39062 121.38 3.52604 121.875 3.79688C122.37 4.0625 122.758 4.42708 123.039 4.89062C123.326 5.34896 123.482 5.86979 123.508 6.45312H122.133C122.107 6.10417 122.008 5.78906 121.836 5.50781C121.669 5.22656 121.44 5.0026 121.148 4.83594C120.862 4.66406 120.526 4.57812 120.141 4.57812C119.698 4.57812 119.326 4.66667 119.023 4.84375C118.727 5.01562 118.49 5.25 118.312 5.54688C118.141 5.83854 118.016 6.16406 117.938 6.52344C117.865 6.8776 117.828 7.23958 117.828 7.60938V7.9375C117.828 8.30729 117.865 8.67188 117.938 9.03125C118.01 9.39062 118.133 9.71615 118.305 10.0078C118.482 10.2995 118.719 10.5339 119.016 10.7109C119.318 10.8828 119.693 10.9688 120.141 10.9688ZM130.453 15.25V5.17188L130.578 3.54688H131.906V15.25H130.453ZM124.773 7.86719V7.70312C124.773 7.05729 124.849 6.47135 125 5.94531C125.151 5.41406 125.372 4.95833 125.664 4.57812C125.956 4.19792 126.307 3.90625 126.719 3.70312C127.135 3.49479 127.609 3.39062 128.141 3.39062C128.672 3.39062 129.138 3.48438 129.539 3.67188C129.945 3.85417 130.289 4.1224 130.57 4.47656C130.857 4.82552 131.083 5.2474 131.25 5.74219C131.417 6.23698 131.531 6.79688 131.594 7.42188V8.14062C131.536 8.76042 131.424 9.31771 131.258 9.8125C131.091 10.3073 130.865 10.7292 130.578 11.0781C130.297 11.4271 129.951 11.6953 129.539 11.8828C129.133 12.0651 128.661 12.1562 128.125 12.1562C127.604 12.1562 127.135 12.0495 126.719 11.8359C126.307 11.6224 125.956 11.3229 125.664 10.9375C125.378 10.5521 125.156 10.099 125 9.57812C124.849 9.05208 124.773 8.48177 124.773 7.86719ZM126.227 7.70312V7.86719C126.227 8.28906 126.271 8.6875 126.359 9.0625C126.448 9.43229 126.583 9.76042 126.766 10.0469C126.953 10.3333 127.188 10.5599 127.469 10.7266C127.755 10.888 128.094 10.9688 128.484 10.9688C128.964 10.9688 129.362 10.8646 129.68 10.6562C130.003 10.4479 130.26 10.1745 130.453 9.83594C130.646 9.49219 130.794 9.125 130.898 8.73438V6.85156C130.841 6.5651 130.75 6.28646 130.625 6.01562C130.505 5.74479 130.349 5.5026 130.156 5.28906C129.964 5.07031 129.729 4.89844 129.453 4.77344C129.182 4.64323 128.865 4.57812 128.5 4.57812C128.104 4.57812 127.763 4.66146 127.477 4.82812C127.19 4.99479 126.953 5.22396 126.766 5.51562C126.583 5.80208 126.448 6.13281 126.359 6.50781C126.271 6.88281 126.227 7.28125 126.227 7.70312ZM139.398 10.0469V3.54688H140.852V12H139.469L139.398 10.0469ZM139.672 8.26562L140.273 8.25C140.273 8.8125 140.214 9.33333 140.094 9.8125C139.979 10.2865 139.792 10.6979 139.531 11.0469C139.271 11.3958 138.93 11.6693 138.508 11.8672C138.086 12.0599 137.573 12.1562 136.969 12.1562C136.557 12.1562 136.18 12.0964 135.836 11.9766C135.497 11.8568 135.206 11.6719 134.961 11.4219C134.716 11.1719 134.526 10.8464 134.391 10.4453C134.26 10.0443 134.195 9.5625 134.195 9V3.54688H135.641V9.01562C135.641 9.39583 135.682 9.71094 135.766 9.96094C135.854 10.2057 135.971 10.401 136.117 10.5469C136.268 10.6875 136.435 10.7865 136.617 10.8438C136.805 10.901 136.997 10.9297 137.195 10.9297C137.81 10.9297 138.297 10.8125 138.656 10.5781C139.016 10.3385 139.273 10.0182 139.43 9.61719C139.591 9.21094 139.672 8.76042 139.672 8.26562ZM144.625 3.54688V12H143.172V3.54688H144.625ZM143.062 1.30469C143.062 1.07031 143.133 0.872396 143.273 0.710938C143.419 0.549479 143.633 0.46875 143.914 0.46875C144.19 0.46875 144.401 0.549479 144.547 0.710938C144.698 0.872396 144.773 1.07031 144.773 1.30469C144.773 1.52865 144.698 1.72135 144.547 1.88281C144.401 2.03906 144.19 2.11719 143.914 2.11719C143.633 2.11719 143.419 2.03906 143.273 1.88281C143.133 1.72135 143.062 1.52865 143.062 1.30469ZM148.391 4.875V12H146.945V3.54688H148.352L148.391 4.875ZM151.031 3.5L151.023 4.84375C150.904 4.81771 150.789 4.80208 150.68 4.79688C150.576 4.78646 150.456 4.78125 150.32 4.78125C149.987 4.78125 149.693 4.83333 149.438 4.9375C149.182 5.04167 148.966 5.1875 148.789 5.375C148.612 5.5625 148.471 5.78646 148.367 6.04688C148.268 6.30208 148.203 6.58333 148.172 6.89062L147.766 7.125C147.766 6.61458 147.815 6.13542 147.914 5.6875C148.018 5.23958 148.177 4.84375 148.391 4.5C148.604 4.15104 148.875 3.88021 149.203 3.6875C149.536 3.48958 149.932 3.39062 150.391 3.39062C150.495 3.39062 150.615 3.40365 150.75 3.42969C150.885 3.45052 150.979 3.47396 151.031 3.5ZM155.719 12.1562C155.13 12.1562 154.596 12.0573 154.117 11.8594C153.643 11.6562 153.234 11.3724 152.891 11.0078C152.552 10.6432 152.292 10.2109 152.109 9.71094C151.927 9.21094 151.836 8.66406 151.836 8.07031V7.74219C151.836 7.05469 151.938 6.44271 152.141 5.90625C152.344 5.36458 152.62 4.90625 152.969 4.53125C153.318 4.15625 153.714 3.8724 154.156 3.67969C154.599 3.48698 155.057 3.39062 155.531 3.39062C156.135 3.39062 156.656 3.49479 157.094 3.70312C157.536 3.91146 157.898 4.20312 158.18 4.57812C158.461 4.94792 158.669 5.38542 158.805 5.89062C158.94 6.39062 159.008 6.9375 159.008 7.53125V8.17969H152.695V7H157.562V6.89062C157.542 6.51562 157.464 6.15104 157.328 5.79688C157.198 5.44271 156.99 5.15104 156.703 4.92188C156.417 4.69271 156.026 4.57812 155.531 4.57812C155.203 4.57812 154.901 4.64844 154.625 4.78906C154.349 4.92448 154.112 5.1276 153.914 5.39844C153.716 5.66927 153.562 6 153.453 6.39062C153.344 6.78125 153.289 7.23177 153.289 7.74219V8.07031C153.289 8.47135 153.344 8.84896 153.453 9.20312C153.568 9.55208 153.732 9.85938 153.945 10.125C154.164 10.3906 154.427 10.599 154.734 10.75C155.047 10.901 155.401 10.9766 155.797 10.9766C156.307 10.9766 156.74 10.8724 157.094 10.6641C157.448 10.4557 157.758 10.1771 158.023 9.82812L158.898 10.5234C158.716 10.7995 158.484 11.0625 158.203 11.3125C157.922 11.5625 157.576 11.7656 157.164 11.9219C156.758 12.0781 156.276 12.1562 155.719 12.1562ZM166.023 10.3594V0H167.477V12H166.148L166.023 10.3594ZM160.336 7.86719V7.70312C160.336 7.05729 160.414 6.47135 160.57 5.94531C160.732 5.41406 160.958 4.95833 161.25 4.57812C161.547 4.19792 161.898 3.90625 162.305 3.70312C162.716 3.49479 163.174 3.39062 163.68 3.39062C164.211 3.39062 164.674 3.48438 165.07 3.67188C165.471 3.85417 165.81 4.1224 166.086 4.47656C166.367 4.82552 166.589 5.2474 166.75 5.74219C166.911 6.23698 167.023 6.79688 167.086 7.42188V8.14062C167.029 8.76042 166.917 9.31771 166.75 9.8125C166.589 10.3073 166.367 10.7292 166.086 11.0781C165.81 11.4271 165.471 11.6953 165.07 11.8828C164.669 12.0651 164.201 12.1562 163.664 12.1562C163.169 12.1562 162.716 12.0495 162.305 11.8359C161.898 11.6224 161.547 11.3229 161.25 10.9375C160.958 10.5521 160.732 10.099 160.57 9.57812C160.414 9.05208 160.336 8.48177 160.336 7.86719ZM161.789 7.70312V7.86719C161.789 8.28906 161.831 8.6849 161.914 9.05469C162.003 9.42448 162.138 9.75 162.32 10.0312C162.503 10.3125 162.734 10.5339 163.016 10.6953C163.297 10.8516 163.633 10.9297 164.023 10.9297C164.503 10.9297 164.896 10.8281 165.203 10.625C165.516 10.4219 165.766 10.1536 165.953 9.82031C166.141 9.48698 166.286 9.125 166.391 8.73438V6.85156C166.328 6.5651 166.237 6.28906 166.117 6.02344C166.003 5.7526 165.852 5.51302 165.664 5.30469C165.482 5.09115 165.255 4.92188 164.984 4.79688C164.719 4.67188 164.404 4.60938 164.039 4.60938C163.643 4.60938 163.302 4.69271 163.016 4.85938C162.734 5.02083 162.503 5.24479 162.32 5.53125C162.138 5.8125 162.003 6.14062 161.914 6.51562C161.831 6.88542 161.789 7.28125 161.789 7.70312Z" fill="#FF6600"/>
</svg>
