<svg width="230" height="16" viewBox="0 0 230 16" fill="none" xmlns="http://www.w3.org/2000/svg">
<path d="M4.73438 6.67969H1.85156L1.83594 5.46875H4.45312C4.88542 5.46875 5.26302 5.39583 5.58594 5.25C5.90885 5.10417 6.15885 4.89583 6.33594 4.625C6.51823 4.34896 6.60938 4.02083 6.60938 3.64062C6.60938 3.22396 6.52865 2.88542 6.36719 2.625C6.21094 2.35938 5.96875 2.16667 5.64062 2.04688C5.31771 1.92188 4.90625 1.85938 4.40625 1.85938H2.1875V12H0.679688V0.625H4.40625C4.98958 0.625 5.51042 0.684896 5.96875 0.804688C6.42708 0.919271 6.8151 1.10156 7.13281 1.35156C7.45573 1.59635 7.70052 1.90885 7.86719 2.28906C8.03385 2.66927 8.11719 3.125 8.11719 3.65625C8.11719 4.125 7.9974 4.54948 7.75781 4.92969C7.51823 5.30469 7.1849 5.61198 6.75781 5.85156C6.33594 6.09115 5.84115 6.24479 5.27344 6.3125L4.73438 6.67969ZM4.66406 12H1.25781L2.10938 10.7734H4.66406C5.14323 10.7734 5.54948 10.6901 5.88281 10.5234C6.22135 10.3568 6.47917 10.1224 6.65625 9.82031C6.83333 9.51302 6.92188 9.15104 6.92188 8.73438C6.92188 8.3125 6.84635 7.94792 6.69531 7.64062C6.54427 7.33333 6.30729 7.09635 5.98438 6.92969C5.66146 6.76302 5.24479 6.67969 4.73438 6.67969H2.58594L2.60156 5.46875H5.53906L5.85938 5.90625C6.40625 5.95312 6.86979 6.10938 7.25 6.375C7.63021 6.63542 7.91927 6.96875 8.11719 7.375C8.32031 7.78125 8.42188 8.22917 8.42188 8.71875C8.42188 9.42708 8.26562 10.026 7.95312 10.5156C7.64583 11 7.21094 11.3698 6.64844 11.625C6.08594 11.875 5.42448 12 4.66406 12ZM15.6016 10.0469V3.54688H17.0547V12H15.6719L15.6016 10.0469ZM15.875 8.26562L16.4766 8.25C16.4766 8.8125 16.4167 9.33333 16.2969 9.8125C16.1823 10.2865 15.9948 10.6979 15.7344 11.0469C15.474 11.3958 15.1328 11.6693 14.7109 11.8672C14.2891 12.0599 13.776 12.1562 13.1719 12.1562C12.7604 12.1562 12.3828 12.0964 12.0391 11.9766C11.7005 11.8568 11.4089 11.6719 11.1641 11.4219C10.9193 11.1719 10.7292 10.8464 10.5938 10.4453C10.4635 10.0443 10.3984 9.5625 10.3984 9V3.54688H11.8438V9.01562C11.8438 9.39583 11.8854 9.71094 11.9688 9.96094C12.0573 10.2057 12.1745 10.401 12.3203 10.5469C12.4714 10.6875 12.638 10.7865 12.8203 10.8438C13.0078 10.901 13.2005 10.9297 13.3984 10.9297C14.013 10.9297 14.5 10.8125 14.8594 10.5781C15.2188 10.3385 15.4766 10.0182 15.6328 9.61719C15.7943 9.21094 15.875 8.76042 15.875 8.26562ZM24.1797 9.75781C24.1797 9.54948 24.1328 9.35677 24.0391 9.17969C23.9505 8.9974 23.7656 8.83333 23.4844 8.6875C23.2083 8.53646 22.7917 8.40625 22.2344 8.29688C21.7656 8.19792 21.3411 8.08073 20.9609 7.94531C20.5859 7.8099 20.2656 7.64583 20 7.45312C19.7396 7.26042 19.5391 7.03385 19.3984 6.77344C19.2578 6.51302 19.1875 6.20833 19.1875 5.85938C19.1875 5.52604 19.2604 5.21094 19.4062 4.91406C19.5573 4.61719 19.7682 4.35417 20.0391 4.125C20.3151 3.89583 20.6458 3.71615 21.0312 3.58594C21.4167 3.45573 21.8464 3.39062 22.3203 3.39062C22.9974 3.39062 23.5755 3.51042 24.0547 3.75C24.5339 3.98958 24.901 4.3099 25.1562 4.71094C25.4115 5.10677 25.5391 5.54688 25.5391 6.03125H24.0938C24.0938 5.79688 24.0234 5.57031 23.8828 5.35156C23.7474 5.1276 23.5469 4.94271 23.2812 4.79688C23.0208 4.65104 22.7005 4.57812 22.3203 4.57812C21.9193 4.57812 21.5938 4.64062 21.3438 4.76562C21.099 4.88542 20.9193 5.03906 20.8047 5.22656C20.6953 5.41406 20.6406 5.61198 20.6406 5.82031C20.6406 5.97656 20.6667 6.11719 20.7188 6.24219C20.776 6.36198 20.875 6.47396 21.0156 6.57812C21.1562 6.67708 21.3542 6.77083 21.6094 6.85938C21.8646 6.94792 22.1901 7.03646 22.5859 7.125C23.2786 7.28125 23.849 7.46875 24.2969 7.6875C24.7448 7.90625 25.0781 8.17448 25.2969 8.49219C25.5156 8.8099 25.625 9.19531 25.625 9.64844C25.625 10.0182 25.5469 10.3568 25.3906 10.6641C25.2396 10.9714 25.0182 11.237 24.7266 11.4609C24.4401 11.6797 24.0964 11.8516 23.6953 11.9766C23.2995 12.0964 22.8542 12.1562 22.3594 12.1562C21.6146 12.1562 20.9844 12.0234 20.4688 11.7578C19.9531 11.4922 19.5625 11.1484 19.2969 10.7266C19.0312 10.3047 18.8984 9.85938 18.8984 9.39062H20.3516C20.3724 9.78646 20.487 10.1016 20.6953 10.3359C20.9036 10.5651 21.1589 10.7292 21.4609 10.8281C21.763 10.9219 22.0625 10.9688 22.3594 10.9688C22.7552 10.9688 23.0859 10.9167 23.3516 10.8125C23.6224 10.7083 23.8281 10.5651 23.9688 10.3828C24.1094 10.2005 24.1797 9.99219 24.1797 9.75781ZM29.0938 3.54688V12H27.6406V3.54688H29.0938ZM27.5312 1.30469C27.5312 1.07031 27.6016 0.872396 27.7422 0.710938C27.888 0.549479 28.1016 0.46875 28.3828 0.46875C28.6589 0.46875 28.8698 0.549479 29.0156 0.710938C29.1667 0.872396 29.2422 1.07031 29.2422 1.30469C29.2422 1.52865 29.1667 1.72135 29.0156 1.88281C28.8698 2.03906 28.6589 2.11719 28.3828 2.11719C28.1016 2.11719 27.888 2.03906 27.7422 1.88281C27.6016 1.72135 27.5312 1.52865 27.5312 1.30469ZM32.8594 5.35156V12H31.4141V3.54688H32.7812L32.8594 5.35156ZM32.5156 7.45312L31.9141 7.42969C31.9193 6.85156 32.0052 6.31771 32.1719 5.82812C32.3385 5.33333 32.5729 4.90365 32.875 4.53906C33.1771 4.17448 33.5365 3.89323 33.9531 3.69531C34.375 3.49219 34.8411 3.39062 35.3516 3.39062C35.7682 3.39062 36.1432 3.44792 36.4766 3.5625C36.8099 3.67188 37.0938 3.84896 37.3281 4.09375C37.5677 4.33854 37.75 4.65625 37.875 5.04688C38 5.43229 38.0625 5.90365 38.0625 6.46094V12H36.6094V6.44531C36.6094 6.0026 36.5443 5.64844 36.4141 5.38281C36.2839 5.11198 36.0938 4.91667 35.8438 4.79688C35.5938 4.67188 35.2865 4.60938 34.9219 4.60938C34.5625 4.60938 34.2344 4.6849 33.9375 4.83594C33.6458 4.98698 33.3932 5.19531 33.1797 5.46094C32.9714 5.72656 32.8073 6.03125 32.6875 6.375C32.5729 6.71354 32.5156 7.07292 32.5156 7.45312ZM43.7656 12.1562C43.1771 12.1562 42.6432 12.0573 42.1641 11.8594C41.6901 11.6562 41.2812 11.3724 40.9375 11.0078C40.599 10.6432 40.3385 10.2109 40.1562 9.71094C39.974 9.21094 39.8828 8.66406 39.8828 8.07031V7.74219C39.8828 7.05469 39.9844 6.44271 40.1875 5.90625C40.3906 5.36458 40.6667 4.90625 41.0156 4.53125C41.3646 4.15625 41.7604 3.8724 42.2031 3.67969C42.6458 3.48698 43.1042 3.39062 43.5781 3.39062C44.1823 3.39062 44.7031 3.49479 45.1406 3.70312C45.5833 3.91146 45.9453 4.20312 46.2266 4.57812C46.5078 4.94792 46.7161 5.38542 46.8516 5.89062C46.987 6.39062 47.0547 6.9375 47.0547 7.53125V8.17969H40.7422V7H45.6094V6.89062C45.5885 6.51562 45.5104 6.15104 45.375 5.79688C45.2448 5.44271 45.0365 5.15104 44.75 4.92188C44.4635 4.69271 44.0729 4.57812 43.5781 4.57812C43.25 4.57812 42.9479 4.64844 42.6719 4.78906C42.3958 4.92448 42.1589 5.1276 41.9609 5.39844C41.763 5.66927 41.6094 6 41.5 6.39062C41.3906 6.78125 41.3359 7.23177 41.3359 7.74219V8.07031C41.3359 8.47135 41.3906 8.84896 41.5 9.20312C41.6146 9.55208 41.7786 9.85938 41.9922 10.125C42.2109 10.3906 42.474 10.599 42.7812 10.75C43.0938 10.901 43.4479 10.9766 43.8438 10.9766C44.3542 10.9766 44.7865 10.8724 45.1406 10.6641C45.4948 10.4557 45.8047 10.1771 46.0703 9.82812L46.9453 10.5234C46.763 10.7995 46.5312 11.0625 46.25 11.3125C45.9688 11.5625 45.6224 11.7656 45.2109 11.9219C44.8047 12.0781 44.3229 12.1562 43.7656 12.1562ZM53.6641 9.75781C53.6641 9.54948 53.6172 9.35677 53.5234 9.17969C53.4349 8.9974 53.25 8.83333 52.9688 8.6875C52.6927 8.53646 52.276 8.40625 51.7188 8.29688C51.25 8.19792 50.8255 8.08073 50.4453 7.94531C50.0703 7.8099 49.75 7.64583 49.4844 7.45312C49.224 7.26042 49.0234 7.03385 48.8828 6.77344C48.7422 6.51302 48.6719 6.20833 48.6719 5.85938C48.6719 5.52604 48.7448 5.21094 48.8906 4.91406C49.0417 4.61719 49.2526 4.35417 49.5234 4.125C49.7995 3.89583 50.1302 3.71615 50.5156 3.58594C50.901 3.45573 51.3307 3.39062 51.8047 3.39062C52.4818 3.39062 53.0599 3.51042 53.5391 3.75C54.0182 3.98958 54.3854 4.3099 54.6406 4.71094C54.8958 5.10677 55.0234 5.54688 55.0234 6.03125H53.5781C53.5781 5.79688 53.5078 5.57031 53.3672 5.35156C53.2318 5.1276 53.0312 4.94271 52.7656 4.79688C52.5052 4.65104 52.1849 4.57812 51.8047 4.57812C51.4036 4.57812 51.0781 4.64062 50.8281 4.76562C50.5833 4.88542 50.4036 5.03906 50.2891 5.22656C50.1797 5.41406 50.125 5.61198 50.125 5.82031C50.125 5.97656 50.151 6.11719 50.2031 6.24219C50.2604 6.36198 50.3594 6.47396 50.5 6.57812C50.6406 6.67708 50.8385 6.77083 51.0938 6.85938C51.349 6.94792 51.6745 7.03646 52.0703 7.125C52.763 7.28125 53.3333 7.46875 53.7812 7.6875C54.2292 7.90625 54.5625 8.17448 54.7812 8.49219C55 8.8099 55.1094 9.19531 55.1094 9.64844C55.1094 10.0182 55.0312 10.3568 54.875 10.6641C54.724 10.9714 54.5026 11.237 54.2109 11.4609C53.9245 11.6797 53.5807 11.8516 53.1797 11.9766C52.7839 12.0964 52.3385 12.1562 51.8438 12.1562C51.099 12.1562 50.4688 12.0234 49.9531 11.7578C49.4375 11.4922 49.0469 11.1484 48.7812 10.7266C48.5156 10.3047 48.3828 9.85938 48.3828 9.39062H49.8359C49.8568 9.78646 49.9714 10.1016 50.1797 10.3359C50.388 10.5651 50.6432 10.7292 50.9453 10.8281C51.2474 10.9219 51.5469 10.9688 51.8438 10.9688C52.2396 10.9688 52.5703 10.9167 52.8359 10.8125C53.1068 10.7083 53.3125 10.5651 53.4531 10.3828C53.5938 10.2005 53.6641 9.99219 53.6641 9.75781ZM61.9297 9.75781C61.9297 9.54948 61.8828 9.35677 61.7891 9.17969C61.7005 8.9974 61.5156 8.83333 61.2344 8.6875C60.9583 8.53646 60.5417 8.40625 59.9844 8.29688C59.5156 8.19792 59.0911 8.08073 58.7109 7.94531C58.3359 7.8099 58.0156 7.64583 57.75 7.45312C57.4896 7.26042 57.2891 7.03385 57.1484 6.77344C57.0078 6.51302 56.9375 6.20833 56.9375 5.85938C56.9375 5.52604 57.0104 5.21094 57.1562 4.91406C57.3073 4.61719 57.5182 4.35417 57.7891 4.125C58.0651 3.89583 58.3958 3.71615 58.7812 3.58594C59.1667 3.45573 59.5964 3.39062 60.0703 3.39062C60.7474 3.39062 61.3255 3.51042 61.8047 3.75C62.2839 3.98958 62.651 4.3099 62.9062 4.71094C63.1615 5.10677 63.2891 5.54688 63.2891 6.03125H61.8438C61.8438 5.79688 61.7734 5.57031 61.6328 5.35156C61.4974 5.1276 61.2969 4.94271 61.0312 4.79688C60.7708 4.65104 60.4505 4.57812 60.0703 4.57812C59.6693 4.57812 59.3438 4.64062 59.0938 4.76562C58.849 4.88542 58.6693 5.03906 58.5547 5.22656C58.4453 5.41406 58.3906 5.61198 58.3906 5.82031C58.3906 5.97656 58.4167 6.11719 58.4688 6.24219C58.526 6.36198 58.625 6.47396 58.7656 6.57812C58.9062 6.67708 59.1042 6.77083 59.3594 6.85938C59.6146 6.94792 59.9401 7.03646 60.3359 7.125C61.0286 7.28125 61.599 7.46875 62.0469 7.6875C62.4948 7.90625 62.8281 8.17448 63.0469 8.49219C63.2656 8.8099 63.375 9.19531 63.375 9.64844C63.375 10.0182 63.2969 10.3568 63.1406 10.6641C62.9896 10.9714 62.7682 11.237 62.4766 11.4609C62.1901 11.6797 61.8464 11.8516 61.4453 11.9766C61.0495 12.0964 60.6042 12.1562 60.1094 12.1562C59.3646 12.1562 58.7344 12.0234 58.2188 11.7578C57.7031 11.4922 57.3125 11.1484 57.0469 10.7266C56.7812 10.3047 56.6484 9.85938 56.6484 9.39062H58.1016C58.1224 9.78646 58.237 10.1016 58.4453 10.3359C58.6536 10.5651 58.9089 10.7292 59.2109 10.8281C59.513 10.9219 59.8125 10.9688 60.1094 10.9688C60.5052 10.9688 60.8359 10.9167 61.1016 10.8125C61.3724 10.7083 61.5781 10.5651 61.7188 10.3828C61.8594 10.2005 61.9297 9.99219 61.9297 9.75781ZM78.2109 0.625V12H76.6953L70.9688 3.22656V12H69.4609V0.625H70.9688L76.7188 9.42188V0.625H78.2109ZM84.1719 12.1562C83.5833 12.1562 83.0495 12.0573 82.5703 11.8594C82.0964 11.6562 81.6875 11.3724 81.3438 11.0078C81.0052 10.6432 80.7448 10.2109 80.5625 9.71094C80.3802 9.21094 80.2891 8.66406 80.2891 8.07031V7.74219C80.2891 7.05469 80.3906 6.44271 80.5938 5.90625C80.7969 5.36458 81.0729 4.90625 81.4219 4.53125C81.7708 4.15625 82.1667 3.8724 82.6094 3.67969C83.0521 3.48698 83.5104 3.39062 83.9844 3.39062C84.5885 3.39062 85.1094 3.49479 85.5469 3.70312C85.9896 3.91146 86.3516 4.20312 86.6328 4.57812C86.9141 4.94792 87.1224 5.38542 87.2578 5.89062C87.3932 6.39062 87.4609 6.9375 87.4609 7.53125V8.17969H81.1484V7H86.0156V6.89062C85.9948 6.51562 85.9167 6.15104 85.7812 5.79688C85.651 5.44271 85.4427 5.15104 85.1562 4.92188C84.8698 4.69271 84.4792 4.57812 83.9844 4.57812C83.6562 4.57812 83.3542 4.64844 83.0781 4.78906C82.8021 4.92448 82.5651 5.1276 82.3672 5.39844C82.1693 5.66927 82.0156 6 81.9062 6.39062C81.7969 6.78125 81.7422 7.23177 81.7422 7.74219V8.07031C81.7422 8.47135 81.7969 8.84896 81.9062 9.20312C82.0208 9.55208 82.1849 9.85938 82.3984 10.125C82.6172 10.3906 82.8802 10.599 83.1875 10.75C83.5 10.901 83.8542 10.9766 84.25 10.9766C84.7604 10.9766 85.1927 10.8724 85.5469 10.6641C85.901 10.4557 86.2109 10.1771 86.4766 9.82812L87.3516 10.5234C87.1693 10.7995 86.9375 11.0625 86.6562 11.3125C86.375 11.5625 86.0286 11.7656 85.6172 11.9219C85.2109 12.0781 84.7292 12.1562 84.1719 12.1562ZM92.6875 3.54688V4.65625H88.1172V3.54688H92.6875ZM89.6641 1.49219H91.1094V9.90625C91.1094 10.1927 91.1536 10.4089 91.2422 10.5547C91.3307 10.7005 91.4453 10.7969 91.5859 10.8438C91.7266 10.8906 91.8776 10.9141 92.0391 10.9141C92.1589 10.9141 92.2839 10.9036 92.4141 10.8828C92.5495 10.8568 92.651 10.8359 92.7188 10.8203L92.7266 12C92.612 12.0365 92.4609 12.0703 92.2734 12.1016C92.0911 12.138 91.8698 12.1562 91.6094 12.1562C91.2552 12.1562 90.9297 12.0859 90.6328 11.9453C90.3359 11.8047 90.099 11.5703 89.9219 11.2422C89.75 10.9089 89.6641 10.4609 89.6641 9.89844V1.49219ZM96.5234 10.5L98.6953 3.54688H99.6484L99.4609 4.92969L97.25 12H96.3203L96.5234 10.5ZM95.0625 3.54688L96.9141 10.5781L97.0469 12H96.0703L93.6172 3.54688H95.0625ZM101.727 10.5234L103.492 3.54688H104.93L102.477 12H101.508L101.727 10.5234ZM99.8594 3.54688L101.984 10.3828L102.227 12H101.305L99.0312 4.91406L98.8438 3.54688H99.8594ZM106.031 7.86719V7.6875C106.031 7.07812 106.12 6.51302 106.297 5.99219C106.474 5.46615 106.729 5.01042 107.062 4.625C107.396 4.23438 107.799 3.93229 108.273 3.71875C108.747 3.5 109.279 3.39062 109.867 3.39062C110.461 3.39062 110.995 3.5 111.469 3.71875C111.948 3.93229 112.354 4.23438 112.688 4.625C113.026 5.01042 113.284 5.46615 113.461 5.99219C113.638 6.51302 113.727 7.07812 113.727 7.6875V7.86719C113.727 8.47656 113.638 9.04167 113.461 9.5625C113.284 10.0833 113.026 10.5391 112.688 10.9297C112.354 11.3151 111.951 11.6172 111.477 11.8359C111.008 12.0495 110.477 12.1562 109.883 12.1562C109.289 12.1562 108.755 12.0495 108.281 11.8359C107.807 11.6172 107.401 11.3151 107.062 10.9297C106.729 10.5391 106.474 10.0833 106.297 9.5625C106.12 9.04167 106.031 8.47656 106.031 7.86719ZM107.477 7.6875V7.86719C107.477 8.28906 107.526 8.6875 107.625 9.0625C107.724 9.43229 107.872 9.76042 108.07 10.0469C108.273 10.3333 108.526 10.5599 108.828 10.7266C109.13 10.888 109.482 10.9688 109.883 10.9688C110.279 10.9688 110.625 10.888 110.922 10.7266C111.224 10.5599 111.474 10.3333 111.672 10.0469C111.87 9.76042 112.018 9.43229 112.117 9.0625C112.221 8.6875 112.273 8.28906 112.273 7.86719V7.6875C112.273 7.27083 112.221 6.8776 112.117 6.50781C112.018 6.13281 111.867 5.80208 111.664 5.51562C111.466 5.22396 111.216 4.99479 110.914 4.82812C110.617 4.66146 110.268 4.57812 109.867 4.57812C109.471 4.57812 109.122 4.66146 108.82 4.82812C108.523 4.99479 108.273 5.22396 108.07 5.51562C107.872 5.80208 107.724 6.13281 107.625 6.50781C107.526 6.8776 107.477 7.27083 107.477 7.6875ZM116.984 4.875V12H115.539V3.54688H116.945L116.984 4.875ZM119.625 3.5L119.617 4.84375C119.497 4.81771 119.383 4.80208 119.273 4.79688C119.169 4.78646 119.049 4.78125 118.914 4.78125C118.581 4.78125 118.286 4.83333 118.031 4.9375C117.776 5.04167 117.56 5.1875 117.383 5.375C117.206 5.5625 117.065 5.78646 116.961 6.04688C116.862 6.30208 116.797 6.58333 116.766 6.89062L116.359 7.125C116.359 6.61458 116.409 6.13542 116.508 5.6875C116.612 5.23958 116.771 4.84375 116.984 4.5C117.198 4.15104 117.469 3.88021 117.797 3.6875C118.13 3.48958 118.526 3.39062 118.984 3.39062C119.089 3.39062 119.208 3.40365 119.344 3.42969C119.479 3.45052 119.573 3.47396 119.625 3.5ZM122.414 0V12H120.961V0H122.414ZM127.578 3.54688L123.891 7.49219L121.828 9.63281L121.711 8.09375L123.188 6.32812L125.812 3.54688H127.578ZM126.258 12L123.242 7.96875L123.992 6.67969L127.961 12H126.258ZM142.016 5.95312V6.67188C142.016 7.52604 141.909 8.29167 141.695 8.96875C141.482 9.64583 141.174 10.2214 140.773 10.6953C140.372 11.1693 139.891 11.5312 139.328 11.7812C138.771 12.0312 138.146 12.1562 137.453 12.1562C136.781 12.1562 136.164 12.0312 135.602 11.7812C135.044 11.5312 134.56 11.1693 134.148 10.6953C133.742 10.2214 133.427 9.64583 133.203 8.96875C132.979 8.29167 132.867 7.52604 132.867 6.67188V5.95312C132.867 5.09896 132.977 4.33594 133.195 3.66406C133.419 2.98698 133.734 2.41146 134.141 1.9375C134.547 1.45833 135.029 1.09375 135.586 0.84375C136.148 0.59375 136.766 0.46875 137.438 0.46875C138.13 0.46875 138.755 0.59375 139.312 0.84375C139.875 1.09375 140.357 1.45833 140.758 1.9375C141.164 2.41146 141.474 2.98698 141.688 3.66406C141.906 4.33594 142.016 5.09896 142.016 5.95312ZM140.523 6.67188V5.9375C140.523 5.26042 140.453 4.66146 140.312 4.14062C140.177 3.61979 139.977 3.18229 139.711 2.82812C139.445 2.47396 139.12 2.20573 138.734 2.02344C138.354 1.84115 137.922 1.75 137.438 1.75C136.969 1.75 136.544 1.84115 136.164 2.02344C135.789 2.20573 135.466 2.47396 135.195 2.82812C134.93 3.18229 134.724 3.61979 134.578 4.14062C134.432 4.66146 134.359 5.26042 134.359 5.9375V6.67188C134.359 7.35417 134.432 7.95833 134.578 8.48438C134.724 9.00521 134.932 9.44531 135.203 9.80469C135.479 10.1589 135.805 10.4271 136.18 10.6094C136.56 10.7917 136.984 10.8828 137.453 10.8828C137.943 10.8828 138.378 10.7917 138.758 10.6094C139.138 10.4271 139.458 10.1589 139.719 9.80469C139.984 9.44531 140.185 9.00521 140.32 8.48438C140.456 7.95833 140.523 7.35417 140.523 6.67188ZM145.5 4.875V12H144.055V3.54688H145.461L145.5 4.875ZM148.141 3.5L148.133 4.84375C148.013 4.81771 147.898 4.80208 147.789 4.79688C147.685 4.78646 147.565 4.78125 147.43 4.78125C147.096 4.78125 146.802 4.83333 146.547 4.9375C146.292 5.04167 146.076 5.1875 145.898 5.375C145.721 5.5625 145.581 5.78646 145.477 6.04688C145.378 6.30208 145.312 6.58333 145.281 6.89062L144.875 7.125C144.875 6.61458 144.924 6.13542 145.023 5.6875C145.128 5.23958 145.286 4.84375 145.5 4.5C145.714 4.15104 145.984 3.88021 146.312 3.6875C146.646 3.48958 147.042 3.39062 147.5 3.39062C147.604 3.39062 147.724 3.40365 147.859 3.42969C147.995 3.45052 148.089 3.47396 148.141 3.5ZM154.797 3.54688H156.109V11.8203C156.109 12.5651 155.958 13.2005 155.656 13.7266C155.354 14.2526 154.932 14.651 154.391 14.9219C153.854 15.1979 153.234 15.3359 152.531 15.3359C152.24 15.3359 151.896 15.2891 151.5 15.1953C151.109 15.1068 150.724 14.9531 150.344 14.7344C149.969 14.5208 149.654 14.2318 149.398 13.8672L150.156 13.0078C150.51 13.4349 150.88 13.7318 151.266 13.8984C151.656 14.0651 152.042 14.1484 152.422 14.1484C152.88 14.1484 153.276 14.0625 153.609 13.8906C153.943 13.7188 154.201 13.4635 154.383 13.125C154.57 12.7917 154.664 12.3802 154.664 11.8906V5.40625L154.797 3.54688ZM148.977 7.86719V7.70312C148.977 7.05729 149.052 6.47135 149.203 5.94531C149.359 5.41406 149.581 4.95833 149.867 4.57812C150.159 4.19792 150.51 3.90625 150.922 3.70312C151.333 3.49479 151.797 3.39062 152.312 3.39062C152.844 3.39062 153.307 3.48438 153.703 3.67188C154.104 3.85417 154.443 4.1224 154.719 4.47656C155 4.82552 155.221 5.2474 155.383 5.74219C155.544 6.23698 155.656 6.79688 155.719 7.42188V8.14062C155.661 8.76042 155.549 9.31771 155.383 9.8125C155.221 10.3073 155 10.7292 154.719 11.0781C154.443 11.4271 154.104 11.6953 153.703 11.8828C153.302 12.0651 152.833 12.1562 152.297 12.1562C151.792 12.1562 151.333 12.0495 150.922 11.8359C150.516 11.6224 150.167 11.3229 149.875 10.9375C149.583 10.5521 149.359 10.099 149.203 9.57812C149.052 9.05208 148.977 8.48177 148.977 7.86719ZM150.422 7.70312V7.86719C150.422 8.28906 150.464 8.6849 150.547 9.05469C150.635 9.42448 150.768 9.75 150.945 10.0312C151.128 10.3125 151.359 10.5339 151.641 10.6953C151.922 10.8516 152.258 10.9297 152.648 10.9297C153.128 10.9297 153.523 10.8281 153.836 10.625C154.148 10.4219 154.396 10.1536 154.578 9.82031C154.766 9.48698 154.911 9.125 155.016 8.73438V6.85156C154.958 6.5651 154.87 6.28906 154.75 6.02344C154.635 5.7526 154.484 5.51302 154.297 5.30469C154.115 5.09115 153.888 4.92188 153.617 4.79688C153.346 4.67188 153.029 4.60938 152.664 4.60938C152.268 4.60938 151.927 4.69271 151.641 4.85938C151.359 5.02083 151.128 5.24479 150.945 5.53125C150.768 5.8125 150.635 6.14062 150.547 6.51562C150.464 6.88542 150.422 7.28125 150.422 7.70312ZM163.289 10.5547V6.20312C163.289 5.86979 163.221 5.58073 163.086 5.33594C162.956 5.08594 162.758 4.89323 162.492 4.75781C162.227 4.6224 161.898 4.55469 161.508 4.55469C161.143 4.55469 160.823 4.61719 160.547 4.74219C160.276 4.86719 160.062 5.03125 159.906 5.23438C159.755 5.4375 159.68 5.65625 159.68 5.89062H158.234C158.234 5.58854 158.312 5.28906 158.469 4.99219C158.625 4.69531 158.849 4.42708 159.141 4.1875C159.438 3.94271 159.792 3.75 160.203 3.60938C160.62 3.46354 161.083 3.39062 161.594 3.39062C162.208 3.39062 162.75 3.49479 163.219 3.70312C163.693 3.91146 164.062 4.22656 164.328 4.64844C164.599 5.0651 164.734 5.58854 164.734 6.21875V10.1562C164.734 10.4375 164.758 10.737 164.805 11.0547C164.857 11.3724 164.932 11.6458 165.031 11.875V12H163.523C163.451 11.8333 163.393 11.612 163.352 11.3359C163.31 11.0547 163.289 10.7943 163.289 10.5547ZM163.539 6.875L163.555 7.89062H162.094C161.682 7.89062 161.315 7.92448 160.992 7.99219C160.669 8.05469 160.398 8.15104 160.18 8.28125C159.961 8.41146 159.794 8.57552 159.68 8.77344C159.565 8.96615 159.508 9.19271 159.508 9.45312C159.508 9.71875 159.568 9.96094 159.688 10.1797C159.807 10.3984 159.987 10.5729 160.227 10.7031C160.471 10.8281 160.771 10.8906 161.125 10.8906C161.568 10.8906 161.958 10.7969 162.297 10.6094C162.635 10.4219 162.904 10.1927 163.102 9.92188C163.305 9.65104 163.414 9.38802 163.43 9.13281L164.047 9.82812C164.01 10.0469 163.911 10.2891 163.75 10.5547C163.589 10.8203 163.372 11.0755 163.102 11.3203C162.836 11.5599 162.518 11.7604 162.148 11.9219C161.784 12.0781 161.372 12.1562 160.914 12.1562C160.341 12.1562 159.839 12.0443 159.406 11.8203C158.979 11.5964 158.646 11.2969 158.406 10.9219C158.172 10.5417 158.055 10.1172 158.055 9.64844C158.055 9.19531 158.143 8.79688 158.32 8.45312C158.497 8.10417 158.753 7.8151 159.086 7.58594C159.419 7.35156 159.82 7.17448 160.289 7.05469C160.758 6.9349 161.281 6.875 161.859 6.875H163.539ZM168.453 5.35156V12H167.008V3.54688H168.375L168.453 5.35156ZM168.109 7.45312L167.508 7.42969C167.513 6.85156 167.599 6.31771 167.766 5.82812C167.932 5.33333 168.167 4.90365 168.469 4.53906C168.771 4.17448 169.13 3.89323 169.547 3.69531C169.969 3.49219 170.435 3.39062 170.945 3.39062C171.362 3.39062 171.737 3.44792 172.07 3.5625C172.404 3.67188 172.688 3.84896 172.922 4.09375C173.161 4.33854 173.344 4.65625 173.469 5.04688C173.594 5.43229 173.656 5.90365 173.656 6.46094V12H172.203V6.44531C172.203 6.0026 172.138 5.64844 172.008 5.38281C171.878 5.11198 171.688 4.91667 171.438 4.79688C171.188 4.67188 170.88 4.60938 170.516 4.60938C170.156 4.60938 169.828 4.6849 169.531 4.83594C169.24 4.98698 168.987 5.19531 168.773 5.46094C168.565 5.72656 168.401 6.03125 168.281 6.375C168.167 6.71354 168.109 7.07292 168.109 7.45312ZM177.422 3.54688V12H175.969V3.54688H177.422ZM175.859 1.30469C175.859 1.07031 175.93 0.872396 176.07 0.710938C176.216 0.549479 176.43 0.46875 176.711 0.46875C176.987 0.46875 177.198 0.549479 177.344 0.710938C177.495 0.872396 177.57 1.07031 177.57 1.30469C177.57 1.52865 177.495 1.72135 177.344 1.88281C177.198 2.03906 176.987 2.11719 176.711 2.11719C176.43 2.11719 176.216 2.03906 176.07 1.88281C175.93 1.72135 175.859 1.52865 175.859 1.30469ZM186.039 10.8125V12H179.891V10.8125H186.039ZM185.812 4.57031L180.219 12H179.336V10.9375L184.891 3.54688H185.812V4.57031ZM185.172 3.54688V4.74219H179.398V3.54688H185.172ZM192.664 10.5547V6.20312C192.664 5.86979 192.596 5.58073 192.461 5.33594C192.331 5.08594 192.133 4.89323 191.867 4.75781C191.602 4.6224 191.273 4.55469 190.883 4.55469C190.518 4.55469 190.198 4.61719 189.922 4.74219C189.651 4.86719 189.438 5.03125 189.281 5.23438C189.13 5.4375 189.055 5.65625 189.055 5.89062H187.609C187.609 5.58854 187.688 5.28906 187.844 4.99219C188 4.69531 188.224 4.42708 188.516 4.1875C188.812 3.94271 189.167 3.75 189.578 3.60938C189.995 3.46354 190.458 3.39062 190.969 3.39062C191.583 3.39062 192.125 3.49479 192.594 3.70312C193.068 3.91146 193.438 4.22656 193.703 4.64844C193.974 5.0651 194.109 5.58854 194.109 6.21875V10.1562C194.109 10.4375 194.133 10.737 194.18 11.0547C194.232 11.3724 194.307 11.6458 194.406 11.875V12H192.898C192.826 11.8333 192.768 11.612 192.727 11.3359C192.685 11.0547 192.664 10.7943 192.664 10.5547ZM192.914 6.875L192.93 7.89062H191.469C191.057 7.89062 190.69 7.92448 190.367 7.99219C190.044 8.05469 189.773 8.15104 189.555 8.28125C189.336 8.41146 189.169 8.57552 189.055 8.77344C188.94 8.96615 188.883 9.19271 188.883 9.45312C188.883 9.71875 188.943 9.96094 189.062 10.1797C189.182 10.3984 189.362 10.5729 189.602 10.7031C189.846 10.8281 190.146 10.8906 190.5 10.8906C190.943 10.8906 191.333 10.7969 191.672 10.6094C192.01 10.4219 192.279 10.1927 192.477 9.92188C192.68 9.65104 192.789 9.38802 192.805 9.13281L193.422 9.82812C193.385 10.0469 193.286 10.2891 193.125 10.5547C192.964 10.8203 192.747 11.0755 192.477 11.3203C192.211 11.5599 191.893 11.7604 191.523 11.9219C191.159 12.0781 190.747 12.1562 190.289 12.1562C189.716 12.1562 189.214 12.0443 188.781 11.8203C188.354 11.5964 188.021 11.2969 187.781 10.9219C187.547 10.5417 187.43 10.1172 187.43 9.64844C187.43 9.19531 187.518 8.79688 187.695 8.45312C187.872 8.10417 188.128 7.8151 188.461 7.58594C188.794 7.35156 189.195 7.17448 189.664 7.05469C190.133 6.9349 190.656 6.875 191.234 6.875H192.914ZM199.922 3.54688V4.65625H195.352V3.54688H199.922ZM196.898 1.49219H198.344V9.90625C198.344 10.1927 198.388 10.4089 198.477 10.5547C198.565 10.7005 198.68 10.7969 198.82 10.8438C198.961 10.8906 199.112 10.9141 199.273 10.9141C199.393 10.9141 199.518 10.9036 199.648 10.8828C199.784 10.8568 199.885 10.8359 199.953 10.8203L199.961 12C199.846 12.0365 199.695 12.0703 199.508 12.1016C199.326 12.138 199.104 12.1562 198.844 12.1562C198.49 12.1562 198.164 12.0859 197.867 11.9453C197.57 11.8047 197.333 11.5703 197.156 11.2422C196.984 10.9089 196.898 10.4609 196.898 9.89844V1.49219ZM203.188 3.54688V12H201.734V3.54688H203.188ZM201.625 1.30469C201.625 1.07031 201.695 0.872396 201.836 0.710938C201.982 0.549479 202.195 0.46875 202.477 0.46875C202.753 0.46875 202.964 0.549479 203.109 0.710938C203.26 0.872396 203.336 1.07031 203.336 1.30469C203.336 1.52865 203.26 1.72135 203.109 1.88281C202.964 2.03906 202.753 2.11719 202.477 2.11719C202.195 2.11719 201.982 2.03906 201.836 1.88281C201.695 1.72135 201.625 1.52865 201.625 1.30469ZM205.125 7.86719V7.6875C205.125 7.07812 205.214 6.51302 205.391 5.99219C205.568 5.46615 205.823 5.01042 206.156 4.625C206.49 4.23438 206.893 3.93229 207.367 3.71875C207.841 3.5 208.372 3.39062 208.961 3.39062C209.555 3.39062 210.089 3.5 210.562 3.71875C211.042 3.93229 211.448 4.23438 211.781 4.625C212.12 5.01042 212.378 5.46615 212.555 5.99219C212.732 6.51302 212.82 7.07812 212.82 7.6875V7.86719C212.82 8.47656 212.732 9.04167 212.555 9.5625C212.378 10.0833 212.12 10.5391 211.781 10.9297C211.448 11.3151 211.044 11.6172 210.57 11.8359C210.102 12.0495 209.57 12.1562 208.977 12.1562C208.383 12.1562 207.849 12.0495 207.375 11.8359C206.901 11.6172 206.495 11.3151 206.156 10.9297C205.823 10.5391 205.568 10.0833 205.391 9.5625C205.214 9.04167 205.125 8.47656 205.125 7.86719ZM206.57 7.6875V7.86719C206.57 8.28906 206.62 8.6875 206.719 9.0625C206.818 9.43229 206.966 9.76042 207.164 10.0469C207.367 10.3333 207.62 10.5599 207.922 10.7266C208.224 10.888 208.576 10.9688 208.977 10.9688C209.372 10.9688 209.719 10.888 210.016 10.7266C210.318 10.5599 210.568 10.3333 210.766 10.0469C210.964 9.76042 211.112 9.43229 211.211 9.0625C211.315 8.6875 211.367 8.28906 211.367 7.86719V7.6875C211.367 7.27083 211.315 6.8776 211.211 6.50781C211.112 6.13281 210.961 5.80208 210.758 5.51562C210.56 5.22396 210.31 4.99479 210.008 4.82812C209.711 4.66146 209.362 4.57812 208.961 4.57812C208.565 4.57812 208.216 4.66146 207.914 4.82812C207.617 4.99479 207.367 5.22396 207.164 5.51562C206.966 5.80208 206.818 6.13281 206.719 6.50781C206.62 6.8776 206.57 7.27083 206.57 7.6875ZM216.078 5.35156V12H214.633V3.54688H216L216.078 5.35156ZM215.734 7.45312L215.133 7.42969C215.138 6.85156 215.224 6.31771 215.391 5.82812C215.557 5.33333 215.792 4.90365 216.094 4.53906C216.396 4.17448 216.755 3.89323 217.172 3.69531C217.594 3.49219 218.06 3.39062 218.57 3.39062C218.987 3.39062 219.362 3.44792 219.695 3.5625C220.029 3.67188 220.312 3.84896 220.547 4.09375C220.786 4.33854 220.969 4.65625 221.094 5.04688C221.219 5.43229 221.281 5.90365 221.281 6.46094V12H219.828V6.44531C219.828 6.0026 219.763 5.64844 219.633 5.38281C219.503 5.11198 219.312 4.91667 219.062 4.79688C218.812 4.67188 218.505 4.60938 218.141 4.60938C217.781 4.60938 217.453 4.6849 217.156 4.83594C216.865 4.98698 216.612 5.19531 216.398 5.46094C216.19 5.72656 216.026 6.03125 215.906 6.375C215.792 6.71354 215.734 7.07292 215.734 7.45312ZM228.398 9.75781C228.398 9.54948 228.352 9.35677 228.258 9.17969C228.169 8.9974 227.984 8.83333 227.703 8.6875C227.427 8.53646 227.01 8.40625 226.453 8.29688C225.984 8.19792 225.56 8.08073 225.18 7.94531C224.805 7.8099 224.484 7.64583 224.219 7.45312C223.958 7.26042 223.758 7.03385 223.617 6.77344C223.477 6.51302 223.406 6.20833 223.406 5.85938C223.406 5.52604 223.479 5.21094 223.625 4.91406C223.776 4.61719 223.987 4.35417 224.258 4.125C224.534 3.89583 224.865 3.71615 225.25 3.58594C225.635 3.45573 226.065 3.39062 226.539 3.39062C227.216 3.39062 227.794 3.51042 228.273 3.75C228.753 3.98958 229.12 4.3099 229.375 4.71094C229.63 5.10677 229.758 5.54688 229.758 6.03125H228.312C228.312 5.79688 228.242 5.57031 228.102 5.35156C227.966 5.1276 227.766 4.94271 227.5 4.79688C227.24 4.65104 226.919 4.57812 226.539 4.57812C226.138 4.57812 225.812 4.64062 225.562 4.76562C225.318 4.88542 225.138 5.03906 225.023 5.22656C224.914 5.41406 224.859 5.61198 224.859 5.82031C224.859 5.97656 224.885 6.11719 224.938 6.24219C224.995 6.36198 225.094 6.47396 225.234 6.57812C225.375 6.67708 225.573 6.77083 225.828 6.85938C226.083 6.94792 226.409 7.03646 226.805 7.125C227.497 7.28125 228.068 7.46875 228.516 7.6875C228.964 7.90625 229.297 8.17448 229.516 8.49219C229.734 8.8099 229.844 9.19531 229.844 9.64844C229.844 10.0182 229.766 10.3568 229.609 10.6641C229.458 10.9714 229.237 11.237 228.945 11.4609C228.659 11.6797 228.315 11.8516 227.914 11.9766C227.518 12.0964 227.073 12.1562 226.578 12.1562C225.833 12.1562 225.203 12.0234 224.688 11.7578C224.172 11.4922 223.781 11.1484 223.516 10.7266C223.25 10.3047 223.117 9.85938 223.117 9.39062H224.57C224.591 9.78646 224.706 10.1016 224.914 10.3359C225.122 10.5651 225.378 10.7292 225.68 10.8281C225.982 10.9219 226.281 10.9688 226.578 10.9688C226.974 10.9688 227.305 10.9167 227.57 10.8125C227.841 10.7083 228.047 10.5651 228.188 10.3828C228.328 10.2005 228.398 9.99219 228.398 9.75781Z" fill="#FF6600"/>
</svg>
