<svg width="61" height="13" viewBox="0 0 61 13" fill="none" xmlns="http://www.w3.org/2000/svg">
<path d="M1.82812 0.625V12H0.320312V0.625H1.82812ZM6.59375 5.74219V6.97656H1.5V5.74219H6.59375ZM7.36719 0.625V1.85938H1.5V0.625H7.36719ZM12.2812 12.1562C11.6927 12.1562 11.1589 12.0573 10.6797 11.8594C10.2057 11.6562 9.79688 11.3724 9.45312 11.0078C9.11458 10.6432 8.85417 10.2109 8.67188 9.71094C8.48958 9.21094 8.39844 8.66406 8.39844 8.07031V7.74219C8.39844 7.05469 8.5 6.44271 8.70312 5.90625C8.90625 5.36458 9.18229 4.90625 9.53125 4.53125C9.88021 4.15625 10.276 3.8724 10.7188 3.67969C11.1615 3.48698 11.6198 3.39062 12.0938 3.39062C12.6979 3.39062 13.2188 3.49479 13.6562 3.70312C14.099 3.91146 14.4609 4.20312 14.7422 4.57812C15.0234 4.94792 15.2318 5.38542 15.3672 5.89062C15.5026 6.39062 15.5703 6.9375 15.5703 7.53125V8.17969H9.25781V7H14.125V6.89062C14.1042 6.51562 14.026 6.15104 13.8906 5.79688C13.7604 5.44271 13.5521 5.15104 13.2656 4.92188C12.9792 4.69271 12.5885 4.57812 12.0938 4.57812C11.7656 4.57812 11.4635 4.64844 11.1875 4.78906C10.9115 4.92448 10.6745 5.1276 10.4766 5.39844C10.2786 5.66927 10.125 6 10.0156 6.39062C9.90625 6.78125 9.85156 7.23177 9.85156 7.74219V8.07031C9.85156 8.47135 9.90625 8.84896 10.0156 9.20312C10.1302 9.55208 10.2943 9.85938 10.5078 10.125C10.7266 10.3906 10.9896 10.599 11.2969 10.75C11.6094 10.901 11.9635 10.9766 12.3594 10.9766C12.8698 10.9766 13.3021 10.8724 13.6562 10.6641C14.0104 10.4557 14.3203 10.1771 14.5859 9.82812L15.4609 10.5234C15.2786 10.7995 15.0469 11.0625 14.7656 11.3125C14.4844 11.5625 14.138 11.7656 13.7266 11.9219C13.3203 12.0781 12.8385 12.1562 12.2812 12.1562ZM22.2422 10.5547V6.20312C22.2422 5.86979 22.1745 5.58073 22.0391 5.33594C21.9089 5.08594 21.7109 4.89323 21.4453 4.75781C21.1797 4.6224 20.8516 4.55469 20.4609 4.55469C20.0964 4.55469 19.776 4.61719 19.5 4.74219C19.2292 4.86719 19.0156 5.03125 18.8594 5.23438C18.7083 5.4375 18.6328 5.65625 18.6328 5.89062H17.1875C17.1875 5.58854 17.2656 5.28906 17.4219 4.99219C17.5781 4.69531 17.8021 4.42708 18.0938 4.1875C18.3906 3.94271 18.7448 3.75 19.1562 3.60938C19.5729 3.46354 20.0365 3.39062 20.5469 3.39062C21.1615 3.39062 21.7031 3.49479 22.1719 3.70312C22.6458 3.91146 23.0156 4.22656 23.2812 4.64844C23.5521 5.0651 23.6875 5.58854 23.6875 6.21875V10.1562C23.6875 10.4375 23.7109 10.737 23.7578 11.0547C23.8099 11.3724 23.8854 11.6458 23.9844 11.875V12H22.4766C22.4036 11.8333 22.3464 11.612 22.3047 11.3359C22.263 11.0547 22.2422 10.7943 22.2422 10.5547ZM22.4922 6.875L22.5078 7.89062H21.0469C20.6354 7.89062 20.2682 7.92448 19.9453 7.99219C19.6224 8.05469 19.3516 8.15104 19.1328 8.28125C18.9141 8.41146 18.7474 8.57552 18.6328 8.77344C18.5182 8.96615 18.4609 9.19271 18.4609 9.45312C18.4609 9.71875 18.5208 9.96094 18.6406 10.1797C18.7604 10.3984 18.9401 10.5729 19.1797 10.7031C19.4245 10.8281 19.724 10.8906 20.0781 10.8906C20.5208 10.8906 20.9115 10.7969 21.25 10.6094C21.5885 10.4219 21.8568 10.1927 22.0547 9.92188C22.2578 9.65104 22.3672 9.38802 22.3828 9.13281L23 9.82812C22.9635 10.0469 22.8646 10.2891 22.7031 10.5547C22.5417 10.8203 22.3255 11.0755 22.0547 11.3203C21.7891 11.5599 21.4714 11.7604 21.1016 11.9219C20.737 12.0781 20.3255 12.1562 19.8672 12.1562C19.2943 12.1562 18.7917 12.0443 18.3594 11.8203C17.9323 11.5964 17.599 11.2969 17.3594 10.9219C17.125 10.5417 17.0078 10.1172 17.0078 9.64844C17.0078 9.19531 17.0964 8.79688 17.2734 8.45312C17.4505 8.10417 17.7057 7.8151 18.0391 7.58594C18.3724 7.35156 18.7734 7.17448 19.2422 7.05469C19.7109 6.9349 20.2344 6.875 20.8125 6.875H22.4922ZM29.5 3.54688V4.65625H24.9297V3.54688H29.5ZM26.4766 1.49219H27.9219V9.90625C27.9219 10.1927 27.9661 10.4089 28.0547 10.5547C28.1432 10.7005 28.2578 10.7969 28.3984 10.8438C28.5391 10.8906 28.6901 10.9141 28.8516 10.9141C28.9714 10.9141 29.0964 10.9036 29.2266 10.8828C29.362 10.8568 29.4635 10.8359 29.5312 10.8203L29.5391 12C29.4245 12.0365 29.2734 12.0703 29.0859 12.1016C28.9036 12.138 28.6823 12.1562 28.4219 12.1562C28.0677 12.1562 27.7422 12.0859 27.4453 11.9453C27.1484 11.8047 26.9115 11.5703 26.7344 11.2422C26.5625 10.9089 26.4766 10.4609 26.4766 9.89844V1.49219ZM36.3672 10.0469V3.54688H37.8203V12H36.4375L36.3672 10.0469ZM36.6406 8.26562L37.2422 8.25C37.2422 8.8125 37.1823 9.33333 37.0625 9.8125C36.9479 10.2865 36.7604 10.6979 36.5 11.0469C36.2396 11.3958 35.8984 11.6693 35.4766 11.8672C35.0547 12.0599 34.5417 12.1562 33.9375 12.1562C33.526 12.1562 33.1484 12.0964 32.8047 11.9766C32.4661 11.8568 32.1745 11.6719 31.9297 11.4219C31.6849 11.1719 31.4948 10.8464 31.3594 10.4453C31.2292 10.0443 31.1641 9.5625 31.1641 9V3.54688H32.6094V9.01562C32.6094 9.39583 32.651 9.71094 32.7344 9.96094C32.8229 10.2057 32.9401 10.401 33.0859 10.5469C33.237 10.6875 33.4036 10.7865 33.5859 10.8438C33.7734 10.901 33.9661 10.9297 34.1641 10.9297C34.7786 10.9297 35.2656 10.8125 35.625 10.5781C35.9844 10.3385 36.2422 10.0182 36.3984 9.61719C36.5599 9.21094 36.6406 8.76042 36.6406 8.26562ZM41.4688 4.875V12H40.0234V3.54688H41.4297L41.4688 4.875ZM44.1094 3.5L44.1016 4.84375C43.9818 4.81771 43.8672 4.80208 43.7578 4.79688C43.6536 4.78646 43.5339 4.78125 43.3984 4.78125C43.0651 4.78125 42.7708 4.83333 42.5156 4.9375C42.2604 5.04167 42.0443 5.1875 41.8672 5.375C41.6901 5.5625 41.5495 5.78646 41.4453 6.04688C41.3464 6.30208 41.2812 6.58333 41.25 6.89062L40.8438 7.125C40.8438 6.61458 40.8932 6.13542 40.9922 5.6875C41.0964 5.23958 41.2552 4.84375 41.4688 4.5C41.6823 4.15104 41.9531 3.88021 42.2812 3.6875C42.6146 3.48958 43.0104 3.39062 43.4688 3.39062C43.5729 3.39062 43.6927 3.40365 43.8281 3.42969C43.9635 3.45052 44.0573 3.47396 44.1094 3.5ZM48.7969 12.1562C48.2083 12.1562 47.6745 12.0573 47.1953 11.8594C46.7214 11.6562 46.3125 11.3724 45.9688 11.0078C45.6302 10.6432 45.3698 10.2109 45.1875 9.71094C45.0052 9.21094 44.9141 8.66406 44.9141 8.07031V7.74219C44.9141 7.05469 45.0156 6.44271 45.2188 5.90625C45.4219 5.36458 45.6979 4.90625 46.0469 4.53125C46.3958 4.15625 46.7917 3.8724 47.2344 3.67969C47.6771 3.48698 48.1354 3.39062 48.6094 3.39062C49.2135 3.39062 49.7344 3.49479 50.1719 3.70312C50.6146 3.91146 50.9766 4.20312 51.2578 4.57812C51.5391 4.94792 51.7474 5.38542 51.8828 5.89062C52.0182 6.39062 52.0859 6.9375 52.0859 7.53125V8.17969H45.7734V7H50.6406V6.89062C50.6198 6.51562 50.5417 6.15104 50.4062 5.79688C50.276 5.44271 50.0677 5.15104 49.7812 4.92188C49.4948 4.69271 49.1042 4.57812 48.6094 4.57812C48.2812 4.57812 47.9792 4.64844 47.7031 4.78906C47.4271 4.92448 47.1901 5.1276 46.9922 5.39844C46.7943 5.66927 46.6406 6 46.5312 6.39062C46.4219 6.78125 46.3672 7.23177 46.3672 7.74219V8.07031C46.3672 8.47135 46.4219 8.84896 46.5312 9.20312C46.6458 9.55208 46.8099 9.85938 47.0234 10.125C47.2422 10.3906 47.5052 10.599 47.8125 10.75C48.125 10.901 48.4792 10.9766 48.875 10.9766C49.3854 10.9766 49.8177 10.8724 50.1719 10.6641C50.526 10.4557 50.8359 10.1771 51.1016 9.82812L51.9766 10.5234C51.7943 10.7995 51.5625 11.0625 51.2812 11.3125C51 11.5625 50.6536 11.7656 50.2422 11.9219C49.8359 12.0781 49.3542 12.1562 48.7969 12.1562ZM58.6953 9.75781C58.6953 9.54948 58.6484 9.35677 58.5547 9.17969C58.4661 8.9974 58.2812 8.83333 58 8.6875C57.724 8.53646 57.3073 8.40625 56.75 8.29688C56.2812 8.19792 55.8568 8.08073 55.4766 7.94531C55.1016 7.8099 54.7812 7.64583 54.5156 7.45312C54.2552 7.26042 54.0547 7.03385 53.9141 6.77344C53.7734 6.51302 53.7031 6.20833 53.7031 5.85938C53.7031 5.52604 53.776 5.21094 53.9219 4.91406C54.0729 4.61719 54.2839 4.35417 54.5547 4.125C54.8307 3.89583 55.1615 3.71615 55.5469 3.58594C55.9323 3.45573 56.362 3.39062 56.8359 3.39062C57.513 3.39062 58.0911 3.51042 58.5703 3.75C59.0495 3.98958 59.4167 4.3099 59.6719 4.71094C59.9271 5.10677 60.0547 5.54688 60.0547 6.03125H58.6094C58.6094 5.79688 58.5391 5.57031 58.3984 5.35156C58.263 5.1276 58.0625 4.94271 57.7969 4.79688C57.5365 4.65104 57.2161 4.57812 56.8359 4.57812C56.4349 4.57812 56.1094 4.64062 55.8594 4.76562C55.6146 4.88542 55.4349 5.03906 55.3203 5.22656C55.2109 5.41406 55.1562 5.61198 55.1562 5.82031C55.1562 5.97656 55.1823 6.11719 55.2344 6.24219C55.2917 6.36198 55.3906 6.47396 55.5312 6.57812C55.6719 6.67708 55.8698 6.77083 56.125 6.85938C56.3802 6.94792 56.7057 7.03646 57.1016 7.125C57.7943 7.28125 58.3646 7.46875 58.8125 7.6875C59.2604 7.90625 59.5938 8.17448 59.8125 8.49219C60.0312 8.8099 60.1406 9.19531 60.1406 9.64844C60.1406 10.0182 60.0625 10.3568 59.9062 10.6641C59.7552 10.9714 59.5339 11.237 59.2422 11.4609C58.9557 11.6797 58.612 11.8516 58.2109 11.9766C57.8151 12.0964 57.3698 12.1562 56.875 12.1562C56.1302 12.1562 55.5 12.0234 54.9844 11.7578C54.4688 11.4922 54.0781 11.1484 53.8125 10.7266C53.5469 10.3047 53.4141 9.85938 53.4141 9.39062H54.8672C54.888 9.78646 55.0026 10.1016 55.2109 10.3359C55.4193 10.5651 55.6745 10.7292 55.9766 10.8281C56.2786 10.9219 56.5781 10.9688 56.875 10.9688C57.2708 10.9688 57.6016 10.9167 57.8672 10.8125C58.138 10.7083 58.3438 10.5651 58.4844 10.3828C58.625 10.2005 58.6953 9.99219 58.6953 9.75781Z" fill="#FF6600"/>
</svg>
