<svg width="50" height="16" viewBox="0 0 50 16" fill="none" xmlns="http://www.w3.org/2000/svg">
<path d="M7.78906 5.51562V6.74219H1.63281V5.51562H7.78906ZM1.86719 0.625V12H0.359375V0.625H1.86719ZM9.10156 0.625V12H7.60156V0.625H9.10156ZM13.1328 3.54688V12H11.6797V3.54688H13.1328ZM11.5703 1.30469C11.5703 1.07031 11.6406 0.872396 11.7812 0.710938C11.9271 0.549479 12.1406 0.46875 12.4219 0.46875C12.6979 0.46875 12.9089 0.549479 13.0547 0.710938C13.2057 0.872396 13.2812 1.07031 13.2812 1.30469C13.2812 1.52865 13.2057 1.72135 13.0547 1.88281C12.9089 2.03906 12.6979 2.11719 12.4219 2.11719C12.1406 2.11719 11.9271 2.03906 11.7812 1.88281C11.6406 1.72135 11.5703 1.52865 11.5703 1.30469ZM20.375 9.75781C20.375 9.54948 20.3281 9.35677 20.2344 9.17969C20.1458 8.9974 19.9609 8.83333 19.6797 8.6875C19.4036 8.53646 18.987 8.40625 18.4297 8.29688C17.9609 8.19792 17.5365 8.08073 17.1562 7.94531C16.7812 7.8099 16.4609 7.64583 16.1953 7.45312C15.9349 7.26042 15.7344 7.03385 15.5938 6.77344C15.4531 6.51302 15.3828 6.20833 15.3828 5.85938C15.3828 5.52604 15.4557 5.21094 15.6016 4.91406C15.7526 4.61719 15.9635 4.35417 16.2344 4.125C16.5104 3.89583 16.8411 3.71615 17.2266 3.58594C17.612 3.45573 18.0417 3.39062 18.5156 3.39062C19.1927 3.39062 19.7708 3.51042 20.25 3.75C20.7292 3.98958 21.0964 4.3099 21.3516 4.71094C21.6068 5.10677 21.7344 5.54688 21.7344 6.03125H20.2891C20.2891 5.79688 20.2188 5.57031 20.0781 5.35156C19.9427 5.1276 19.7422 4.94271 19.4766 4.79688C19.2161 4.65104 18.8958 4.57812 18.5156 4.57812C18.1146 4.57812 17.7891 4.64062 17.5391 4.76562C17.2943 4.88542 17.1146 5.03906 17 5.22656C16.8906 5.41406 16.8359 5.61198 16.8359 5.82031C16.8359 5.97656 16.862 6.11719 16.9141 6.24219C16.9714 6.36198 17.0703 6.47396 17.2109 6.57812C17.3516 6.67708 17.5495 6.77083 17.8047 6.85938C18.0599 6.94792 18.3854 7.03646 18.7812 7.125C19.474 7.28125 20.0443 7.46875 20.4922 7.6875C20.9401 7.90625 21.2734 8.17448 21.4922 8.49219C21.7109 8.8099 21.8203 9.19531 21.8203 9.64844C21.8203 10.0182 21.7422 10.3568 21.5859 10.6641C21.4349 10.9714 21.2135 11.237 20.9219 11.4609C20.6354 11.6797 20.2917 11.8516 19.8906 11.9766C19.4948 12.0964 19.0495 12.1562 18.5547 12.1562C17.8099 12.1562 17.1797 12.0234 16.6641 11.7578C16.1484 11.4922 15.7578 11.1484 15.4922 10.7266C15.2266 10.3047 15.0938 9.85938 15.0938 9.39062H16.5469C16.5677 9.78646 16.6823 10.1016 16.8906 10.3359C17.099 10.5651 17.3542 10.7292 17.6562 10.8281C17.9583 10.9219 18.2578 10.9688 18.5547 10.9688C18.9505 10.9688 19.2812 10.9167 19.5469 10.8125C19.8177 10.7083 20.0234 10.5651 20.1641 10.3828C20.3047 10.2005 20.375 9.99219 20.375 9.75781ZM27.2578 3.54688V4.65625H22.6875V3.54688H27.2578ZM24.2344 1.49219H25.6797V9.90625C25.6797 10.1927 25.724 10.4089 25.8125 10.5547C25.901 10.7005 26.0156 10.7969 26.1562 10.8438C26.2969 10.8906 26.4479 10.9141 26.6094 10.9141C26.7292 10.9141 26.8542 10.9036 26.9844 10.8828C27.1198 10.8568 27.2214 10.8359 27.2891 10.8203L27.2969 12C27.1823 12.0365 27.0312 12.0703 26.8438 12.1016C26.6615 12.138 26.4401 12.1562 26.1797 12.1562C25.8255 12.1562 25.5 12.0859 25.2031 11.9453C24.9062 11.8047 24.6693 11.5703 24.4922 11.2422C24.3203 10.9089 24.2344 10.4609 24.2344 9.89844V1.49219ZM28.4141 7.86719V7.6875C28.4141 7.07812 28.5026 6.51302 28.6797 5.99219C28.8568 5.46615 29.112 5.01042 29.4453 4.625C29.7786 4.23438 30.1823 3.93229 30.6562 3.71875C31.1302 3.5 31.6615 3.39062 32.25 3.39062C32.8438 3.39062 33.3776 3.5 33.8516 3.71875C34.3307 3.93229 34.737 4.23438 35.0703 4.625C35.4089 5.01042 35.6667 5.46615 35.8438 5.99219C36.0208 6.51302 36.1094 7.07812 36.1094 7.6875V7.86719C36.1094 8.47656 36.0208 9.04167 35.8438 9.5625C35.6667 10.0833 35.4089 10.5391 35.0703 10.9297C34.737 11.3151 34.3333 11.6172 33.8594 11.8359C33.3906 12.0495 32.8594 12.1562 32.2656 12.1562C31.6719 12.1562 31.138 12.0495 30.6641 11.8359C30.1901 11.6172 29.7839 11.3151 29.4453 10.9297C29.112 10.5391 28.8568 10.0833 28.6797 9.5625C28.5026 9.04167 28.4141 8.47656 28.4141 7.86719ZM29.8594 7.6875V7.86719C29.8594 8.28906 29.9089 8.6875 30.0078 9.0625C30.1068 9.43229 30.2552 9.76042 30.4531 10.0469C30.6562 10.3333 30.9089 10.5599 31.2109 10.7266C31.513 10.888 31.8646 10.9688 32.2656 10.9688C32.6615 10.9688 33.0078 10.888 33.3047 10.7266C33.6068 10.5599 33.8568 10.3333 34.0547 10.0469C34.2526 9.76042 34.401 9.43229 34.5 9.0625C34.6042 8.6875 34.6562 8.28906 34.6562 7.86719V7.6875C34.6562 7.27083 34.6042 6.8776 34.5 6.50781C34.401 6.13281 34.25 5.80208 34.0469 5.51562C33.849 5.22396 33.599 4.99479 33.2969 4.82812C33 4.66146 32.651 4.57812 32.25 4.57812C31.8542 4.57812 31.5052 4.66146 31.2031 4.82812C30.9062 4.99479 30.6562 5.22396 30.4531 5.51562C30.2552 5.80208 30.1068 6.13281 30.0078 6.50781C29.9089 6.8776 29.8594 7.27083 29.8594 7.6875ZM39.3672 4.875V12H37.9219V3.54688H39.3281L39.3672 4.875ZM42.0078 3.5L42 4.84375C41.8802 4.81771 41.7656 4.80208 41.6562 4.79688C41.5521 4.78646 41.4323 4.78125 41.2969 4.78125C40.9635 4.78125 40.6693 4.83333 40.4141 4.9375C40.1589 5.04167 39.9427 5.1875 39.7656 5.375C39.5885 5.5625 39.4479 5.78646 39.3438 6.04688C39.2448 6.30208 39.1797 6.58333 39.1484 6.89062L38.7422 7.125C38.7422 6.61458 38.7917 6.13542 38.8906 5.6875C38.9948 5.23958 39.1536 4.84375 39.3672 4.5C39.5807 4.15104 39.8516 3.88021 40.1797 3.6875C40.513 3.48958 40.9089 3.39062 41.3672 3.39062C41.4714 3.39062 41.5911 3.40365 41.7266 3.42969C41.862 3.45052 41.9557 3.47396 42.0078 3.5ZM45.8594 11.125L48.2109 3.54688H49.7578L46.3672 13.3047C46.2891 13.513 46.1849 13.737 46.0547 13.9766C45.9297 14.2214 45.7682 14.4531 45.5703 14.6719C45.3724 14.8906 45.1328 15.0677 44.8516 15.2031C44.5755 15.3438 44.2448 15.4141 43.8594 15.4141C43.7448 15.4141 43.599 15.3984 43.4219 15.3672C43.2448 15.3359 43.1198 15.3099 43.0469 15.2891L43.0391 14.1172C43.0807 14.1224 43.1458 14.1276 43.2344 14.1328C43.3281 14.1432 43.3932 14.1484 43.4297 14.1484C43.7578 14.1484 44.0365 14.1042 44.2656 14.0156C44.4948 13.9323 44.6875 13.7891 44.8438 13.5859C45.0052 13.388 45.1432 13.1146 45.2578 12.7656L45.8594 11.125ZM44.1328 3.54688L46.3281 10.1094L46.7031 11.6328L45.6641 12.1641L42.5547 3.54688H44.1328Z" fill="#FF6600"/>
</svg>
