<svg width="94" height="16" viewBox="0 0 94 16" fill="none" xmlns="http://www.w3.org/2000/svg">
<path d="M8.21875 5.51562V6.74219H2.0625V5.51562H8.21875ZM2.29688 0.625V12H0.789062V0.625H2.29688ZM9.53125 0.625V12H8.03125V0.625H9.53125ZM13.5625 3.54688V12H12.1094V3.54688H13.5625ZM12 1.30469C12 1.07031 12.0703 0.872396 12.2109 0.710938C12.3568 0.549479 12.5703 0.46875 12.8516 0.46875C13.1276 0.46875 13.3385 0.549479 13.4844 0.710938C13.6354 0.872396 13.7109 1.07031 13.7109 1.30469C13.7109 1.52865 13.6354 1.72135 13.4844 1.88281C13.3385 2.03906 13.1276 2.11719 12.8516 2.11719C12.5703 2.11719 12.3568 2.03906 12.2109 1.88281C12.0703 1.72135 12 1.52865 12 1.30469ZM20.8047 9.75781C20.8047 9.54948 20.7578 9.35677 20.6641 9.17969C20.5755 8.9974 20.3906 8.83333 20.1094 8.6875C19.8333 8.53646 19.4167 8.40625 18.8594 8.29688C18.3906 8.19792 17.9661 8.08073 17.5859 7.94531C17.2109 7.8099 16.8906 7.64583 16.625 7.45312C16.3646 7.26042 16.1641 7.03385 16.0234 6.77344C15.8828 6.51302 15.8125 6.20833 15.8125 5.85938C15.8125 5.52604 15.8854 5.21094 16.0312 4.91406C16.1823 4.61719 16.3932 4.35417 16.6641 4.125C16.9401 3.89583 17.2708 3.71615 17.6562 3.58594C18.0417 3.45573 18.4714 3.39062 18.9453 3.39062C19.6224 3.39062 20.2005 3.51042 20.6797 3.75C21.1589 3.98958 21.526 4.3099 21.7812 4.71094C22.0365 5.10677 22.1641 5.54688 22.1641 6.03125H20.7188C20.7188 5.79688 20.6484 5.57031 20.5078 5.35156C20.3724 5.1276 20.1719 4.94271 19.9062 4.79688C19.6458 4.65104 19.3255 4.57812 18.9453 4.57812C18.5443 4.57812 18.2188 4.64062 17.9688 4.76562C17.724 4.88542 17.5443 5.03906 17.4297 5.22656C17.3203 5.41406 17.2656 5.61198 17.2656 5.82031C17.2656 5.97656 17.2917 6.11719 17.3438 6.24219C17.401 6.36198 17.5 6.47396 17.6406 6.57812C17.7812 6.67708 17.9792 6.77083 18.2344 6.85938C18.4896 6.94792 18.8151 7.03646 19.2109 7.125C19.9036 7.28125 20.474 7.46875 20.9219 7.6875C21.3698 7.90625 21.7031 8.17448 21.9219 8.49219C22.1406 8.8099 22.25 9.19531 22.25 9.64844C22.25 10.0182 22.1719 10.3568 22.0156 10.6641C21.8646 10.9714 21.6432 11.237 21.3516 11.4609C21.0651 11.6797 20.7214 11.8516 20.3203 11.9766C19.9245 12.0964 19.4792 12.1562 18.9844 12.1562C18.2396 12.1562 17.6094 12.0234 17.0938 11.7578C16.5781 11.4922 16.1875 11.1484 15.9219 10.7266C15.6562 10.3047 15.5234 9.85938 15.5234 9.39062H16.9766C16.9974 9.78646 17.112 10.1016 17.3203 10.3359C17.5286 10.5651 17.7839 10.7292 18.0859 10.8281C18.388 10.9219 18.6875 10.9688 18.9844 10.9688C19.3802 10.9688 19.7109 10.9167 19.9766 10.8125C20.2474 10.7083 20.4531 10.5651 20.5938 10.3828C20.7344 10.2005 20.8047 9.99219 20.8047 9.75781ZM27.6875 3.54688V4.65625H23.1172V3.54688H27.6875ZM24.6641 1.49219H26.1094V9.90625C26.1094 10.1927 26.1536 10.4089 26.2422 10.5547C26.3307 10.7005 26.4453 10.7969 26.5859 10.8438C26.7266 10.8906 26.8776 10.9141 27.0391 10.9141C27.1589 10.9141 27.2839 10.9036 27.4141 10.8828C27.5495 10.8568 27.651 10.8359 27.7188 10.8203L27.7266 12C27.612 12.0365 27.4609 12.0703 27.2734 12.1016C27.0911 12.138 26.8698 12.1562 26.6094 12.1562C26.2552 12.1562 25.9297 12.0859 25.6328 11.9453C25.3359 11.8047 25.099 11.5703 24.9219 11.2422C24.75 10.9089 24.6641 10.4609 24.6641 9.89844V1.49219ZM28.8438 7.86719V7.6875C28.8438 7.07812 28.9323 6.51302 29.1094 5.99219C29.2865 5.46615 29.5417 5.01042 29.875 4.625C30.2083 4.23438 30.612 3.93229 31.0859 3.71875C31.5599 3.5 32.0911 3.39062 32.6797 3.39062C33.2734 3.39062 33.8073 3.5 34.2812 3.71875C34.7604 3.93229 35.1667 4.23438 35.5 4.625C35.8385 5.01042 36.0964 5.46615 36.2734 5.99219C36.4505 6.51302 36.5391 7.07812 36.5391 7.6875V7.86719C36.5391 8.47656 36.4505 9.04167 36.2734 9.5625C36.0964 10.0833 35.8385 10.5391 35.5 10.9297C35.1667 11.3151 34.763 11.6172 34.2891 11.8359C33.8203 12.0495 33.2891 12.1562 32.6953 12.1562C32.1016 12.1562 31.5677 12.0495 31.0938 11.8359C30.6198 11.6172 30.2135 11.3151 29.875 10.9297C29.5417 10.5391 29.2865 10.0833 29.1094 9.5625C28.9323 9.04167 28.8438 8.47656 28.8438 7.86719ZM30.2891 7.6875V7.86719C30.2891 8.28906 30.3385 8.6875 30.4375 9.0625C30.5365 9.43229 30.6849 9.76042 30.8828 10.0469C31.0859 10.3333 31.3385 10.5599 31.6406 10.7266C31.9427 10.888 32.2943 10.9688 32.6953 10.9688C33.0911 10.9688 33.4375 10.888 33.7344 10.7266C34.0365 10.5599 34.2865 10.3333 34.4844 10.0469C34.6823 9.76042 34.8307 9.43229 34.9297 9.0625C35.0339 8.6875 35.0859 8.28906 35.0859 7.86719V7.6875C35.0859 7.27083 35.0339 6.8776 34.9297 6.50781C34.8307 6.13281 34.6797 5.80208 34.4766 5.51562C34.2786 5.22396 34.0286 4.99479 33.7266 4.82812C33.4297 4.66146 33.0807 4.57812 32.6797 4.57812C32.2839 4.57812 31.9349 4.66146 31.6328 4.82812C31.3359 4.99479 31.0859 5.22396 30.8828 5.51562C30.6849 5.80208 30.5365 6.13281 30.4375 6.50781C30.3385 6.8776 30.2891 7.27083 30.2891 7.6875ZM39.7969 4.875V12H38.3516V3.54688H39.7578L39.7969 4.875ZM42.4375 3.5L42.4297 4.84375C42.3099 4.81771 42.1953 4.80208 42.0859 4.79688C41.9818 4.78646 41.862 4.78125 41.7266 4.78125C41.3932 4.78125 41.099 4.83333 40.8438 4.9375C40.5885 5.04167 40.3724 5.1875 40.1953 5.375C40.0182 5.5625 39.8776 5.78646 39.7734 6.04688C39.6745 6.30208 39.6094 6.58333 39.5781 6.89062L39.1719 7.125C39.1719 6.61458 39.2214 6.13542 39.3203 5.6875C39.4245 5.23958 39.5833 4.84375 39.7969 4.5C40.0104 4.15104 40.2812 3.88021 40.6094 3.6875C40.9427 3.48958 41.3385 3.39062 41.7969 3.39062C41.901 3.39062 42.0208 3.40365 42.1562 3.42969C42.2917 3.45052 42.3854 3.47396 42.4375 3.5ZM46.2891 11.125L48.6406 3.54688H50.1875L46.7969 13.3047C46.7188 13.513 46.6146 13.737 46.4844 13.9766C46.3594 14.2214 46.1979 14.4531 46 14.6719C45.8021 14.8906 45.5625 15.0677 45.2812 15.2031C45.0052 15.3438 44.6745 15.4141 44.2891 15.4141C44.1745 15.4141 44.0286 15.3984 43.8516 15.3672C43.6745 15.3359 43.5495 15.3099 43.4766 15.2891L43.4688 14.1172C43.5104 14.1224 43.5755 14.1276 43.6641 14.1328C43.7578 14.1432 43.8229 14.1484 43.8594 14.1484C44.1875 14.1484 44.4661 14.1042 44.6953 14.0156C44.9245 13.9323 45.1172 13.7891 45.2734 13.5859C45.4349 13.388 45.5729 13.1146 45.6875 12.7656L46.2891 11.125ZM44.5625 3.54688L46.7578 10.1094L47.1328 11.6328L46.0938 12.1641L42.9844 3.54688H44.5625ZM59.7344 6.67969H56.8516L56.8359 5.46875H59.4531C59.8854 5.46875 60.263 5.39583 60.5859 5.25C60.9089 5.10417 61.1589 4.89583 61.3359 4.625C61.5182 4.34896 61.6094 4.02083 61.6094 3.64062C61.6094 3.22396 61.5286 2.88542 61.3672 2.625C61.2109 2.35938 60.9688 2.16667 60.6406 2.04688C60.3177 1.92188 59.9062 1.85938 59.4062 1.85938H57.1875V12H55.6797V0.625H59.4062C59.9896 0.625 60.5104 0.684896 60.9688 0.804688C61.4271 0.919271 61.8151 1.10156 62.1328 1.35156C62.4557 1.59635 62.7005 1.90885 62.8672 2.28906C63.0339 2.66927 63.1172 3.125 63.1172 3.65625C63.1172 4.125 62.9974 4.54948 62.7578 4.92969C62.5182 5.30469 62.1849 5.61198 61.7578 5.85156C61.3359 6.09115 60.8411 6.24479 60.2734 6.3125L59.7344 6.67969ZM59.6641 12H56.2578L57.1094 10.7734H59.6641C60.1432 10.7734 60.5495 10.6901 60.8828 10.5234C61.2214 10.3568 61.4792 10.1224 61.6562 9.82031C61.8333 9.51302 61.9219 9.15104 61.9219 8.73438C61.9219 8.3125 61.8464 7.94792 61.6953 7.64062C61.5443 7.33333 61.3073 7.09635 60.9844 6.92969C60.6615 6.76302 60.2448 6.67969 59.7344 6.67969H57.5859L57.6016 5.46875H60.5391L60.8594 5.90625C61.4062 5.95312 61.8698 6.10938 62.25 6.375C62.6302 6.63542 62.9193 6.96875 63.1172 7.375C63.3203 7.78125 63.4219 8.22917 63.4219 8.71875C63.4219 9.42708 63.2656 10.026 62.9531 10.5156C62.6458 11 62.2109 11.3698 61.6484 11.625C61.0859 11.875 60.4245 12 59.6641 12ZM68.9375 12.1562C68.349 12.1562 67.8151 12.0573 67.3359 11.8594C66.862 11.6562 66.4531 11.3724 66.1094 11.0078C65.7708 10.6432 65.5104 10.2109 65.3281 9.71094C65.1458 9.21094 65.0547 8.66406 65.0547 8.07031V7.74219C65.0547 7.05469 65.1562 6.44271 65.3594 5.90625C65.5625 5.36458 65.8385 4.90625 66.1875 4.53125C66.5365 4.15625 66.9323 3.8724 67.375 3.67969C67.8177 3.48698 68.276 3.39062 68.75 3.39062C69.3542 3.39062 69.875 3.49479 70.3125 3.70312C70.7552 3.91146 71.1172 4.20312 71.3984 4.57812C71.6797 4.94792 71.888 5.38542 72.0234 5.89062C72.1589 6.39062 72.2266 6.9375 72.2266 7.53125V8.17969H65.9141V7H70.7812V6.89062C70.7604 6.51562 70.6823 6.15104 70.5469 5.79688C70.4167 5.44271 70.2083 5.15104 69.9219 4.92188C69.6354 4.69271 69.2448 4.57812 68.75 4.57812C68.4219 4.57812 68.1198 4.64844 67.8438 4.78906C67.5677 4.92448 67.3307 5.1276 67.1328 5.39844C66.9349 5.66927 66.7812 6 66.6719 6.39062C66.5625 6.78125 66.5078 7.23177 66.5078 7.74219V8.07031C66.5078 8.47135 66.5625 8.84896 66.6719 9.20312C66.7865 9.55208 66.9505 9.85938 67.1641 10.125C67.3828 10.3906 67.6458 10.599 67.9531 10.75C68.2656 10.901 68.6198 10.9766 69.0156 10.9766C69.526 10.9766 69.9583 10.8724 70.3125 10.6641C70.6667 10.4557 70.9766 10.1771 71.2422 9.82812L72.1172 10.5234C71.9349 10.7995 71.7031 11.0625 71.4219 11.3125C71.1406 11.5625 70.7943 11.7656 70.3828 11.9219C69.9766 12.0781 69.4948 12.1562 68.9375 12.1562ZM79.3906 3.54688H80.7031V11.8203C80.7031 12.5651 80.5521 13.2005 80.25 13.7266C79.9479 14.2526 79.526 14.651 78.9844 14.9219C78.4479 15.1979 77.8281 15.3359 77.125 15.3359C76.8333 15.3359 76.4896 15.2891 76.0938 15.1953C75.7031 15.1068 75.3177 14.9531 74.9375 14.7344C74.5625 14.5208 74.2474 14.2318 73.9922 13.8672L74.75 13.0078C75.1042 13.4349 75.474 13.7318 75.8594 13.8984C76.25 14.0651 76.6354 14.1484 77.0156 14.1484C77.474 14.1484 77.8698 14.0625 78.2031 13.8906C78.5365 13.7188 78.7943 13.4635 78.9766 13.125C79.1641 12.7917 79.2578 12.3802 79.2578 11.8906V5.40625L79.3906 3.54688ZM73.5703 7.86719V7.70312C73.5703 7.05729 73.6458 6.47135 73.7969 5.94531C73.9531 5.41406 74.1745 4.95833 74.4609 4.57812C74.7526 4.19792 75.1042 3.90625 75.5156 3.70312C75.9271 3.49479 76.3906 3.39062 76.9062 3.39062C77.4375 3.39062 77.901 3.48438 78.2969 3.67188C78.6979 3.85417 79.0365 4.1224 79.3125 4.47656C79.5938 4.82552 79.8151 5.2474 79.9766 5.74219C80.138 6.23698 80.25 6.79688 80.3125 7.42188V8.14062C80.2552 8.76042 80.1432 9.31771 79.9766 9.8125C79.8151 10.3073 79.5938 10.7292 79.3125 11.0781C79.0365 11.4271 78.6979 11.6953 78.2969 11.8828C77.8958 12.0651 77.4271 12.1562 76.8906 12.1562C76.3854 12.1562 75.9271 12.0495 75.5156 11.8359C75.1094 11.6224 74.7604 11.3229 74.4688 10.9375C74.1771 10.5521 73.9531 10.099 73.7969 9.57812C73.6458 9.05208 73.5703 8.48177 73.5703 7.86719ZM75.0156 7.70312V7.86719C75.0156 8.28906 75.0573 8.6849 75.1406 9.05469C75.2292 9.42448 75.362 9.75 75.5391 10.0312C75.7214 10.3125 75.9531 10.5339 76.2344 10.6953C76.5156 10.8516 76.8516 10.9297 77.2422 10.9297C77.7214 10.9297 78.1172 10.8281 78.4297 10.625C78.7422 10.4219 78.9896 10.1536 79.1719 9.82031C79.3594 9.48698 79.5052 9.125 79.6094 8.73438V6.85156C79.5521 6.5651 79.4635 6.28906 79.3438 6.02344C79.2292 5.7526 79.0781 5.51302 78.8906 5.30469C78.7083 5.09115 78.4818 4.92188 78.2109 4.79688C77.9401 4.67188 77.6224 4.60938 77.2578 4.60938C76.862 4.60938 76.5208 4.69271 76.2344 4.85938C75.9531 5.02083 75.7214 5.24479 75.5391 5.53125C75.362 5.8125 75.2292 6.14062 75.1406 6.51562C75.0573 6.88542 75.0156 7.28125 75.0156 7.70312ZM84.4688 3.54688V12H83.0156V3.54688H84.4688ZM82.9062 1.30469C82.9062 1.07031 82.9766 0.872396 83.1172 0.710938C83.263 0.549479 83.4766 0.46875 83.7578 0.46875C84.0339 0.46875 84.2448 0.549479 84.3906 0.710938C84.5417 0.872396 84.6172 1.07031 84.6172 1.30469C84.6172 1.52865 84.5417 1.72135 84.3906 1.88281C84.2448 2.03906 84.0339 2.11719 83.7578 2.11719C83.4766 2.11719 83.263 2.03906 83.1172 1.88281C82.9766 1.72135 82.9062 1.52865 82.9062 1.30469ZM88.2344 5.35156V12H86.7891V3.54688H88.1562L88.2344 5.35156ZM87.8906 7.45312L87.2891 7.42969C87.2943 6.85156 87.3802 6.31771 87.5469 5.82812C87.7135 5.33333 87.9479 4.90365 88.25 4.53906C88.5521 4.17448 88.9115 3.89323 89.3281 3.69531C89.75 3.49219 90.2161 3.39062 90.7266 3.39062C91.1432 3.39062 91.5182 3.44792 91.8516 3.5625C92.1849 3.67188 92.4688 3.84896 92.7031 4.09375C92.9427 4.33854 93.125 4.65625 93.25 5.04688C93.375 5.43229 93.4375 5.90365 93.4375 6.46094V12H91.9844V6.44531C91.9844 6.0026 91.9193 5.64844 91.7891 5.38281C91.6589 5.11198 91.4688 4.91667 91.2188 4.79688C90.9688 4.67188 90.6615 4.60938 90.2969 4.60938C89.9375 4.60938 89.6094 4.6849 89.3125 4.83594C89.0208 4.98698 88.7682 5.19531 88.5547 5.46094C88.3464 5.72656 88.1823 6.03125 88.0625 6.375C87.9479 6.71354 87.8906 7.07292 87.8906 7.45312Z" fill="#FF6600"/>
</svg>
