<svg width="209" height="13" viewBox="0 0 209 13" fill="none" xmlns="http://www.w3.org/2000/svg">
<path d="M0.796875 0.625H2.25781L5.98438 9.89844L9.70312 0.625H11.1719L6.54688 12H5.40625L0.796875 0.625ZM0.320312 0.625H1.60938L1.82031 7.5625V12H0.320312V0.625ZM10.3516 0.625H11.6406V12H10.1406V7.5625L10.3516 0.625ZM15.6406 3.54688V12H14.1875V3.54688H15.6406ZM14.0781 1.30469C14.0781 1.07031 14.1484 0.872396 14.2891 0.710938C14.4349 0.549479 14.6484 0.46875 14.9297 0.46875C15.2057 0.46875 15.4167 0.549479 15.5625 0.710938C15.7135 0.872396 15.7891 1.07031 15.7891 1.30469C15.7891 1.52865 15.7135 1.72135 15.5625 1.88281C15.4167 2.03906 15.2057 2.11719 14.9297 2.11719C14.6484 2.11719 14.4349 2.03906 14.2891 1.88281C14.1484 1.72135 14.0781 1.52865 14.0781 1.30469ZM22.8828 9.75781C22.8828 9.54948 22.8359 9.35677 22.7422 9.17969C22.6536 8.9974 22.4688 8.83333 22.1875 8.6875C21.9115 8.53646 21.4948 8.40625 20.9375 8.29688C20.4688 8.19792 20.0443 8.08073 19.6641 7.94531C19.2891 7.8099 18.9688 7.64583 18.7031 7.45312C18.4427 7.26042 18.2422 7.03385 18.1016 6.77344C17.9609 6.51302 17.8906 6.20833 17.8906 5.85938C17.8906 5.52604 17.9635 5.21094 18.1094 4.91406C18.2604 4.61719 18.4714 4.35417 18.7422 4.125C19.0182 3.89583 19.349 3.71615 19.7344 3.58594C20.1198 3.45573 20.5495 3.39062 21.0234 3.39062C21.7005 3.39062 22.2786 3.51042 22.7578 3.75C23.237 3.98958 23.6042 4.3099 23.8594 4.71094C24.1146 5.10677 24.2422 5.54688 24.2422 6.03125H22.7969C22.7969 5.79688 22.7266 5.57031 22.5859 5.35156C22.4505 5.1276 22.25 4.94271 21.9844 4.79688C21.724 4.65104 21.4036 4.57812 21.0234 4.57812C20.6224 4.57812 20.2969 4.64062 20.0469 4.76562C19.8021 4.88542 19.6224 5.03906 19.5078 5.22656C19.3984 5.41406 19.3438 5.61198 19.3438 5.82031C19.3438 5.97656 19.3698 6.11719 19.4219 6.24219C19.4792 6.36198 19.5781 6.47396 19.7188 6.57812C19.8594 6.67708 20.0573 6.77083 20.3125 6.85938C20.5677 6.94792 20.8932 7.03646 21.2891 7.125C21.9818 7.28125 22.5521 7.46875 23 7.6875C23.4479 7.90625 23.7812 8.17448 24 8.49219C24.2188 8.8099 24.3281 9.19531 24.3281 9.64844C24.3281 10.0182 24.25 10.3568 24.0938 10.6641C23.9427 10.9714 23.7214 11.237 23.4297 11.4609C23.1432 11.6797 22.7995 11.8516 22.3984 11.9766C22.0026 12.0964 21.5573 12.1562 21.0625 12.1562C20.3177 12.1562 19.6875 12.0234 19.1719 11.7578C18.6562 11.4922 18.2656 11.1484 18 10.7266C17.7344 10.3047 17.6016 9.85938 17.6016 9.39062H19.0547C19.0755 9.78646 19.1901 10.1016 19.3984 10.3359C19.6068 10.5651 19.862 10.7292 20.1641 10.8281C20.4661 10.9219 20.7656 10.9688 21.0625 10.9688C21.4583 10.9688 21.7891 10.9167 22.0547 10.8125C22.3255 10.7083 22.5312 10.5651 22.6719 10.3828C22.8125 10.2005 22.8828 9.99219 22.8828 9.75781ZM31.1484 9.75781C31.1484 9.54948 31.1016 9.35677 31.0078 9.17969C30.9193 8.9974 30.7344 8.83333 30.4531 8.6875C30.1771 8.53646 29.7604 8.40625 29.2031 8.29688C28.7344 8.19792 28.3099 8.08073 27.9297 7.94531C27.5547 7.8099 27.2344 7.64583 26.9688 7.45312C26.7083 7.26042 26.5078 7.03385 26.3672 6.77344C26.2266 6.51302 26.1562 6.20833 26.1562 5.85938C26.1562 5.52604 26.2292 5.21094 26.375 4.91406C26.526 4.61719 26.737 4.35417 27.0078 4.125C27.2839 3.89583 27.6146 3.71615 28 3.58594C28.3854 3.45573 28.8151 3.39062 29.2891 3.39062C29.9661 3.39062 30.5443 3.51042 31.0234 3.75C31.5026 3.98958 31.8698 4.3099 32.125 4.71094C32.3802 5.10677 32.5078 5.54688 32.5078 6.03125H31.0625C31.0625 5.79688 30.9922 5.57031 30.8516 5.35156C30.7161 5.1276 30.5156 4.94271 30.25 4.79688C29.9896 4.65104 29.6693 4.57812 29.2891 4.57812C28.888 4.57812 28.5625 4.64062 28.3125 4.76562C28.0677 4.88542 27.888 5.03906 27.7734 5.22656C27.6641 5.41406 27.6094 5.61198 27.6094 5.82031C27.6094 5.97656 27.6354 6.11719 27.6875 6.24219C27.7448 6.36198 27.8438 6.47396 27.9844 6.57812C28.125 6.67708 28.3229 6.77083 28.5781 6.85938C28.8333 6.94792 29.1589 7.03646 29.5547 7.125C30.2474 7.28125 30.8177 7.46875 31.2656 7.6875C31.7135 7.90625 32.0469 8.17448 32.2656 8.49219C32.4844 8.8099 32.5938 9.19531 32.5938 9.64844C32.5938 10.0182 32.5156 10.3568 32.3594 10.6641C32.2083 10.9714 31.987 11.237 31.6953 11.4609C31.4089 11.6797 31.0651 11.8516 30.6641 11.9766C30.2682 12.0964 29.8229 12.1562 29.3281 12.1562C28.5833 12.1562 27.9531 12.0234 27.4375 11.7578C26.9219 11.4922 26.5312 11.1484 26.2656 10.7266C26 10.3047 25.8672 9.85938 25.8672 9.39062H27.3203C27.3411 9.78646 27.4557 10.1016 27.6641 10.3359C27.8724 10.5651 28.1276 10.7292 28.4297 10.8281C28.7318 10.9219 29.0312 10.9688 29.3281 10.9688C29.724 10.9688 30.0547 10.9167 30.3203 10.8125C30.5911 10.7083 30.7969 10.5651 30.9375 10.3828C31.0781 10.2005 31.1484 9.99219 31.1484 9.75781ZM36.0625 3.54688V12H34.6094V3.54688H36.0625ZM34.5 1.30469C34.5 1.07031 34.5703 0.872396 34.7109 0.710938C34.8568 0.549479 35.0703 0.46875 35.3516 0.46875C35.6276 0.46875 35.8385 0.549479 35.9844 0.710938C36.1354 0.872396 36.2109 1.07031 36.2109 1.30469C36.2109 1.52865 36.1354 1.72135 35.9844 1.88281C35.8385 2.03906 35.6276 2.11719 35.3516 2.11719C35.0703 2.11719 34.8568 2.03906 34.7109 1.88281C34.5703 1.72135 34.5 1.52865 34.5 1.30469ZM38 7.86719V7.6875C38 7.07812 38.0885 6.51302 38.2656 5.99219C38.4427 5.46615 38.6979 5.01042 39.0312 4.625C39.3646 4.23438 39.7682 3.93229 40.2422 3.71875C40.7161 3.5 41.2474 3.39062 41.8359 3.39062C42.4297 3.39062 42.9635 3.5 43.4375 3.71875C43.9167 3.93229 44.3229 4.23438 44.6562 4.625C44.9948 5.01042 45.2526 5.46615 45.4297 5.99219C45.6068 6.51302 45.6953 7.07812 45.6953 7.6875V7.86719C45.6953 8.47656 45.6068 9.04167 45.4297 9.5625C45.2526 10.0833 44.9948 10.5391 44.6562 10.9297C44.3229 11.3151 43.9193 11.6172 43.4453 11.8359C42.9766 12.0495 42.4453 12.1562 41.8516 12.1562C41.2578 12.1562 40.724 12.0495 40.25 11.8359C39.776 11.6172 39.3698 11.3151 39.0312 10.9297C38.6979 10.5391 38.4427 10.0833 38.2656 9.5625C38.0885 9.04167 38 8.47656 38 7.86719ZM39.4453 7.6875V7.86719C39.4453 8.28906 39.4948 8.6875 39.5938 9.0625C39.6927 9.43229 39.8411 9.76042 40.0391 10.0469C40.2422 10.3333 40.4948 10.5599 40.7969 10.7266C41.099 10.888 41.4505 10.9688 41.8516 10.9688C42.2474 10.9688 42.5938 10.888 42.8906 10.7266C43.1927 10.5599 43.4427 10.3333 43.6406 10.0469C43.8385 9.76042 43.987 9.43229 44.0859 9.0625C44.1901 8.6875 44.2422 8.28906 44.2422 7.86719V7.6875C44.2422 7.27083 44.1901 6.8776 44.0859 6.50781C43.987 6.13281 43.8359 5.80208 43.6328 5.51562C43.4349 5.22396 43.1849 4.99479 42.8828 4.82812C42.5859 4.66146 42.237 4.57812 41.8359 4.57812C41.4401 4.57812 41.0911 4.66146 40.7891 4.82812C40.4922 4.99479 40.2422 5.22396 40.0391 5.51562C39.8411 5.80208 39.6927 6.13281 39.5938 6.50781C39.4948 6.8776 39.4453 7.27083 39.4453 7.6875ZM48.9531 5.35156V12H47.5078V3.54688H48.875L48.9531 5.35156ZM48.6094 7.45312L48.0078 7.42969C48.013 6.85156 48.099 6.31771 48.2656 5.82812C48.4323 5.33333 48.6667 4.90365 48.9688 4.53906C49.2708 4.17448 49.6302 3.89323 50.0469 3.69531C50.4688 3.49219 50.9349 3.39062 51.4453 3.39062C51.862 3.39062 52.237 3.44792 52.5703 3.5625C52.9036 3.67188 53.1875 3.84896 53.4219 4.09375C53.6615 4.33854 53.8438 4.65625 53.9688 5.04688C54.0938 5.43229 54.1562 5.90365 54.1562 6.46094V12H52.7031V6.44531C52.7031 6.0026 52.638 5.64844 52.5078 5.38281C52.3776 5.11198 52.1875 4.91667 51.9375 4.79688C51.6875 4.67188 51.3802 4.60938 51.0156 4.60938C50.6562 4.60938 50.3281 4.6849 50.0312 4.83594C49.7396 4.98698 49.487 5.19531 49.2734 5.46094C49.0651 5.72656 48.901 6.03125 48.7812 6.375C48.6667 6.71354 48.6094 7.07292 48.6094 7.45312ZM63.3281 6.57031V7.75781H59.5156V6.57031H63.3281ZM72.6016 10.2734L75.9531 0.625H77.5859L73.375 12H72.2109L72.6016 10.2734ZM69.4688 0.625L72.7891 10.2734L73.2031 12H72.0391L67.8359 0.625H69.4688ZM80.4688 3.54688V12H79.0156V3.54688H80.4688ZM78.9062 1.30469C78.9062 1.07031 78.9766 0.872396 79.1172 0.710938C79.263 0.549479 79.4766 0.46875 79.7578 0.46875C80.0339 0.46875 80.2448 0.549479 80.3906 0.710938C80.5417 0.872396 80.6172 1.07031 80.6172 1.30469C80.6172 1.52865 80.5417 1.72135 80.3906 1.88281C80.2448 2.03906 80.0339 2.11719 79.7578 2.11719C79.4766 2.11719 79.263 2.03906 79.1172 1.88281C78.9766 1.72135 78.9062 1.52865 78.9062 1.30469ZM87.7109 9.75781C87.7109 9.54948 87.6641 9.35677 87.5703 9.17969C87.4818 8.9974 87.2969 8.83333 87.0156 8.6875C86.7396 8.53646 86.3229 8.40625 85.7656 8.29688C85.2969 8.19792 84.8724 8.08073 84.4922 7.94531C84.1172 7.8099 83.7969 7.64583 83.5312 7.45312C83.2708 7.26042 83.0703 7.03385 82.9297 6.77344C82.7891 6.51302 82.7188 6.20833 82.7188 5.85938C82.7188 5.52604 82.7917 5.21094 82.9375 4.91406C83.0885 4.61719 83.2995 4.35417 83.5703 4.125C83.8464 3.89583 84.1771 3.71615 84.5625 3.58594C84.9479 3.45573 85.3776 3.39062 85.8516 3.39062C86.5286 3.39062 87.1068 3.51042 87.5859 3.75C88.0651 3.98958 88.4323 4.3099 88.6875 4.71094C88.9427 5.10677 89.0703 5.54688 89.0703 6.03125H87.625C87.625 5.79688 87.5547 5.57031 87.4141 5.35156C87.2786 5.1276 87.0781 4.94271 86.8125 4.79688C86.5521 4.65104 86.2318 4.57812 85.8516 4.57812C85.4505 4.57812 85.125 4.64062 84.875 4.76562C84.6302 4.88542 84.4505 5.03906 84.3359 5.22656C84.2266 5.41406 84.1719 5.61198 84.1719 5.82031C84.1719 5.97656 84.1979 6.11719 84.25 6.24219C84.3073 6.36198 84.4062 6.47396 84.5469 6.57812C84.6875 6.67708 84.8854 6.77083 85.1406 6.85938C85.3958 6.94792 85.7214 7.03646 86.1172 7.125C86.8099 7.28125 87.3802 7.46875 87.8281 7.6875C88.276 7.90625 88.6094 8.17448 88.8281 8.49219C89.0469 8.8099 89.1562 9.19531 89.1562 9.64844C89.1562 10.0182 89.0781 10.3568 88.9219 10.6641C88.7708 10.9714 88.5495 11.237 88.2578 11.4609C87.9714 11.6797 87.6276 11.8516 87.2266 11.9766C86.8307 12.0964 86.3854 12.1562 85.8906 12.1562C85.1458 12.1562 84.5156 12.0234 84 11.7578C83.4844 11.4922 83.0938 11.1484 82.8281 10.7266C82.5625 10.3047 82.4297 9.85938 82.4297 9.39062H83.8828C83.9036 9.78646 84.0182 10.1016 84.2266 10.3359C84.4349 10.5651 84.6901 10.7292 84.9922 10.8281C85.2943 10.9219 85.5938 10.9688 85.8906 10.9688C86.2865 10.9688 86.6172 10.9167 86.8828 10.8125C87.1536 10.7083 87.3594 10.5651 87.5 10.3828C87.6406 10.2005 87.7109 9.99219 87.7109 9.75781ZM92.625 3.54688V12H91.1719V3.54688H92.625ZM91.0625 1.30469C91.0625 1.07031 91.1328 0.872396 91.2734 0.710938C91.4193 0.549479 91.6328 0.46875 91.9141 0.46875C92.1901 0.46875 92.401 0.549479 92.5469 0.710938C92.6979 0.872396 92.7734 1.07031 92.7734 1.30469C92.7734 1.52865 92.6979 1.72135 92.5469 1.88281C92.401 2.03906 92.1901 2.11719 91.9141 2.11719C91.6328 2.11719 91.4193 2.03906 91.2734 1.88281C91.1328 1.72135 91.0625 1.52865 91.0625 1.30469ZM94.5625 7.86719V7.6875C94.5625 7.07812 94.651 6.51302 94.8281 5.99219C95.0052 5.46615 95.2604 5.01042 95.5938 4.625C95.9271 4.23438 96.3307 3.93229 96.8047 3.71875C97.2786 3.5 97.8099 3.39062 98.3984 3.39062C98.9922 3.39062 99.526 3.5 100 3.71875C100.479 3.93229 100.885 4.23438 101.219 4.625C101.557 5.01042 101.815 5.46615 101.992 5.99219C102.169 6.51302 102.258 7.07812 102.258 7.6875V7.86719C102.258 8.47656 102.169 9.04167 101.992 9.5625C101.815 10.0833 101.557 10.5391 101.219 10.9297C100.885 11.3151 100.482 11.6172 100.008 11.8359C99.5391 12.0495 99.0078 12.1562 98.4141 12.1562C97.8203 12.1562 97.2865 12.0495 96.8125 11.8359C96.3385 11.6172 95.9323 11.3151 95.5938 10.9297C95.2604 10.5391 95.0052 10.0833 94.8281 9.5625C94.651 9.04167 94.5625 8.47656 94.5625 7.86719ZM96.0078 7.6875V7.86719C96.0078 8.28906 96.0573 8.6875 96.1562 9.0625C96.2552 9.43229 96.4036 9.76042 96.6016 10.0469C96.8047 10.3333 97.0573 10.5599 97.3594 10.7266C97.6615 10.888 98.013 10.9688 98.4141 10.9688C98.8099 10.9688 99.1562 10.888 99.4531 10.7266C99.7552 10.5599 100.005 10.3333 100.203 10.0469C100.401 9.76042 100.549 9.43229 100.648 9.0625C100.753 8.6875 100.805 8.28906 100.805 7.86719V7.6875C100.805 7.27083 100.753 6.8776 100.648 6.50781C100.549 6.13281 100.398 5.80208 100.195 5.51562C99.9974 5.22396 99.7474 4.99479 99.4453 4.82812C99.1484 4.66146 98.7995 4.57812 98.3984 4.57812C98.0026 4.57812 97.6536 4.66146 97.3516 4.82812C97.0547 4.99479 96.8047 5.22396 96.6016 5.51562C96.4036 5.80208 96.2552 6.13281 96.1562 6.50781C96.0573 6.8776 96.0078 7.27083 96.0078 7.6875ZM105.516 5.35156V12H104.07V3.54688H105.438L105.516 5.35156ZM105.172 7.45312L104.57 7.42969C104.576 6.85156 104.661 6.31771 104.828 5.82812C104.995 5.33333 105.229 4.90365 105.531 4.53906C105.833 4.17448 106.193 3.89323 106.609 3.69531C107.031 3.49219 107.497 3.39062 108.008 3.39062C108.424 3.39062 108.799 3.44792 109.133 3.5625C109.466 3.67188 109.75 3.84896 109.984 4.09375C110.224 4.33854 110.406 4.65625 110.531 5.04688C110.656 5.43229 110.719 5.90365 110.719 6.46094V12H109.266V6.44531C109.266 6.0026 109.201 5.64844 109.07 5.38281C108.94 5.11198 108.75 4.91667 108.5 4.79688C108.25 4.67188 107.943 4.60938 107.578 4.60938C107.219 4.60938 106.891 4.6849 106.594 4.83594C106.302 4.98698 106.049 5.19531 105.836 5.46094C105.628 5.72656 105.464 6.03125 105.344 6.375C105.229 6.71354 105.172 7.07292 105.172 7.45312ZM119.891 6.57031V7.75781H116.078V6.57031H119.891ZM132.359 8.38281H133.859C133.781 9.10156 133.576 9.74479 133.242 10.3125C132.909 10.8802 132.438 11.3307 131.828 11.6641C131.219 11.9922 130.458 12.1562 129.547 12.1562C128.88 12.1562 128.273 12.0312 127.727 11.7812C127.185 11.5312 126.719 11.1771 126.328 10.7188C125.938 10.2552 125.635 9.70052 125.422 9.05469C125.214 8.40365 125.109 7.67969 125.109 6.88281V5.75C125.109 4.95312 125.214 4.23177 125.422 3.58594C125.635 2.9349 125.94 2.3776 126.336 1.91406C126.737 1.45052 127.219 1.09375 127.781 0.84375C128.344 0.59375 128.977 0.46875 129.68 0.46875C130.539 0.46875 131.266 0.630208 131.859 0.953125C132.453 1.27604 132.914 1.72396 133.242 2.29688C133.576 2.86458 133.781 3.52344 133.859 4.27344H132.359C132.286 3.74219 132.151 3.28646 131.953 2.90625C131.755 2.52083 131.474 2.22396 131.109 2.01562C130.745 1.80729 130.268 1.70312 129.68 1.70312C129.174 1.70312 128.729 1.79948 128.344 1.99219C127.964 2.1849 127.643 2.45833 127.383 2.8125C127.128 3.16667 126.935 3.59115 126.805 4.08594C126.674 4.58073 126.609 5.13021 126.609 5.73438V6.88281C126.609 7.4401 126.667 7.96354 126.781 8.45312C126.901 8.94271 127.081 9.3724 127.32 9.74219C127.56 10.112 127.865 10.4036 128.234 10.6172C128.604 10.8255 129.042 10.9297 129.547 10.9297C130.188 10.9297 130.698 10.8281 131.078 10.625C131.458 10.4219 131.745 10.1302 131.938 9.75C132.135 9.36979 132.276 8.91406 132.359 8.38281ZM135.312 7.86719V7.6875C135.312 7.07812 135.401 6.51302 135.578 5.99219C135.755 5.46615 136.01 5.01042 136.344 4.625C136.677 4.23438 137.081 3.93229 137.555 3.71875C138.029 3.5 138.56 3.39062 139.148 3.39062C139.742 3.39062 140.276 3.5 140.75 3.71875C141.229 3.93229 141.635 4.23438 141.969 4.625C142.307 5.01042 142.565 5.46615 142.742 5.99219C142.919 6.51302 143.008 7.07812 143.008 7.6875V7.86719C143.008 8.47656 142.919 9.04167 142.742 9.5625C142.565 10.0833 142.307 10.5391 141.969 10.9297C141.635 11.3151 141.232 11.6172 140.758 11.8359C140.289 12.0495 139.758 12.1562 139.164 12.1562C138.57 12.1562 138.036 12.0495 137.562 11.8359C137.089 11.6172 136.682 11.3151 136.344 10.9297C136.01 10.5391 135.755 10.0833 135.578 9.5625C135.401 9.04167 135.312 8.47656 135.312 7.86719ZM136.758 7.6875V7.86719C136.758 8.28906 136.807 8.6875 136.906 9.0625C137.005 9.43229 137.154 9.76042 137.352 10.0469C137.555 10.3333 137.807 10.5599 138.109 10.7266C138.411 10.888 138.763 10.9688 139.164 10.9688C139.56 10.9688 139.906 10.888 140.203 10.7266C140.505 10.5599 140.755 10.3333 140.953 10.0469C141.151 9.76042 141.299 9.43229 141.398 9.0625C141.503 8.6875 141.555 8.28906 141.555 7.86719V7.6875C141.555 7.27083 141.503 6.8776 141.398 6.50781C141.299 6.13281 141.148 5.80208 140.945 5.51562C140.747 5.22396 140.497 4.99479 140.195 4.82812C139.898 4.66146 139.549 4.57812 139.148 4.57812C138.753 4.57812 138.404 4.66146 138.102 4.82812C137.805 4.99479 137.555 5.22396 137.352 5.51562C137.154 5.80208 137.005 6.13281 136.906 6.50781C136.807 6.8776 136.758 7.27083 136.758 7.6875ZM146.266 4.875V12H144.82V3.54688H146.227L146.266 4.875ZM148.906 3.5L148.898 4.84375C148.779 4.81771 148.664 4.80208 148.555 4.79688C148.451 4.78646 148.331 4.78125 148.195 4.78125C147.862 4.78125 147.568 4.83333 147.312 4.9375C147.057 5.04167 146.841 5.1875 146.664 5.375C146.487 5.5625 146.346 5.78646 146.242 6.04688C146.143 6.30208 146.078 6.58333 146.047 6.89062L145.641 7.125C145.641 6.61458 145.69 6.13542 145.789 5.6875C145.893 5.23958 146.052 4.84375 146.266 4.5C146.479 4.15104 146.75 3.88021 147.078 3.6875C147.411 3.48958 147.807 3.39062 148.266 3.39062C148.37 3.39062 148.49 3.40365 148.625 3.42969C148.76 3.45052 148.854 3.47396 148.906 3.5ZM153.594 12.1562C153.005 12.1562 152.471 12.0573 151.992 11.8594C151.518 11.6562 151.109 11.3724 150.766 11.0078C150.427 10.6432 150.167 10.2109 149.984 9.71094C149.802 9.21094 149.711 8.66406 149.711 8.07031V7.74219C149.711 7.05469 149.812 6.44271 150.016 5.90625C150.219 5.36458 150.495 4.90625 150.844 4.53125C151.193 4.15625 151.589 3.8724 152.031 3.67969C152.474 3.48698 152.932 3.39062 153.406 3.39062C154.01 3.39062 154.531 3.49479 154.969 3.70312C155.411 3.91146 155.773 4.20312 156.055 4.57812C156.336 4.94792 156.544 5.38542 156.68 5.89062C156.815 6.39062 156.883 6.9375 156.883 7.53125V8.17969H150.57V7H155.438V6.89062C155.417 6.51562 155.339 6.15104 155.203 5.79688C155.073 5.44271 154.865 5.15104 154.578 4.92188C154.292 4.69271 153.901 4.57812 153.406 4.57812C153.078 4.57812 152.776 4.64844 152.5 4.78906C152.224 4.92448 151.987 5.1276 151.789 5.39844C151.591 5.66927 151.438 6 151.328 6.39062C151.219 6.78125 151.164 7.23177 151.164 7.74219V8.07031C151.164 8.47135 151.219 8.84896 151.328 9.20312C151.443 9.55208 151.607 9.85938 151.82 10.125C152.039 10.3906 152.302 10.599 152.609 10.75C152.922 10.901 153.276 10.9766 153.672 10.9766C154.182 10.9766 154.615 10.8724 154.969 10.6641C155.323 10.4557 155.633 10.1771 155.898 9.82812L156.773 10.5234C156.591 10.7995 156.359 11.0625 156.078 11.3125C155.797 11.5625 155.451 11.7656 155.039 11.9219C154.633 12.0781 154.151 12.1562 153.594 12.1562ZM166.43 10.2734L169.781 0.625H171.414L167.203 12H166.039L166.43 10.2734ZM163.297 0.625L166.617 10.2734L167.031 12H165.867L161.664 0.625H163.297ZM177.352 10.5547V6.20312C177.352 5.86979 177.284 5.58073 177.148 5.33594C177.018 5.08594 176.82 4.89323 176.555 4.75781C176.289 4.6224 175.961 4.55469 175.57 4.55469C175.206 4.55469 174.885 4.61719 174.609 4.74219C174.339 4.86719 174.125 5.03125 173.969 5.23438C173.818 5.4375 173.742 5.65625 173.742 5.89062H172.297C172.297 5.58854 172.375 5.28906 172.531 4.99219C172.688 4.69531 172.911 4.42708 173.203 4.1875C173.5 3.94271 173.854 3.75 174.266 3.60938C174.682 3.46354 175.146 3.39062 175.656 3.39062C176.271 3.39062 176.812 3.49479 177.281 3.70312C177.755 3.91146 178.125 4.22656 178.391 4.64844C178.661 5.0651 178.797 5.58854 178.797 6.21875V10.1562C178.797 10.4375 178.82 10.737 178.867 11.0547C178.919 11.3724 178.995 11.6458 179.094 11.875V12H177.586C177.513 11.8333 177.456 11.612 177.414 11.3359C177.372 11.0547 177.352 10.7943 177.352 10.5547ZM177.602 6.875L177.617 7.89062H176.156C175.745 7.89062 175.378 7.92448 175.055 7.99219C174.732 8.05469 174.461 8.15104 174.242 8.28125C174.023 8.41146 173.857 8.57552 173.742 8.77344C173.628 8.96615 173.57 9.19271 173.57 9.45312C173.57 9.71875 173.63 9.96094 173.75 10.1797C173.87 10.3984 174.049 10.5729 174.289 10.7031C174.534 10.8281 174.833 10.8906 175.188 10.8906C175.63 10.8906 176.021 10.7969 176.359 10.6094C176.698 10.4219 176.966 10.1927 177.164 9.92188C177.367 9.65104 177.477 9.38802 177.492 9.13281L178.109 9.82812C178.073 10.0469 177.974 10.2891 177.812 10.5547C177.651 10.8203 177.435 11.0755 177.164 11.3203C176.898 11.5599 176.581 11.7604 176.211 11.9219C175.846 12.0781 175.435 12.1562 174.977 12.1562C174.404 12.1562 173.901 12.0443 173.469 11.8203C173.042 11.5964 172.708 11.2969 172.469 10.9219C172.234 10.5417 172.117 10.1172 172.117 9.64844C172.117 9.19531 172.206 8.79688 172.383 8.45312C172.56 8.10417 172.815 7.8151 173.148 7.58594C173.482 7.35156 173.883 7.17448 174.352 7.05469C174.82 6.9349 175.344 6.875 175.922 6.875H177.602ZM182.641 0V12H181.188V0H182.641ZM190.133 10.0469V3.54688H191.586V12H190.203L190.133 10.0469ZM190.406 8.26562L191.008 8.25C191.008 8.8125 190.948 9.33333 190.828 9.8125C190.714 10.2865 190.526 10.6979 190.266 11.0469C190.005 11.3958 189.664 11.6693 189.242 11.8672C188.82 12.0599 188.307 12.1562 187.703 12.1562C187.292 12.1562 186.914 12.0964 186.57 11.9766C186.232 11.8568 185.94 11.6719 185.695 11.4219C185.451 11.1719 185.26 10.8464 185.125 10.4453C184.995 10.0443 184.93 9.5625 184.93 9V3.54688H186.375V9.01562C186.375 9.39583 186.417 9.71094 186.5 9.96094C186.589 10.2057 186.706 10.401 186.852 10.5469C187.003 10.6875 187.169 10.7865 187.352 10.8438C187.539 10.901 187.732 10.9297 187.93 10.9297C188.544 10.9297 189.031 10.8125 189.391 10.5781C189.75 10.3385 190.008 10.0182 190.164 9.61719C190.326 9.21094 190.406 8.76042 190.406 8.26562ZM197.297 12.1562C196.708 12.1562 196.174 12.0573 195.695 11.8594C195.221 11.6562 194.812 11.3724 194.469 11.0078C194.13 10.6432 193.87 10.2109 193.688 9.71094C193.505 9.21094 193.414 8.66406 193.414 8.07031V7.74219C193.414 7.05469 193.516 6.44271 193.719 5.90625C193.922 5.36458 194.198 4.90625 194.547 4.53125C194.896 4.15625 195.292 3.8724 195.734 3.67969C196.177 3.48698 196.635 3.39062 197.109 3.39062C197.714 3.39062 198.234 3.49479 198.672 3.70312C199.115 3.91146 199.477 4.20312 199.758 4.57812C200.039 4.94792 200.247 5.38542 200.383 5.89062C200.518 6.39062 200.586 6.9375 200.586 7.53125V8.17969H194.273V7H199.141V6.89062C199.12 6.51562 199.042 6.15104 198.906 5.79688C198.776 5.44271 198.568 5.15104 198.281 4.92188C197.995 4.69271 197.604 4.57812 197.109 4.57812C196.781 4.57812 196.479 4.64844 196.203 4.78906C195.927 4.92448 195.69 5.1276 195.492 5.39844C195.294 5.66927 195.141 6 195.031 6.39062C194.922 6.78125 194.867 7.23177 194.867 7.74219V8.07031C194.867 8.47135 194.922 8.84896 195.031 9.20312C195.146 9.55208 195.31 9.85938 195.523 10.125C195.742 10.3906 196.005 10.599 196.312 10.75C196.625 10.901 196.979 10.9766 197.375 10.9766C197.885 10.9766 198.318 10.8724 198.672 10.6641C199.026 10.4557 199.336 10.1771 199.602 9.82812L200.477 10.5234C200.294 10.7995 200.062 11.0625 199.781 11.3125C199.5 11.5625 199.154 11.7656 198.742 11.9219C198.336 12.0781 197.854 12.1562 197.297 12.1562ZM207.195 9.75781C207.195 9.54948 207.148 9.35677 207.055 9.17969C206.966 8.9974 206.781 8.83333 206.5 8.6875C206.224 8.53646 205.807 8.40625 205.25 8.29688C204.781 8.19792 204.357 8.08073 203.977 7.94531C203.602 7.8099 203.281 7.64583 203.016 7.45312C202.755 7.26042 202.555 7.03385 202.414 6.77344C202.273 6.51302 202.203 6.20833 202.203 5.85938C202.203 5.52604 202.276 5.21094 202.422 4.91406C202.573 4.61719 202.784 4.35417 203.055 4.125C203.331 3.89583 203.661 3.71615 204.047 3.58594C204.432 3.45573 204.862 3.39062 205.336 3.39062C206.013 3.39062 206.591 3.51042 207.07 3.75C207.549 3.98958 207.917 4.3099 208.172 4.71094C208.427 5.10677 208.555 5.54688 208.555 6.03125H207.109C207.109 5.79688 207.039 5.57031 206.898 5.35156C206.763 5.1276 206.562 4.94271 206.297 4.79688C206.036 4.65104 205.716 4.57812 205.336 4.57812C204.935 4.57812 204.609 4.64062 204.359 4.76562C204.115 4.88542 203.935 5.03906 203.82 5.22656C203.711 5.41406 203.656 5.61198 203.656 5.82031C203.656 5.97656 203.682 6.11719 203.734 6.24219C203.792 6.36198 203.891 6.47396 204.031 6.57812C204.172 6.67708 204.37 6.77083 204.625 6.85938C204.88 6.94792 205.206 7.03646 205.602 7.125C206.294 7.28125 206.865 7.46875 207.312 7.6875C207.76 7.90625 208.094 8.17448 208.312 8.49219C208.531 8.8099 208.641 9.19531 208.641 9.64844C208.641 10.0182 208.562 10.3568 208.406 10.6641C208.255 10.9714 208.034 11.237 207.742 11.4609C207.456 11.6797 207.112 11.8516 206.711 11.9766C206.315 12.0964 205.87 12.1562 205.375 12.1562C204.63 12.1562 204 12.0234 203.484 11.7578C202.969 11.4922 202.578 11.1484 202.312 10.7266C202.047 10.3047 201.914 9.85938 201.914 9.39062H203.367C203.388 9.78646 203.503 10.1016 203.711 10.3359C203.919 10.5651 204.174 10.7292 204.477 10.8281C204.779 10.9219 205.078 10.9688 205.375 10.9688C205.771 10.9688 206.102 10.9167 206.367 10.8125C206.638 10.7083 206.844 10.5651 206.984 10.3828C207.125 10.2005 207.195 9.99219 207.195 9.75781Z" fill="#FF6600"/>
</svg>
