<svg width="39" height="13" viewBox="0 0 39 13" fill="none" xmlns="http://www.w3.org/2000/svg">
<path d="M9.46875 0.625V12H7.95312L2.22656 3.22656V12H0.71875V0.625H2.22656L7.97656 9.42188V0.625H9.46875ZM15.4297 12.1562C14.8411 12.1562 14.3073 12.0573 13.8281 11.8594C13.3542 11.6562 12.9453 11.3724 12.6016 11.0078C12.263 10.6432 12.0026 10.2109 11.8203 9.71094C11.638 9.21094 11.5469 8.66406 11.5469 8.07031V7.74219C11.5469 7.05469 11.6484 6.44271 11.8516 5.90625C12.0547 5.36458 12.3307 4.90625 12.6797 4.53125C13.0286 4.15625 13.4245 3.8724 13.8672 3.67969C14.3099 3.48698 14.7682 3.39062 15.2422 3.39062C15.8464 3.39062 16.3672 3.49479 16.8047 3.70312C17.2474 3.91146 17.6094 4.20312 17.8906 4.57812C18.1719 4.94792 18.3802 5.38542 18.5156 5.89062C18.651 6.39062 18.7188 6.9375 18.7188 7.53125V8.17969H12.4062V7H17.2734V6.89062C17.2526 6.51562 17.1745 6.15104 17.0391 5.79688C16.9089 5.44271 16.7005 5.15104 16.4141 4.92188C16.1276 4.69271 15.737 4.57812 15.2422 4.57812C14.9141 4.57812 14.612 4.64844 14.3359 4.78906C14.0599 4.92448 13.8229 5.1276 13.625 5.39844C13.4271 5.66927 13.2734 6 13.1641 6.39062C13.0547 6.78125 13 7.23177 13 7.74219V8.07031C13 8.47135 13.0547 8.84896 13.1641 9.20312C13.2786 9.55208 13.4427 9.85938 13.6562 10.125C13.875 10.3906 14.138 10.599 14.4453 10.75C14.7578 10.901 15.112 10.9766 15.5078 10.9766C16.0182 10.9766 16.4505 10.8724 16.8047 10.6641C17.1589 10.4557 17.4688 10.1771 17.7344 9.82812L18.6094 10.5234C18.4271 10.7995 18.1953 11.0625 17.9141 11.3125C17.6328 11.5625 17.2865 11.7656 16.875 11.9219C16.4688 12.0781 15.987 12.1562 15.4297 12.1562ZM22.5469 10.5L24.7188 3.54688H25.6719L25.4844 4.92969L23.2734 12H22.3438L22.5469 10.5ZM21.0859 3.54688L22.9375 10.5781L23.0703 12H22.0938L19.6406 3.54688H21.0859ZM27.75 10.5234L29.5156 3.54688H30.9531L28.5 12H27.5312L27.75 10.5234ZM25.8828 3.54688L28.0078 10.3828L28.25 12H27.3281L25.0547 4.91406L24.8672 3.54688H25.8828ZM37.3594 9.75781C37.3594 9.54948 37.3125 9.35677 37.2188 9.17969C37.1302 8.9974 36.9453 8.83333 36.6641 8.6875C36.388 8.53646 35.9714 8.40625 35.4141 8.29688C34.9453 8.19792 34.5208 8.08073 34.1406 7.94531C33.7656 7.8099 33.4453 7.64583 33.1797 7.45312C32.9193 7.26042 32.7188 7.03385 32.5781 6.77344C32.4375 6.51302 32.3672 6.20833 32.3672 5.85938C32.3672 5.52604 32.4401 5.21094 32.5859 4.91406C32.737 4.61719 32.9479 4.35417 33.2188 4.125C33.4948 3.89583 33.8255 3.71615 34.2109 3.58594C34.5964 3.45573 35.026 3.39062 35.5 3.39062C36.1771 3.39062 36.7552 3.51042 37.2344 3.75C37.7135 3.98958 38.0807 4.3099 38.3359 4.71094C38.5911 5.10677 38.7188 5.54688 38.7188 6.03125H37.2734C37.2734 5.79688 37.2031 5.57031 37.0625 5.35156C36.9271 5.1276 36.7266 4.94271 36.4609 4.79688C36.2005 4.65104 35.8802 4.57812 35.5 4.57812C35.099 4.57812 34.7734 4.64062 34.5234 4.76562C34.2786 4.88542 34.099 5.03906 33.9844 5.22656C33.875 5.41406 33.8203 5.61198 33.8203 5.82031C33.8203 5.97656 33.8464 6.11719 33.8984 6.24219C33.9557 6.36198 34.0547 6.47396 34.1953 6.57812C34.3359 6.67708 34.5339 6.77083 34.7891 6.85938C35.0443 6.94792 35.3698 7.03646 35.7656 7.125C36.4583 7.28125 37.0286 7.46875 37.4766 7.6875C37.9245 7.90625 38.2578 8.17448 38.4766 8.49219C38.6953 8.8099 38.8047 9.19531 38.8047 9.64844C38.8047 10.0182 38.7266 10.3568 38.5703 10.6641C38.4193 10.9714 38.1979 11.237 37.9062 11.4609C37.6198 11.6797 37.276 11.8516 36.875 11.9766C36.4792 12.0964 36.0339 12.1562 35.5391 12.1562C34.7943 12.1562 34.1641 12.0234 33.6484 11.7578C33.1328 11.4922 32.7422 11.1484 32.4766 10.7266C32.2109 10.3047 32.0781 9.85938 32.0781 9.39062H33.5312C33.5521 9.78646 33.6667 10.1016 33.875 10.3359C34.0833 10.5651 34.3385 10.7292 34.6406 10.8281C34.9427 10.9219 35.2422 10.9688 35.5391 10.9688C35.9349 10.9688 36.2656 10.9167 36.5312 10.8125C36.8021 10.7083 37.0078 10.5651 37.1484 10.3828C37.2891 10.2005 37.3594 9.99219 37.3594 9.75781Z" fill="#FF6600"/>
</svg>
