<svg width="87" height="16" viewBox="0 0 87 16" fill="none" xmlns="http://www.w3.org/2000/svg">
<path d="M9.57812 5.95312V6.67188C9.57812 7.52604 9.47135 8.29167 9.25781 8.96875C9.04427 9.64583 8.73698 10.2214 8.33594 10.6953C7.9349 11.1693 7.45312 11.5312 6.89062 11.7812C6.33333 12.0312 5.70833 12.1562 5.01562 12.1562C4.34375 12.1562 3.72656 12.0312 3.16406 11.7812C2.60677 11.5312 2.1224 11.1693 1.71094 10.6953C1.30469 10.2214 0.989583 9.64583 0.765625 8.96875C0.541667 8.29167 0.429688 7.52604 0.429688 6.67188V5.95312C0.429688 5.09896 0.539062 4.33594 0.757812 3.66406C0.981771 2.98698 1.29688 2.41146 1.70312 1.9375C2.10938 1.45833 2.59115 1.09375 3.14844 0.84375C3.71094 0.59375 4.32812 0.46875 5 0.46875C5.69271 0.46875 6.31771 0.59375 6.875 0.84375C7.4375 1.09375 7.91927 1.45833 8.32031 1.9375C8.72656 2.41146 9.03646 2.98698 9.25 3.66406C9.46875 4.33594 9.57812 5.09896 9.57812 5.95312ZM8.08594 6.67188V5.9375C8.08594 5.26042 8.01562 4.66146 7.875 4.14062C7.73958 3.61979 7.53906 3.18229 7.27344 2.82812C7.00781 2.47396 6.68229 2.20573 6.29688 2.02344C5.91667 1.84115 5.48438 1.75 5 1.75C4.53125 1.75 4.10677 1.84115 3.72656 2.02344C3.35156 2.20573 3.02865 2.47396 2.75781 2.82812C2.49219 3.18229 2.28646 3.61979 2.14062 4.14062C1.99479 4.66146 1.92188 5.26042 1.92188 5.9375V6.67188C1.92188 7.35417 1.99479 7.95833 2.14062 8.48438C2.28646 9.00521 2.49479 9.44531 2.76562 9.80469C3.04167 10.1589 3.36719 10.4271 3.74219 10.6094C4.1224 10.7917 4.54688 10.8828 5.01562 10.8828C5.50521 10.8828 5.9401 10.7917 6.32031 10.6094C6.70052 10.4271 7.02083 10.1589 7.28125 9.80469C7.54688 9.44531 7.7474 9.00521 7.88281 8.48438C8.01823 7.95833 8.08594 7.35417 8.08594 6.67188ZM16.7891 10.0469V3.54688H18.2422V12H16.8594L16.7891 10.0469ZM17.0625 8.26562L17.6641 8.25C17.6641 8.8125 17.6042 9.33333 17.4844 9.8125C17.3698 10.2865 17.1823 10.6979 16.9219 11.0469C16.6615 11.3958 16.3203 11.6693 15.8984 11.8672C15.4766 12.0599 14.9635 12.1562 14.3594 12.1562C13.9479 12.1562 13.5703 12.0964 13.2266 11.9766C12.888 11.8568 12.5964 11.6719 12.3516 11.4219C12.1068 11.1719 11.9167 10.8464 11.7812 10.4453C11.651 10.0443 11.5859 9.5625 11.5859 9V3.54688H13.0312V9.01562C13.0312 9.39583 13.0729 9.71094 13.1562 9.96094C13.2448 10.2057 13.362 10.401 13.5078 10.5469C13.6589 10.6875 13.8255 10.7865 14.0078 10.8438C14.1953 10.901 14.388 10.9297 14.5859 10.9297C15.2005 10.9297 15.6875 10.8125 16.0469 10.5781C16.4062 10.3385 16.6641 10.0182 16.8203 9.61719C16.9818 9.21094 17.0625 8.76042 17.0625 8.26562ZM21.8906 4.875V12H20.4453V3.54688H21.8516L21.8906 4.875ZM24.5312 3.5L24.5234 4.84375C24.4036 4.81771 24.2891 4.80208 24.1797 4.79688C24.0755 4.78646 23.9557 4.78125 23.8203 4.78125C23.487 4.78125 23.1927 4.83333 22.9375 4.9375C22.6823 5.04167 22.4661 5.1875 22.2891 5.375C22.112 5.5625 21.9714 5.78646 21.8672 6.04688C21.7682 6.30208 21.7031 6.58333 21.6719 6.89062L21.2656 7.125C21.2656 6.61458 21.3151 6.13542 21.4141 5.6875C21.5182 5.23958 21.6771 4.84375 21.8906 4.5C22.1042 4.15104 22.375 3.88021 22.7031 3.6875C23.0365 3.48958 23.4323 3.39062 23.8906 3.39062C23.9948 3.39062 24.1146 3.40365 24.25 3.42969C24.3854 3.45052 24.4792 3.47396 24.5312 3.5ZM34.25 7.53906H31.2109V6.3125H34.25C34.8385 6.3125 35.3151 6.21875 35.6797 6.03125C36.0443 5.84375 36.3099 5.58333 36.4766 5.25C36.6484 4.91667 36.7344 4.53646 36.7344 4.10938C36.7344 3.71875 36.6484 3.35156 36.4766 3.00781C36.3099 2.66406 36.0443 2.38802 35.6797 2.17969C35.3151 1.96615 34.8385 1.85938 34.25 1.85938H31.5625V12H30.0547V0.625H34.25C35.1094 0.625 35.8359 0.773438 36.4297 1.07031C37.0234 1.36719 37.474 1.77865 37.7812 2.30469C38.0885 2.82552 38.2422 3.42188 38.2422 4.09375C38.2422 4.82292 38.0885 5.44531 37.7812 5.96094C37.474 6.47656 37.0234 6.86979 36.4297 7.14062C35.8359 7.40625 35.1094 7.53906 34.25 7.53906ZM41.375 4.875V12H39.9297V3.54688H41.3359L41.375 4.875ZM44.0156 3.5L44.0078 4.84375C43.888 4.81771 43.7734 4.80208 43.6641 4.79688C43.5599 4.78646 43.4401 4.78125 43.3047 4.78125C42.9714 4.78125 42.6771 4.83333 42.4219 4.9375C42.1667 5.04167 41.9505 5.1875 41.7734 5.375C41.5964 5.5625 41.4557 5.78646 41.3516 6.04688C41.2526 6.30208 41.1875 6.58333 41.1562 6.89062L40.75 7.125C40.75 6.61458 40.7995 6.13542 40.8984 5.6875C41.0026 5.23958 41.1615 4.84375 41.375 4.5C41.5885 4.15104 41.8594 3.88021 42.1875 3.6875C42.5208 3.48958 42.9167 3.39062 43.375 3.39062C43.4792 3.39062 43.599 3.40365 43.7344 3.42969C43.8698 3.45052 43.9635 3.47396 44.0156 3.5ZM44.8125 7.86719V7.6875C44.8125 7.07812 44.901 6.51302 45.0781 5.99219C45.2552 5.46615 45.5104 5.01042 45.8438 4.625C46.1771 4.23438 46.5807 3.93229 47.0547 3.71875C47.5286 3.5 48.0599 3.39062 48.6484 3.39062C49.2422 3.39062 49.776 3.5 50.25 3.71875C50.7292 3.93229 51.1354 4.23438 51.4688 4.625C51.8073 5.01042 52.0651 5.46615 52.2422 5.99219C52.4193 6.51302 52.5078 7.07812 52.5078 7.6875V7.86719C52.5078 8.47656 52.4193 9.04167 52.2422 9.5625C52.0651 10.0833 51.8073 10.5391 51.4688 10.9297C51.1354 11.3151 50.7318 11.6172 50.2578 11.8359C49.7891 12.0495 49.2578 12.1562 48.6641 12.1562C48.0703 12.1562 47.5365 12.0495 47.0625 11.8359C46.5885 11.6172 46.1823 11.3151 45.8438 10.9297C45.5104 10.5391 45.2552 10.0833 45.0781 9.5625C44.901 9.04167 44.8125 8.47656 44.8125 7.86719ZM46.2578 7.6875V7.86719C46.2578 8.28906 46.3073 8.6875 46.4062 9.0625C46.5052 9.43229 46.6536 9.76042 46.8516 10.0469C47.0547 10.3333 47.3073 10.5599 47.6094 10.7266C47.9115 10.888 48.263 10.9688 48.6641 10.9688C49.0599 10.9688 49.4062 10.888 49.7031 10.7266C50.0052 10.5599 50.2552 10.3333 50.4531 10.0469C50.651 9.76042 50.7995 9.43229 50.8984 9.0625C51.0026 8.6875 51.0547 8.28906 51.0547 7.86719V7.6875C51.0547 7.27083 51.0026 6.8776 50.8984 6.50781C50.7995 6.13281 50.6484 5.80208 50.4453 5.51562C50.2474 5.22396 49.9974 4.99479 49.6953 4.82812C49.3984 4.66146 49.0495 4.57812 48.6484 4.57812C48.2526 4.57812 47.9036 4.66146 47.6016 4.82812C47.3047 4.99479 47.0547 5.22396 46.8516 5.51562C46.6536 5.80208 46.5052 6.13281 46.4062 6.50781C46.3073 6.8776 46.2578 7.27083 46.2578 7.6875ZM54.3594 3.54688H55.8125V13.0078C55.8125 13.5234 55.7292 13.9609 55.5625 14.3203C55.401 14.6797 55.1562 14.9505 54.8281 15.1328C54.5052 15.3203 54.0964 15.4141 53.6016 15.4141C53.4714 15.4141 53.3203 15.401 53.1484 15.375C52.9714 15.349 52.8229 15.3177 52.7031 15.2812L52.7109 14.1172C52.8099 14.138 52.9219 14.1536 53.0469 14.1641C53.1719 14.1797 53.2812 14.1875 53.375 14.1875C53.5885 14.1875 53.7682 14.1484 53.9141 14.0703C54.0599 13.9922 54.1693 13.8672 54.2422 13.6953C54.3203 13.5234 54.3594 13.2943 54.3594 13.0078V3.54688ZM54.2109 1.30469C54.2109 1.07031 54.2839 0.872396 54.4297 0.710938C54.5755 0.549479 54.7865 0.46875 55.0625 0.46875C55.3438 0.46875 55.5573 0.549479 55.7031 0.710938C55.849 0.872396 55.9219 1.07031 55.9219 1.30469C55.9219 1.52865 55.849 1.72135 55.7031 1.88281C55.5573 2.03906 55.3438 2.11719 55.0625 2.11719C54.7865 2.11719 54.5755 2.03906 54.4297 1.88281C54.2839 1.72135 54.2109 1.52865 54.2109 1.30469ZM61.6562 12.1562C61.0677 12.1562 60.5339 12.0573 60.0547 11.8594C59.5807 11.6562 59.1719 11.3724 58.8281 11.0078C58.4896 10.6432 58.2292 10.2109 58.0469 9.71094C57.8646 9.21094 57.7734 8.66406 57.7734 8.07031V7.74219C57.7734 7.05469 57.875 6.44271 58.0781 5.90625C58.2812 5.36458 58.5573 4.90625 58.9062 4.53125C59.2552 4.15625 59.651 3.8724 60.0938 3.67969C60.5365 3.48698 60.9948 3.39062 61.4688 3.39062C62.0729 3.39062 62.5938 3.49479 63.0312 3.70312C63.474 3.91146 63.8359 4.20312 64.1172 4.57812C64.3984 4.94792 64.6068 5.38542 64.7422 5.89062C64.8776 6.39062 64.9453 6.9375 64.9453 7.53125V8.17969H58.6328V7H63.5V6.89062C63.4792 6.51562 63.401 6.15104 63.2656 5.79688C63.1354 5.44271 62.9271 5.15104 62.6406 4.92188C62.3542 4.69271 61.9635 4.57812 61.4688 4.57812C61.1406 4.57812 60.8385 4.64844 60.5625 4.78906C60.2865 4.92448 60.0495 5.1276 59.8516 5.39844C59.6536 5.66927 59.5 6 59.3906 6.39062C59.2812 6.78125 59.2266 7.23177 59.2266 7.74219V8.07031C59.2266 8.47135 59.2812 8.84896 59.3906 9.20312C59.5052 9.55208 59.6693 9.85938 59.8828 10.125C60.1016 10.3906 60.3646 10.599 60.6719 10.75C60.9844 10.901 61.3385 10.9766 61.7344 10.9766C62.2448 10.9766 62.6771 10.8724 63.0312 10.6641C63.3854 10.4557 63.6953 10.1771 63.9609 9.82812L64.8359 10.5234C64.6536 10.7995 64.4219 11.0625 64.1406 11.3125C63.8594 11.5625 63.513 11.7656 63.1016 11.9219C62.6953 12.0781 62.2135 12.1562 61.6562 12.1562ZM70.0156 10.9688C70.3594 10.9688 70.6771 10.8984 70.9688 10.7578C71.2604 10.6172 71.5 10.4245 71.6875 10.1797C71.875 9.92969 71.9818 9.64583 72.0078 9.32812H73.3828C73.3568 9.82812 73.1875 10.2943 72.875 10.7266C72.5677 11.1536 72.1641 11.5 71.6641 11.7656C71.1641 12.026 70.6146 12.1562 70.0156 12.1562C69.3802 12.1562 68.8255 12.0443 68.3516 11.8203C67.8828 11.5964 67.4922 11.2891 67.1797 10.8984C66.8724 10.5078 66.6406 10.0599 66.4844 9.55469C66.3333 9.04427 66.2578 8.50521 66.2578 7.9375V7.60938C66.2578 7.04167 66.3333 6.50521 66.4844 6C66.6406 5.48958 66.8724 5.03906 67.1797 4.64844C67.4922 4.25781 67.8828 3.95052 68.3516 3.72656C68.8255 3.5026 69.3802 3.39062 70.0156 3.39062C70.6771 3.39062 71.2552 3.52604 71.75 3.79688C72.2448 4.0625 72.6328 4.42708 72.9141 4.89062C73.2005 5.34896 73.3568 5.86979 73.3828 6.45312H72.0078C71.9818 6.10417 71.8828 5.78906 71.7109 5.50781C71.5443 5.22656 71.3151 5.0026 71.0234 4.83594C70.737 4.66406 70.401 4.57812 70.0156 4.57812C69.5729 4.57812 69.2005 4.66667 68.8984 4.84375C68.6016 5.01562 68.3646 5.25 68.1875 5.54688C68.0156 5.83854 67.8906 6.16406 67.8125 6.52344C67.7396 6.8776 67.7031 7.23958 67.7031 7.60938V7.9375C67.7031 8.30729 67.7396 8.67188 67.8125 9.03125C67.8854 9.39062 68.0078 9.71615 68.1797 10.0078C68.3568 10.2995 68.5938 10.5339 68.8906 10.7109C69.1927 10.8828 69.5677 10.9688 70.0156 10.9688ZM78.5469 3.54688V4.65625H73.9766V3.54688H78.5469ZM75.5234 1.49219H76.9688V9.90625C76.9688 10.1927 77.013 10.4089 77.1016 10.5547C77.1901 10.7005 77.3047 10.7969 77.4453 10.8438C77.5859 10.8906 77.737 10.9141 77.8984 10.9141C78.0182 10.9141 78.1432 10.9036 78.2734 10.8828C78.4089 10.8568 78.5104 10.8359 78.5781 10.8203L78.5859 12C78.4714 12.0365 78.3203 12.0703 78.1328 12.1016C77.9505 12.138 77.7292 12.1562 77.4688 12.1562C77.1146 12.1562 76.7891 12.0859 76.4922 11.9453C76.1953 11.8047 75.9583 11.5703 75.7812 11.2422C75.6094 10.9089 75.5234 10.4609 75.5234 9.89844V1.49219ZM85.1641 9.75781C85.1641 9.54948 85.1172 9.35677 85.0234 9.17969C84.9349 8.9974 84.75 8.83333 84.4688 8.6875C84.1927 8.53646 83.776 8.40625 83.2188 8.29688C82.75 8.19792 82.3255 8.08073 81.9453 7.94531C81.5703 7.8099 81.25 7.64583 80.9844 7.45312C80.724 7.26042 80.5234 7.03385 80.3828 6.77344C80.2422 6.51302 80.1719 6.20833 80.1719 5.85938C80.1719 5.52604 80.2448 5.21094 80.3906 4.91406C80.5417 4.61719 80.7526 4.35417 81.0234 4.125C81.2995 3.89583 81.6302 3.71615 82.0156 3.58594C82.401 3.45573 82.8307 3.39062 83.3047 3.39062C83.9818 3.39062 84.5599 3.51042 85.0391 3.75C85.5182 3.98958 85.8854 4.3099 86.1406 4.71094C86.3958 5.10677 86.5234 5.54688 86.5234 6.03125H85.0781C85.0781 5.79688 85.0078 5.57031 84.8672 5.35156C84.7318 5.1276 84.5312 4.94271 84.2656 4.79688C84.0052 4.65104 83.6849 4.57812 83.3047 4.57812C82.9036 4.57812 82.5781 4.64062 82.3281 4.76562C82.0833 4.88542 81.9036 5.03906 81.7891 5.22656C81.6797 5.41406 81.625 5.61198 81.625 5.82031C81.625 5.97656 81.651 6.11719 81.7031 6.24219C81.7604 6.36198 81.8594 6.47396 82 6.57812C82.1406 6.67708 82.3385 6.77083 82.5938 6.85938C82.849 6.94792 83.1745 7.03646 83.5703 7.125C84.263 7.28125 84.8333 7.46875 85.2812 7.6875C85.7292 7.90625 86.0625 8.17448 86.2812 8.49219C86.5 8.8099 86.6094 9.19531 86.6094 9.64844C86.6094 10.0182 86.5312 10.3568 86.375 10.6641C86.224 10.9714 86.0026 11.237 85.7109 11.4609C85.4245 11.6797 85.0807 11.8516 84.6797 11.9766C84.2839 12.0964 83.8385 12.1562 83.3438 12.1562C82.599 12.1562 81.9688 12.0234 81.4531 11.7578C80.9375 11.4922 80.5469 11.1484 80.2812 10.7266C80.0156 10.3047 79.8828 9.85938 79.8828 9.39062H81.3359C81.3568 9.78646 81.4714 10.1016 81.6797 10.3359C81.888 10.5651 82.1432 10.7292 82.4453 10.8281C82.7474 10.9219 83.0469 10.9688 83.3438 10.9688C83.7396 10.9688 84.0703 10.9167 84.3359 10.8125C84.6068 10.7083 84.8125 10.5651 84.9531 10.3828C85.0938 10.2005 85.1641 9.99219 85.1641 9.75781Z" fill="#FF6600"/>
</svg>
