<svg width="89" height="13" viewBox="0 0 89 13" fill="none" xmlns="http://www.w3.org/2000/svg">
<path d="M9.57812 5.95312V6.67188C9.57812 7.52604 9.47135 8.29167 9.25781 8.96875C9.04427 9.64583 8.73698 10.2214 8.33594 10.6953C7.9349 11.1693 7.45312 11.5312 6.89062 11.7812C6.33333 12.0312 5.70833 12.1562 5.01562 12.1562C4.34375 12.1562 3.72656 12.0312 3.16406 11.7812C2.60677 11.5312 2.1224 11.1693 1.71094 10.6953C1.30469 10.2214 0.989583 9.64583 0.765625 8.96875C0.541667 8.29167 0.429688 7.52604 0.429688 6.67188V5.95312C0.429688 5.09896 0.539062 4.33594 0.757812 3.66406C0.981771 2.98698 1.29688 2.41146 1.70312 1.9375C2.10938 1.45833 2.59115 1.09375 3.14844 0.84375C3.71094 0.59375 4.32812 0.46875 5 0.46875C5.69271 0.46875 6.31771 0.59375 6.875 0.84375C7.4375 1.09375 7.91927 1.45833 8.32031 1.9375C8.72656 2.41146 9.03646 2.98698 9.25 3.66406C9.46875 4.33594 9.57812 5.09896 9.57812 5.95312ZM8.08594 6.67188V5.9375C8.08594 5.26042 8.01562 4.66146 7.875 4.14062C7.73958 3.61979 7.53906 3.18229 7.27344 2.82812C7.00781 2.47396 6.68229 2.20573 6.29688 2.02344C5.91667 1.84115 5.48438 1.75 5 1.75C4.53125 1.75 4.10677 1.84115 3.72656 2.02344C3.35156 2.20573 3.02865 2.47396 2.75781 2.82812C2.49219 3.18229 2.28646 3.61979 2.14062 4.14062C1.99479 4.66146 1.92188 5.26042 1.92188 5.9375V6.67188C1.92188 7.35417 1.99479 7.95833 2.14062 8.48438C2.28646 9.00521 2.49479 9.44531 2.76562 9.80469C3.04167 10.1589 3.36719 10.4271 3.74219 10.6094C4.1224 10.7917 4.54688 10.8828 5.01562 10.8828C5.50521 10.8828 5.9401 10.7917 6.32031 10.6094C6.70052 10.4271 7.02083 10.1589 7.28125 9.80469C7.54688 9.44531 7.7474 9.00521 7.88281 8.48438C8.01823 7.95833 8.08594 7.35417 8.08594 6.67188ZM16.7891 10.0469V3.54688H18.2422V12H16.8594L16.7891 10.0469ZM17.0625 8.26562L17.6641 8.25C17.6641 8.8125 17.6042 9.33333 17.4844 9.8125C17.3698 10.2865 17.1823 10.6979 16.9219 11.0469C16.6615 11.3958 16.3203 11.6693 15.8984 11.8672C15.4766 12.0599 14.9635 12.1562 14.3594 12.1562C13.9479 12.1562 13.5703 12.0964 13.2266 11.9766C12.888 11.8568 12.5964 11.6719 12.3516 11.4219C12.1068 11.1719 11.9167 10.8464 11.7812 10.4453C11.651 10.0443 11.5859 9.5625 11.5859 9V3.54688H13.0312V9.01562C13.0312 9.39583 13.0729 9.71094 13.1562 9.96094C13.2448 10.2057 13.362 10.401 13.5078 10.5469C13.6589 10.6875 13.8255 10.7865 14.0078 10.8438C14.1953 10.901 14.388 10.9297 14.5859 10.9297C15.2005 10.9297 15.6875 10.8125 16.0469 10.5781C16.4062 10.3385 16.6641 10.0182 16.8203 9.61719C16.9818 9.21094 17.0625 8.76042 17.0625 8.26562ZM21.8906 4.875V12H20.4453V3.54688H21.8516L21.8906 4.875ZM24.5312 3.5L24.5234 4.84375C24.4036 4.81771 24.2891 4.80208 24.1797 4.79688C24.0755 4.78646 23.9557 4.78125 23.8203 4.78125C23.487 4.78125 23.1927 4.83333 22.9375 4.9375C22.6823 5.04167 22.4661 5.1875 22.2891 5.375C22.112 5.5625 21.9714 5.78646 21.8672 6.04688C21.7682 6.30208 21.7031 6.58333 21.6719 6.89062L21.2656 7.125C21.2656 6.61458 21.3151 6.13542 21.4141 5.6875C21.5182 5.23958 21.6771 4.84375 21.8906 4.5C22.1042 4.15104 22.375 3.88021 22.7031 3.6875C23.0365 3.48958 23.4323 3.39062 23.8906 3.39062C23.9948 3.39062 24.1146 3.40365 24.25 3.42969C24.3854 3.45052 24.4792 3.47396 24.5312 3.5ZM36.1172 9.125C36.1172 8.85938 36.0755 8.625 35.9922 8.42188C35.9141 8.21354 35.7734 8.02604 35.5703 7.85938C35.3724 7.69271 35.0964 7.53385 34.7422 7.38281C34.3932 7.23177 33.9505 7.07812 33.4141 6.92188C32.8516 6.75521 32.3438 6.57031 31.8906 6.36719C31.4375 6.15885 31.0495 5.92188 30.7266 5.65625C30.4036 5.39062 30.1562 5.08594 29.9844 4.74219C29.8125 4.39844 29.7266 4.00521 29.7266 3.5625C29.7266 3.11979 29.8177 2.71094 30 2.33594C30.1823 1.96094 30.4427 1.63542 30.7812 1.35938C31.125 1.07812 31.5339 0.859375 32.0078 0.703125C32.4818 0.546875 33.0104 0.46875 33.5938 0.46875C34.4479 0.46875 35.1719 0.632812 35.7656 0.960938C36.3646 1.28385 36.8203 1.70833 37.1328 2.23438C37.4453 2.75521 37.6016 3.3125 37.6016 3.90625H36.1016C36.1016 3.47917 36.0104 3.10156 35.8281 2.77344C35.6458 2.4401 35.3698 2.17969 35 1.99219C34.6302 1.79948 34.1615 1.70312 33.5938 1.70312C33.0573 1.70312 32.6146 1.78385 32.2656 1.94531C31.9167 2.10677 31.6562 2.32552 31.4844 2.60156C31.3177 2.8776 31.2344 3.19271 31.2344 3.54688C31.2344 3.78646 31.2839 4.00521 31.3828 4.20312C31.487 4.39583 31.6458 4.57552 31.8594 4.74219C32.0781 4.90885 32.3542 5.0625 32.6875 5.20312C33.026 5.34375 33.4297 5.47917 33.8984 5.60938C34.5443 5.79167 35.1016 5.99479 35.5703 6.21875C36.0391 6.44271 36.4245 6.69531 36.7266 6.97656C37.0339 7.2526 37.2604 7.56771 37.4062 7.92188C37.5573 8.27083 37.6328 8.66667 37.6328 9.10938C37.6328 9.57292 37.5391 9.99219 37.3516 10.3672C37.1641 10.7422 36.8958 11.0625 36.5469 11.3281C36.1979 11.5938 35.7786 11.7995 35.2891 11.9453C34.8047 12.0859 34.263 12.1562 33.6641 12.1562C33.138 12.1562 32.6198 12.0833 32.1094 11.9375C31.6042 11.7917 31.1432 11.5729 30.7266 11.2812C30.3151 10.9896 29.9844 10.6302 29.7344 10.2031C29.4896 9.77083 29.3672 9.27083 29.3672 8.70312H30.8672C30.8672 9.09375 30.9427 9.42969 31.0938 9.71094C31.2448 9.98698 31.4505 10.2161 31.7109 10.3984C31.9766 10.5807 32.276 10.7161 32.6094 10.8047C32.9479 10.888 33.2995 10.9297 33.6641 10.9297C34.1901 10.9297 34.6354 10.8568 35 10.7109C35.3646 10.5651 35.6406 10.3568 35.8281 10.0859C36.0208 9.8151 36.1172 9.49479 36.1172 9.125ZM42.8438 12.1562C42.2552 12.1562 41.7214 12.0573 41.2422 11.8594C40.7682 11.6562 40.3594 11.3724 40.0156 11.0078C39.6771 10.6432 39.4167 10.2109 39.2344 9.71094C39.0521 9.21094 38.9609 8.66406 38.9609 8.07031V7.74219C38.9609 7.05469 39.0625 6.44271 39.2656 5.90625C39.4688 5.36458 39.7448 4.90625 40.0938 4.53125C40.4427 4.15625 40.8385 3.8724 41.2812 3.67969C41.724 3.48698 42.1823 3.39062 42.6562 3.39062C43.2604 3.39062 43.7812 3.49479 44.2188 3.70312C44.6615 3.91146 45.0234 4.20312 45.3047 4.57812C45.5859 4.94792 45.7943 5.38542 45.9297 5.89062C46.0651 6.39062 46.1328 6.9375 46.1328 7.53125V8.17969H39.8203V7H44.6875V6.89062C44.6667 6.51562 44.5885 6.15104 44.4531 5.79688C44.3229 5.44271 44.1146 5.15104 43.8281 4.92188C43.5417 4.69271 43.151 4.57812 42.6562 4.57812C42.3281 4.57812 42.026 4.64844 41.75 4.78906C41.474 4.92448 41.237 5.1276 41.0391 5.39844C40.8411 5.66927 40.6875 6 40.5781 6.39062C40.4688 6.78125 40.4141 7.23177 40.4141 7.74219V8.07031C40.4141 8.47135 40.4688 8.84896 40.5781 9.20312C40.6927 9.55208 40.8568 9.85938 41.0703 10.125C41.2891 10.3906 41.5521 10.599 41.8594 10.75C42.1719 10.901 42.526 10.9766 42.9219 10.9766C43.4323 10.9766 43.8646 10.8724 44.2188 10.6641C44.5729 10.4557 44.8828 10.1771 45.1484 9.82812L46.0234 10.5234C45.8411 10.7995 45.6094 11.0625 45.3281 11.3125C45.0469 11.5625 44.7005 11.7656 44.2891 11.9219C43.8828 12.0781 43.401 12.1562 42.8438 12.1562ZM49.2656 4.875V12H47.8203V3.54688H49.2266L49.2656 4.875ZM51.9062 3.5L51.8984 4.84375C51.7786 4.81771 51.6641 4.80208 51.5547 4.79688C51.4505 4.78646 51.3307 4.78125 51.1953 4.78125C50.862 4.78125 50.5677 4.83333 50.3125 4.9375C50.0573 5.04167 49.8411 5.1875 49.6641 5.375C49.487 5.5625 49.3464 5.78646 49.2422 6.04688C49.1432 6.30208 49.0781 6.58333 49.0469 6.89062L48.6406 7.125C48.6406 6.61458 48.6901 6.13542 48.7891 5.6875C48.8932 5.23958 49.0521 4.84375 49.2656 4.5C49.4792 4.15104 49.75 3.88021 50.0781 3.6875C50.4115 3.48958 50.8073 3.39062 51.2656 3.39062C51.3698 3.39062 51.4896 3.40365 51.625 3.42969C51.7604 3.45052 51.8542 3.47396 51.9062 3.5ZM55.9531 10.6953L58.2656 3.54688H59.7422L56.7031 12H55.7344L55.9531 10.6953ZM54.0234 3.54688L56.4062 10.7344L56.5703 12H55.6016L52.5391 3.54688H54.0234ZM62.7031 3.54688V12H61.25V3.54688H62.7031ZM61.1406 1.30469C61.1406 1.07031 61.2109 0.872396 61.3516 0.710938C61.4974 0.549479 61.7109 0.46875 61.9922 0.46875C62.2682 0.46875 62.4792 0.549479 62.625 0.710938C62.776 0.872396 62.8516 1.07031 62.8516 1.30469C62.8516 1.52865 62.776 1.72135 62.625 1.88281C62.4792 2.03906 62.2682 2.11719 61.9922 2.11719C61.7109 2.11719 61.4974 2.03906 61.3516 1.88281C61.2109 1.72135 61.1406 1.52865 61.1406 1.30469ZM68.4062 10.9688C68.75 10.9688 69.0677 10.8984 69.3594 10.7578C69.651 10.6172 69.8906 10.4245 70.0781 10.1797C70.2656 9.92969 70.3724 9.64583 70.3984 9.32812H71.7734C71.7474 9.82812 71.5781 10.2943 71.2656 10.7266C70.9583 11.1536 70.5547 11.5 70.0547 11.7656C69.5547 12.026 69.0052 12.1562 68.4062 12.1562C67.7708 12.1562 67.2161 12.0443 66.7422 11.8203C66.2734 11.5964 65.8828 11.2891 65.5703 10.8984C65.263 10.5078 65.0312 10.0599 64.875 9.55469C64.724 9.04427 64.6484 8.50521 64.6484 7.9375V7.60938C64.6484 7.04167 64.724 6.50521 64.875 6C65.0312 5.48958 65.263 5.03906 65.5703 4.64844C65.8828 4.25781 66.2734 3.95052 66.7422 3.72656C67.2161 3.5026 67.7708 3.39062 68.4062 3.39062C69.0677 3.39062 69.6458 3.52604 70.1406 3.79688C70.6354 4.0625 71.0234 4.42708 71.3047 4.89062C71.5911 5.34896 71.7474 5.86979 71.7734 6.45312H70.3984C70.3724 6.10417 70.2734 5.78906 70.1016 5.50781C69.9349 5.22656 69.7057 5.0026 69.4141 4.83594C69.1276 4.66406 68.7917 4.57812 68.4062 4.57812C67.9635 4.57812 67.5911 4.66667 67.2891 4.84375C66.9922 5.01562 66.7552 5.25 66.5781 5.54688C66.4062 5.83854 66.2812 6.16406 66.2031 6.52344C66.1302 6.8776 66.0938 7.23958 66.0938 7.60938V7.9375C66.0938 8.30729 66.1302 8.67188 66.2031 9.03125C66.276 9.39062 66.3984 9.71615 66.5703 10.0078C66.7474 10.2995 66.9844 10.5339 67.2812 10.7109C67.5833 10.8828 67.9583 10.9688 68.4062 10.9688ZM76.9062 12.1562C76.3177 12.1562 75.7839 12.0573 75.3047 11.8594C74.8307 11.6562 74.4219 11.3724 74.0781 11.0078C73.7396 10.6432 73.4792 10.2109 73.2969 9.71094C73.1146 9.21094 73.0234 8.66406 73.0234 8.07031V7.74219C73.0234 7.05469 73.125 6.44271 73.3281 5.90625C73.5312 5.36458 73.8073 4.90625 74.1562 4.53125C74.5052 4.15625 74.901 3.8724 75.3438 3.67969C75.7865 3.48698 76.2448 3.39062 76.7188 3.39062C77.3229 3.39062 77.8438 3.49479 78.2812 3.70312C78.724 3.91146 79.0859 4.20312 79.3672 4.57812C79.6484 4.94792 79.8568 5.38542 79.9922 5.89062C80.1276 6.39062 80.1953 6.9375 80.1953 7.53125V8.17969H73.8828V7H78.75V6.89062C78.7292 6.51562 78.651 6.15104 78.5156 5.79688C78.3854 5.44271 78.1771 5.15104 77.8906 4.92188C77.6042 4.69271 77.2135 4.57812 76.7188 4.57812C76.3906 4.57812 76.0885 4.64844 75.8125 4.78906C75.5365 4.92448 75.2995 5.1276 75.1016 5.39844C74.9036 5.66927 74.75 6 74.6406 6.39062C74.5312 6.78125 74.4766 7.23177 74.4766 7.74219V8.07031C74.4766 8.47135 74.5312 8.84896 74.6406 9.20312C74.7552 9.55208 74.9193 9.85938 75.1328 10.125C75.3516 10.3906 75.6146 10.599 75.9219 10.75C76.2344 10.901 76.5885 10.9766 76.9844 10.9766C77.4948 10.9766 77.9271 10.8724 78.2812 10.6641C78.6354 10.4557 78.9453 10.1771 79.2109 9.82812L80.0859 10.5234C79.9036 10.7995 79.6719 11.0625 79.3906 11.3125C79.1094 11.5625 78.763 11.7656 78.3516 11.9219C77.9453 12.0781 77.4635 12.1562 76.9062 12.1562ZM86.8047 9.75781C86.8047 9.54948 86.7578 9.35677 86.6641 9.17969C86.5755 8.9974 86.3906 8.83333 86.1094 8.6875C85.8333 8.53646 85.4167 8.40625 84.8594 8.29688C84.3906 8.19792 83.9661 8.08073 83.5859 7.94531C83.2109 7.8099 82.8906 7.64583 82.625 7.45312C82.3646 7.26042 82.1641 7.03385 82.0234 6.77344C81.8828 6.51302 81.8125 6.20833 81.8125 5.85938C81.8125 5.52604 81.8854 5.21094 82.0312 4.91406C82.1823 4.61719 82.3932 4.35417 82.6641 4.125C82.9401 3.89583 83.2708 3.71615 83.6562 3.58594C84.0417 3.45573 84.4714 3.39062 84.9453 3.39062C85.6224 3.39062 86.2005 3.51042 86.6797 3.75C87.1589 3.98958 87.526 4.3099 87.7812 4.71094C88.0365 5.10677 88.1641 5.54688 88.1641 6.03125H86.7188C86.7188 5.79688 86.6484 5.57031 86.5078 5.35156C86.3724 5.1276 86.1719 4.94271 85.9062 4.79688C85.6458 4.65104 85.3255 4.57812 84.9453 4.57812C84.5443 4.57812 84.2188 4.64062 83.9688 4.76562C83.724 4.88542 83.5443 5.03906 83.4297 5.22656C83.3203 5.41406 83.2656 5.61198 83.2656 5.82031C83.2656 5.97656 83.2917 6.11719 83.3438 6.24219C83.401 6.36198 83.5 6.47396 83.6406 6.57812C83.7812 6.67708 83.9792 6.77083 84.2344 6.85938C84.4896 6.94792 84.8151 7.03646 85.2109 7.125C85.9036 7.28125 86.474 7.46875 86.9219 7.6875C87.3698 7.90625 87.7031 8.17448 87.9219 8.49219C88.1406 8.8099 88.25 9.19531 88.25 9.64844C88.25 10.0182 88.1719 10.3568 88.0156 10.6641C87.8646 10.9714 87.6432 11.237 87.3516 11.4609C87.0651 11.6797 86.7214 11.8516 86.3203 11.9766C85.9245 12.0964 85.4792 12.1562 84.9844 12.1562C84.2396 12.1562 83.6094 12.0234 83.0938 11.7578C82.5781 11.4922 82.1875 11.1484 81.9219 10.7266C81.6562 10.3047 81.5234 9.85938 81.5234 9.39062H82.9766C82.9974 9.78646 83.112 10.1016 83.3203 10.3359C83.5286 10.5651 83.7839 10.7292 84.0859 10.8281C84.388 10.9219 84.6875 10.9688 84.9844 10.9688C85.3802 10.9688 85.7109 10.9167 85.9766 10.8125C86.2474 10.7083 86.4531 10.5651 86.5938 10.3828C86.7344 10.2005 86.8047 9.99219 86.8047 9.75781Z" fill="#FF6600"/>
</svg>
