<svg width="105" height="16" viewBox="0 0 105 16" fill="none" xmlns="http://www.w3.org/2000/svg">
<path d="M9.45312 5.95312V6.67188C9.45312 7.52604 9.34635 8.29167 9.13281 8.96875C8.91927 9.64583 8.61198 10.2214 8.21094 10.6953C7.8099 11.1693 7.32812 11.5312 6.76562 11.7812C6.20833 12.0312 5.58333 12.1562 4.89062 12.1562C4.21875 12.1562 3.60156 12.0312 3.03906 11.7812C2.48177 11.5312 1.9974 11.1693 1.58594 10.6953C1.17969 10.2214 0.864583 9.64583 0.640625 8.96875C0.416667 8.29167 0.304688 7.52604 0.304688 6.67188V5.95312C0.304688 5.09896 0.414062 4.33594 0.632812 3.66406C0.856771 2.98698 1.17188 2.41146 1.57812 1.9375C1.98438 1.45833 2.46615 1.09375 3.02344 0.84375C3.58594 0.59375 4.20312 0.46875 4.875 0.46875C5.56771 0.46875 6.19271 0.59375 6.75 0.84375C7.3125 1.09375 7.79427 1.45833 8.19531 1.9375C8.60156 2.41146 8.91146 2.98698 9.125 3.66406C9.34375 4.33594 9.45312 5.09896 9.45312 5.95312ZM7.96094 6.67188V5.9375C7.96094 5.26042 7.89062 4.66146 7.75 4.14062C7.61458 3.61979 7.41406 3.18229 7.14844 2.82812C6.88281 2.47396 6.55729 2.20573 6.17188 2.02344C5.79167 1.84115 5.35938 1.75 4.875 1.75C4.40625 1.75 3.98177 1.84115 3.60156 2.02344C3.22656 2.20573 2.90365 2.47396 2.63281 2.82812C2.36719 3.18229 2.16146 3.61979 2.01562 4.14062C1.86979 4.66146 1.79688 5.26042 1.79688 5.9375V6.67188C1.79688 7.35417 1.86979 7.95833 2.01562 8.48438C2.16146 9.00521 2.36979 9.44531 2.64062 9.80469C2.91667 10.1589 3.24219 10.4271 3.61719 10.6094C3.9974 10.7917 4.42188 10.8828 4.89062 10.8828C5.38021 10.8828 5.8151 10.7917 6.19531 10.6094C6.57552 10.4271 6.89583 10.1589 7.15625 9.80469C7.42188 9.44531 7.6224 9.00521 7.75781 8.48438C7.89323 7.95833 7.96094 7.35417 7.96094 6.67188ZM16.6641 10.0469V3.54688H18.1172V12H16.7344L16.6641 10.0469ZM16.9375 8.26562L17.5391 8.25C17.5391 8.8125 17.4792 9.33333 17.3594 9.8125C17.2448 10.2865 17.0573 10.6979 16.7969 11.0469C16.5365 11.3958 16.1953 11.6693 15.7734 11.8672C15.3516 12.0599 14.8385 12.1562 14.2344 12.1562C13.8229 12.1562 13.4453 12.0964 13.1016 11.9766C12.763 11.8568 12.4714 11.6719 12.2266 11.4219C11.9818 11.1719 11.7917 10.8464 11.6562 10.4453C11.526 10.0443 11.4609 9.5625 11.4609 9V3.54688H12.9062V9.01562C12.9062 9.39583 12.9479 9.71094 13.0312 9.96094C13.1198 10.2057 13.237 10.401 13.3828 10.5469C13.5339 10.6875 13.7005 10.7865 13.8828 10.8438C14.0703 10.901 14.263 10.9297 14.4609 10.9297C15.0755 10.9297 15.5625 10.8125 15.9219 10.5781C16.2812 10.3385 16.5391 10.0182 16.6953 9.61719C16.8568 9.21094 16.9375 8.76042 16.9375 8.26562ZM21.7656 4.875V12H20.3203V3.54688H21.7266L21.7656 4.875ZM24.4062 3.5L24.3984 4.84375C24.2786 4.81771 24.1641 4.80208 24.0547 4.79688C23.9505 4.78646 23.8307 4.78125 23.6953 4.78125C23.362 4.78125 23.0677 4.83333 22.8125 4.9375C22.5573 5.04167 22.3411 5.1875 22.1641 5.375C21.987 5.5625 21.8464 5.78646 21.7422 6.04688C21.6432 6.30208 21.5781 6.58333 21.5469 6.89062L21.1406 7.125C21.1406 6.61458 21.1901 6.13542 21.2891 5.6875C21.3932 5.23958 21.5521 4.84375 21.7656 4.5C21.9792 4.15104 22.25 3.88021 22.5781 3.6875C22.9115 3.48958 23.3073 3.39062 23.7656 3.39062C23.8698 3.39062 23.9896 3.40365 24.125 3.42969C24.2604 3.45052 24.3542 3.47396 24.4062 3.5ZM36.7969 8.38281H38.2969C38.2188 9.10156 38.013 9.74479 37.6797 10.3125C37.3464 10.8802 36.875 11.3307 36.2656 11.6641C35.6562 11.9922 34.8958 12.1562 33.9844 12.1562C33.3177 12.1562 32.7109 12.0312 32.1641 11.7812C31.6224 11.5312 31.1562 11.1771 30.7656 10.7188C30.375 10.2552 30.0729 9.70052 29.8594 9.05469C29.651 8.40365 29.5469 7.67969 29.5469 6.88281V5.75C29.5469 4.95312 29.651 4.23177 29.8594 3.58594C30.0729 2.9349 30.3776 2.3776 30.7734 1.91406C31.1745 1.45052 31.6562 1.09375 32.2188 0.84375C32.7812 0.59375 33.4141 0.46875 34.1172 0.46875C34.9766 0.46875 35.7031 0.630208 36.2969 0.953125C36.8906 1.27604 37.3516 1.72396 37.6797 2.29688C38.013 2.86458 38.2188 3.52344 38.2969 4.27344H36.7969C36.724 3.74219 36.5885 3.28646 36.3906 2.90625C36.1927 2.52083 35.9115 2.22396 35.5469 2.01562C35.1823 1.80729 34.7057 1.70312 34.1172 1.70312C33.612 1.70312 33.1667 1.79948 32.7812 1.99219C32.401 2.1849 32.0807 2.45833 31.8203 2.8125C31.5651 3.16667 31.3724 3.59115 31.2422 4.08594C31.112 4.58073 31.0469 5.13021 31.0469 5.73438V6.88281C31.0469 7.4401 31.1042 7.96354 31.2188 8.45312C31.3385 8.94271 31.5182 9.3724 31.7578 9.74219C31.9974 10.112 32.3021 10.4036 32.6719 10.6172C33.0417 10.8255 33.4792 10.9297 33.9844 10.9297C34.625 10.9297 35.1354 10.8281 35.5156 10.625C35.8958 10.4219 36.1823 10.1302 36.375 9.75C36.5729 9.36979 36.7135 8.91406 36.7969 8.38281ZM45.1172 10.5547V6.20312C45.1172 5.86979 45.0495 5.58073 44.9141 5.33594C44.7839 5.08594 44.5859 4.89323 44.3203 4.75781C44.0547 4.6224 43.7266 4.55469 43.3359 4.55469C42.9714 4.55469 42.651 4.61719 42.375 4.74219C42.1042 4.86719 41.8906 5.03125 41.7344 5.23438C41.5833 5.4375 41.5078 5.65625 41.5078 5.89062H40.0625C40.0625 5.58854 40.1406 5.28906 40.2969 4.99219C40.4531 4.69531 40.6771 4.42708 40.9688 4.1875C41.2656 3.94271 41.6198 3.75 42.0312 3.60938C42.4479 3.46354 42.9115 3.39062 43.4219 3.39062C44.0365 3.39062 44.5781 3.49479 45.0469 3.70312C45.5208 3.91146 45.8906 4.22656 46.1562 4.64844C46.4271 5.0651 46.5625 5.58854 46.5625 6.21875V10.1562C46.5625 10.4375 46.5859 10.737 46.6328 11.0547C46.6849 11.3724 46.7604 11.6458 46.8594 11.875V12H45.3516C45.2786 11.8333 45.2214 11.612 45.1797 11.3359C45.138 11.0547 45.1172 10.7943 45.1172 10.5547ZM45.3672 6.875L45.3828 7.89062H43.9219C43.5104 7.89062 43.1432 7.92448 42.8203 7.99219C42.4974 8.05469 42.2266 8.15104 42.0078 8.28125C41.7891 8.41146 41.6224 8.57552 41.5078 8.77344C41.3932 8.96615 41.3359 9.19271 41.3359 9.45312C41.3359 9.71875 41.3958 9.96094 41.5156 10.1797C41.6354 10.3984 41.8151 10.5729 42.0547 10.7031C42.2995 10.8281 42.599 10.8906 42.9531 10.8906C43.3958 10.8906 43.7865 10.7969 44.125 10.6094C44.4635 10.4219 44.7318 10.1927 44.9297 9.92188C45.1328 9.65104 45.2422 9.38802 45.2578 9.13281L45.875 9.82812C45.8385 10.0469 45.7396 10.2891 45.5781 10.5547C45.4167 10.8203 45.2005 11.0755 44.9297 11.3203C44.6641 11.5599 44.3464 11.7604 43.9766 11.9219C43.612 12.0781 43.2005 12.1562 42.7422 12.1562C42.1693 12.1562 41.6667 12.0443 41.2344 11.8203C40.8073 11.5964 40.474 11.2969 40.2344 10.9219C40 10.5417 39.8828 10.1172 39.8828 9.64844C39.8828 9.19531 39.9714 8.79688 40.1484 8.45312C40.3255 8.10417 40.5807 7.8151 40.9141 7.58594C41.2474 7.35156 41.6484 7.17448 42.1172 7.05469C42.5859 6.9349 43.1094 6.875 43.6875 6.875H45.3672ZM52.375 3.54688V4.65625H47.8047V3.54688H52.375ZM49.3516 1.49219H50.7969V9.90625C50.7969 10.1927 50.8411 10.4089 50.9297 10.5547C51.0182 10.7005 51.1328 10.7969 51.2734 10.8438C51.4141 10.8906 51.5651 10.9141 51.7266 10.9141C51.8464 10.9141 51.9714 10.9036 52.1016 10.8828C52.237 10.8568 52.3385 10.8359 52.4062 10.8203L52.4141 12C52.2995 12.0365 52.1484 12.0703 51.9609 12.1016C51.7786 12.138 51.5573 12.1562 51.2969 12.1562C50.9427 12.1562 50.6172 12.0859 50.3203 11.9453C50.0234 11.8047 49.7865 11.5703 49.6094 11.2422C49.4375 10.9089 49.3516 10.4609 49.3516 9.89844V1.49219ZM57.5781 12.1562C56.9896 12.1562 56.4557 12.0573 55.9766 11.8594C55.5026 11.6562 55.0938 11.3724 54.75 11.0078C54.4115 10.6432 54.151 10.2109 53.9688 9.71094C53.7865 9.21094 53.6953 8.66406 53.6953 8.07031V7.74219C53.6953 7.05469 53.7969 6.44271 54 5.90625C54.2031 5.36458 54.4792 4.90625 54.8281 4.53125C55.1771 4.15625 55.5729 3.8724 56.0156 3.67969C56.4583 3.48698 56.9167 3.39062 57.3906 3.39062C57.9948 3.39062 58.5156 3.49479 58.9531 3.70312C59.3958 3.91146 59.7578 4.20312 60.0391 4.57812C60.3203 4.94792 60.5286 5.38542 60.6641 5.89062C60.7995 6.39062 60.8672 6.9375 60.8672 7.53125V8.17969H54.5547V7H59.4219V6.89062C59.401 6.51562 59.3229 6.15104 59.1875 5.79688C59.0573 5.44271 58.849 5.15104 58.5625 4.92188C58.276 4.69271 57.8854 4.57812 57.3906 4.57812C57.0625 4.57812 56.7604 4.64844 56.4844 4.78906C56.2083 4.92448 55.9714 5.1276 55.7734 5.39844C55.5755 5.66927 55.4219 6 55.3125 6.39062C55.2031 6.78125 55.1484 7.23177 55.1484 7.74219V8.07031C55.1484 8.47135 55.2031 8.84896 55.3125 9.20312C55.4271 9.55208 55.5911 9.85938 55.8047 10.125C56.0234 10.3906 56.2865 10.599 56.5938 10.75C56.9062 10.901 57.2604 10.9766 57.6562 10.9766C58.1667 10.9766 58.599 10.8724 58.9531 10.6641C59.3073 10.4557 59.6172 10.1771 59.8828 9.82812L60.7578 10.5234C60.5755 10.7995 60.3438 11.0625 60.0625 11.3125C59.7812 11.5625 59.4349 11.7656 59.0234 11.9219C58.6172 12.0781 58.1354 12.1562 57.5781 12.1562ZM68.0312 3.54688H69.3438V11.8203C69.3438 12.5651 69.1927 13.2005 68.8906 13.7266C68.5885 14.2526 68.1667 14.651 67.625 14.9219C67.0885 15.1979 66.4688 15.3359 65.7656 15.3359C65.474 15.3359 65.1302 15.2891 64.7344 15.1953C64.3438 15.1068 63.9583 14.9531 63.5781 14.7344C63.2031 14.5208 62.888 14.2318 62.6328 13.8672L63.3906 13.0078C63.7448 13.4349 64.1146 13.7318 64.5 13.8984C64.8906 14.0651 65.276 14.1484 65.6562 14.1484C66.1146 14.1484 66.5104 14.0625 66.8438 13.8906C67.1771 13.7188 67.4349 13.4635 67.6172 13.125C67.8047 12.7917 67.8984 12.3802 67.8984 11.8906V5.40625L68.0312 3.54688ZM62.2109 7.86719V7.70312C62.2109 7.05729 62.2865 6.47135 62.4375 5.94531C62.5938 5.41406 62.8151 4.95833 63.1016 4.57812C63.3932 4.19792 63.7448 3.90625 64.1562 3.70312C64.5677 3.49479 65.0312 3.39062 65.5469 3.39062C66.0781 3.39062 66.5417 3.48438 66.9375 3.67188C67.3385 3.85417 67.6771 4.1224 67.9531 4.47656C68.2344 4.82552 68.4557 5.2474 68.6172 5.74219C68.7786 6.23698 68.8906 6.79688 68.9531 7.42188V8.14062C68.8958 8.76042 68.7839 9.31771 68.6172 9.8125C68.4557 10.3073 68.2344 10.7292 67.9531 11.0781C67.6771 11.4271 67.3385 11.6953 66.9375 11.8828C66.5365 12.0651 66.0677 12.1562 65.5312 12.1562C65.026 12.1562 64.5677 12.0495 64.1562 11.8359C63.75 11.6224 63.401 11.3229 63.1094 10.9375C62.8177 10.5521 62.5938 10.099 62.4375 9.57812C62.2865 9.05208 62.2109 8.48177 62.2109 7.86719ZM63.6562 7.70312V7.86719C63.6562 8.28906 63.6979 8.6849 63.7812 9.05469C63.8698 9.42448 64.0026 9.75 64.1797 10.0312C64.362 10.3125 64.5938 10.5339 64.875 10.6953C65.1562 10.8516 65.4922 10.9297 65.8828 10.9297C66.362 10.9297 66.7578 10.8281 67.0703 10.625C67.3828 10.4219 67.6302 10.1536 67.8125 9.82031C68 9.48698 68.1458 9.125 68.25 8.73438V6.85156C68.1927 6.5651 68.1042 6.28906 67.9844 6.02344C67.8698 5.7526 67.7188 5.51302 67.5312 5.30469C67.349 5.09115 67.1224 4.92188 66.8516 4.79688C66.5807 4.67188 66.263 4.60938 65.8984 4.60938C65.5026 4.60938 65.1615 4.69271 64.875 4.85938C64.5938 5.02083 64.362 5.24479 64.1797 5.53125C64.0026 5.8125 63.8698 6.14062 63.7812 6.51562C63.6979 6.88542 63.6562 7.28125 63.6562 7.70312ZM71.1562 7.86719V7.6875C71.1562 7.07812 71.2448 6.51302 71.4219 5.99219C71.599 5.46615 71.8542 5.01042 72.1875 4.625C72.5208 4.23438 72.9245 3.93229 73.3984 3.71875C73.8724 3.5 74.4036 3.39062 74.9922 3.39062C75.5859 3.39062 76.1198 3.5 76.5938 3.71875C77.0729 3.93229 77.4792 4.23438 77.8125 4.625C78.151 5.01042 78.4089 5.46615 78.5859 5.99219C78.763 6.51302 78.8516 7.07812 78.8516 7.6875V7.86719C78.8516 8.47656 78.763 9.04167 78.5859 9.5625C78.4089 10.0833 78.151 10.5391 77.8125 10.9297C77.4792 11.3151 77.0755 11.6172 76.6016 11.8359C76.1328 12.0495 75.6016 12.1562 75.0078 12.1562C74.4141 12.1562 73.8802 12.0495 73.4062 11.8359C72.9323 11.6172 72.526 11.3151 72.1875 10.9297C71.8542 10.5391 71.599 10.0833 71.4219 9.5625C71.2448 9.04167 71.1562 8.47656 71.1562 7.86719ZM72.6016 7.6875V7.86719C72.6016 8.28906 72.651 8.6875 72.75 9.0625C72.849 9.43229 72.9974 9.76042 73.1953 10.0469C73.3984 10.3333 73.651 10.5599 73.9531 10.7266C74.2552 10.888 74.6068 10.9688 75.0078 10.9688C75.4036 10.9688 75.75 10.888 76.0469 10.7266C76.349 10.5599 76.599 10.3333 76.7969 10.0469C76.9948 9.76042 77.1432 9.43229 77.2422 9.0625C77.3464 8.6875 77.3984 8.28906 77.3984 7.86719V7.6875C77.3984 7.27083 77.3464 6.8776 77.2422 6.50781C77.1432 6.13281 76.9922 5.80208 76.7891 5.51562C76.5911 5.22396 76.3411 4.99479 76.0391 4.82812C75.7422 4.66146 75.3932 4.57812 74.9922 4.57812C74.5964 4.57812 74.2474 4.66146 73.9453 4.82812C73.6484 4.99479 73.3984 5.22396 73.1953 5.51562C72.9974 5.80208 72.849 6.13281 72.75 6.50781C72.651 6.8776 72.6016 7.27083 72.6016 7.6875ZM82.1094 4.875V12H80.6641V3.54688H82.0703L82.1094 4.875ZM84.75 3.5L84.7422 4.84375C84.6224 4.81771 84.5078 4.80208 84.3984 4.79688C84.2943 4.78646 84.1745 4.78125 84.0391 4.78125C83.7057 4.78125 83.4115 4.83333 83.1562 4.9375C82.901 5.04167 82.6849 5.1875 82.5078 5.375C82.3307 5.5625 82.1901 5.78646 82.0859 6.04688C81.987 6.30208 81.9219 6.58333 81.8906 6.89062L81.4844 7.125C81.4844 6.61458 81.5339 6.13542 81.6328 5.6875C81.737 5.23958 81.8958 4.84375 82.1094 4.5C82.3229 4.15104 82.5938 3.88021 82.9219 3.6875C83.2552 3.48958 83.651 3.39062 84.1094 3.39062C84.2135 3.39062 84.3333 3.40365 84.4688 3.42969C84.6042 3.45052 84.6979 3.47396 84.75 3.5ZM87.6562 3.54688V12H86.2031V3.54688H87.6562ZM86.0938 1.30469C86.0938 1.07031 86.1641 0.872396 86.3047 0.710938C86.4505 0.549479 86.6641 0.46875 86.9453 0.46875C87.2214 0.46875 87.4323 0.549479 87.5781 0.710938C87.7292 0.872396 87.8047 1.07031 87.8047 1.30469C87.8047 1.52865 87.7292 1.72135 87.5781 1.88281C87.4323 2.03906 87.2214 2.11719 86.9453 2.11719C86.6641 2.11719 86.4505 2.03906 86.3047 1.88281C86.1641 1.72135 86.0938 1.52865 86.0938 1.30469ZM93.4844 12.1562C92.8958 12.1562 92.362 12.0573 91.8828 11.8594C91.4089 11.6562 91 11.3724 90.6562 11.0078C90.3177 10.6432 90.0573 10.2109 89.875 9.71094C89.6927 9.21094 89.6016 8.66406 89.6016 8.07031V7.74219C89.6016 7.05469 89.7031 6.44271 89.9062 5.90625C90.1094 5.36458 90.3854 4.90625 90.7344 4.53125C91.0833 4.15625 91.4792 3.8724 91.9219 3.67969C92.3646 3.48698 92.8229 3.39062 93.2969 3.39062C93.901 3.39062 94.4219 3.49479 94.8594 3.70312C95.3021 3.91146 95.6641 4.20312 95.9453 4.57812C96.2266 4.94792 96.4349 5.38542 96.5703 5.89062C96.7057 6.39062 96.7734 6.9375 96.7734 7.53125V8.17969H90.4609V7H95.3281V6.89062C95.3073 6.51562 95.2292 6.15104 95.0938 5.79688C94.9635 5.44271 94.7552 5.15104 94.4688 4.92188C94.1823 4.69271 93.7917 4.57812 93.2969 4.57812C92.9688 4.57812 92.6667 4.64844 92.3906 4.78906C92.1146 4.92448 91.8776 5.1276 91.6797 5.39844C91.4818 5.66927 91.3281 6 91.2188 6.39062C91.1094 6.78125 91.0547 7.23177 91.0547 7.74219V8.07031C91.0547 8.47135 91.1094 8.84896 91.2188 9.20312C91.3333 9.55208 91.4974 9.85938 91.7109 10.125C91.9297 10.3906 92.1927 10.599 92.5 10.75C92.8125 10.901 93.1667 10.9766 93.5625 10.9766C94.0729 10.9766 94.5052 10.8724 94.8594 10.6641C95.2135 10.4557 95.5234 10.1771 95.7891 9.82812L96.6641 10.5234C96.4818 10.7995 96.25 11.0625 95.9688 11.3125C95.6875 11.5625 95.3411 11.7656 94.9297 11.9219C94.5234 12.0781 94.0417 12.1562 93.4844 12.1562ZM103.383 9.75781C103.383 9.54948 103.336 9.35677 103.242 9.17969C103.154 8.9974 102.969 8.83333 102.688 8.6875C102.411 8.53646 101.995 8.40625 101.438 8.29688C100.969 8.19792 100.544 8.08073 100.164 7.94531C99.7891 7.8099 99.4688 7.64583 99.2031 7.45312C98.9427 7.26042 98.7422 7.03385 98.6016 6.77344C98.4609 6.51302 98.3906 6.20833 98.3906 5.85938C98.3906 5.52604 98.4635 5.21094 98.6094 4.91406C98.7604 4.61719 98.9714 4.35417 99.2422 4.125C99.5182 3.89583 99.849 3.71615 100.234 3.58594C100.62 3.45573 101.049 3.39062 101.523 3.39062C102.201 3.39062 102.779 3.51042 103.258 3.75C103.737 3.98958 104.104 4.3099 104.359 4.71094C104.615 5.10677 104.742 5.54688 104.742 6.03125H103.297C103.297 5.79688 103.227 5.57031 103.086 5.35156C102.951 5.1276 102.75 4.94271 102.484 4.79688C102.224 4.65104 101.904 4.57812 101.523 4.57812C101.122 4.57812 100.797 4.64062 100.547 4.76562C100.302 4.88542 100.122 5.03906 100.008 5.22656C99.8984 5.41406 99.8438 5.61198 99.8438 5.82031C99.8438 5.97656 99.8698 6.11719 99.9219 6.24219C99.9792 6.36198 100.078 6.47396 100.219 6.57812C100.359 6.67708 100.557 6.77083 100.812 6.85938C101.068 6.94792 101.393 7.03646 101.789 7.125C102.482 7.28125 103.052 7.46875 103.5 7.6875C103.948 7.90625 104.281 8.17448 104.5 8.49219C104.719 8.8099 104.828 9.19531 104.828 9.64844C104.828 10.0182 104.75 10.3568 104.594 10.6641C104.443 10.9714 104.221 11.237 103.93 11.4609C103.643 11.6797 103.299 11.8516 102.898 11.9766C102.503 12.0964 102.057 12.1562 101.562 12.1562C100.818 12.1562 100.188 12.0234 99.6719 11.7578C99.1562 11.4922 98.7656 11.1484 98.5 10.7266C98.2344 10.3047 98.1016 9.85938 98.1016 9.39062H99.5547C99.5755 9.78646 99.6901 10.1016 99.8984 10.3359C100.107 10.5651 100.362 10.7292 100.664 10.8281C100.966 10.9219 101.266 10.9688 101.562 10.9688C101.958 10.9688 102.289 10.9167 102.555 10.8125C102.826 10.7083 103.031 10.5651 103.172 10.3828C103.312 10.2005 103.383 9.99219 103.383 9.75781Z" fill="#FF6600"/>
</svg>
