<svg width="106" height="13" viewBox="0 0 106 13" fill="none" xmlns="http://www.w3.org/2000/svg">
<path d="M9.5 5.95312V6.67188C9.5 7.52604 9.39323 8.29167 9.17969 8.96875C8.96615 9.64583 8.65885 10.2214 8.25781 10.6953C7.85677 11.1693 7.375 11.5312 6.8125 11.7812C6.25521 12.0312 5.63021 12.1562 4.9375 12.1562C4.26562 12.1562 3.64844 12.0312 3.08594 11.7812C2.52865 11.5312 2.04427 11.1693 1.63281 10.6953C1.22656 10.2214 0.911458 9.64583 0.6875 8.96875C0.463542 8.29167 0.351562 7.52604 0.351562 6.67188V5.95312C0.351562 5.09896 0.460938 4.33594 0.679688 3.66406C0.903646 2.98698 1.21875 2.41146 1.625 1.9375C2.03125 1.45833 2.51302 1.09375 3.07031 0.84375C3.63281 0.59375 4.25 0.46875 4.92188 0.46875C5.61458 0.46875 6.23958 0.59375 6.79688 0.84375C7.35938 1.09375 7.84115 1.45833 8.24219 1.9375C8.64844 2.41146 8.95833 2.98698 9.17188 3.66406C9.39062 4.33594 9.5 5.09896 9.5 5.95312ZM8.00781 6.67188V5.9375C8.00781 5.26042 7.9375 4.66146 7.79688 4.14062C7.66146 3.61979 7.46094 3.18229 7.19531 2.82812C6.92969 2.47396 6.60417 2.20573 6.21875 2.02344C5.83854 1.84115 5.40625 1.75 4.92188 1.75C4.45312 1.75 4.02865 1.84115 3.64844 2.02344C3.27344 2.20573 2.95052 2.47396 2.67969 2.82812C2.41406 3.18229 2.20833 3.61979 2.0625 4.14062C1.91667 4.66146 1.84375 5.26042 1.84375 5.9375V6.67188C1.84375 7.35417 1.91667 7.95833 2.0625 8.48438C2.20833 9.00521 2.41667 9.44531 2.6875 9.80469C2.96354 10.1589 3.28906 10.4271 3.66406 10.6094C4.04427 10.7917 4.46875 10.8828 4.9375 10.8828C5.42708 10.8828 5.86198 10.7917 6.24219 10.6094C6.6224 10.4271 6.94271 10.1589 7.20312 9.80469C7.46875 9.44531 7.66927 9.00521 7.80469 8.48438C7.9401 7.95833 8.00781 7.35417 8.00781 6.67188ZM16.7109 10.0469V3.54688H18.1641V12H16.7812L16.7109 10.0469ZM16.9844 8.26562L17.5859 8.25C17.5859 8.8125 17.526 9.33333 17.4062 9.8125C17.2917 10.2865 17.1042 10.6979 16.8438 11.0469C16.5833 11.3958 16.2422 11.6693 15.8203 11.8672C15.3984 12.0599 14.8854 12.1562 14.2812 12.1562C13.8698 12.1562 13.4922 12.0964 13.1484 11.9766C12.8099 11.8568 12.5182 11.6719 12.2734 11.4219C12.0286 11.1719 11.8385 10.8464 11.7031 10.4453C11.5729 10.0443 11.5078 9.5625 11.5078 9V3.54688H12.9531V9.01562C12.9531 9.39583 12.9948 9.71094 13.0781 9.96094C13.1667 10.2057 13.2839 10.401 13.4297 10.5469C13.5807 10.6875 13.7474 10.7865 13.9297 10.8438C14.1172 10.901 14.3099 10.9297 14.5078 10.9297C15.1224 10.9297 15.6094 10.8125 15.9688 10.5781C16.3281 10.3385 16.5859 10.0182 16.7422 9.61719C16.9036 9.21094 16.9844 8.76042 16.9844 8.26562ZM21.8125 4.875V12H20.3672V3.54688H21.7734L21.8125 4.875ZM24.4531 3.5L24.4453 4.84375C24.3255 4.81771 24.2109 4.80208 24.1016 4.79688C23.9974 4.78646 23.8776 4.78125 23.7422 4.78125C23.4089 4.78125 23.1146 4.83333 22.8594 4.9375C22.6042 5.04167 22.388 5.1875 22.2109 5.375C22.0339 5.5625 21.8932 5.78646 21.7891 6.04688C21.6901 6.30208 21.625 6.58333 21.5938 6.89062L21.1875 7.125C21.1875 6.61458 21.237 6.13542 21.3359 5.6875C21.4401 5.23958 21.599 4.84375 21.8125 4.5C22.026 4.15104 22.2969 3.88021 22.625 3.6875C22.9583 3.48958 23.3542 3.39062 23.8125 3.39062C23.9167 3.39062 24.0365 3.40365 24.1719 3.42969C24.3073 3.45052 24.401 3.47396 24.4531 3.5ZM36.8438 8.38281H38.3438C38.2656 9.10156 38.0599 9.74479 37.7266 10.3125C37.3932 10.8802 36.9219 11.3307 36.3125 11.6641C35.7031 11.9922 34.9427 12.1562 34.0312 12.1562C33.3646 12.1562 32.7578 12.0312 32.2109 11.7812C31.6693 11.5312 31.2031 11.1771 30.8125 10.7188C30.4219 10.2552 30.1198 9.70052 29.9062 9.05469C29.6979 8.40365 29.5938 7.67969 29.5938 6.88281V5.75C29.5938 4.95312 29.6979 4.23177 29.9062 3.58594C30.1198 2.9349 30.4245 2.3776 30.8203 1.91406C31.2214 1.45052 31.7031 1.09375 32.2656 0.84375C32.8281 0.59375 33.4609 0.46875 34.1641 0.46875C35.0234 0.46875 35.75 0.630208 36.3438 0.953125C36.9375 1.27604 37.3984 1.72396 37.7266 2.29688C38.0599 2.86458 38.2656 3.52344 38.3438 4.27344H36.8438C36.7708 3.74219 36.6354 3.28646 36.4375 2.90625C36.2396 2.52083 35.9583 2.22396 35.5938 2.01562C35.2292 1.80729 34.7526 1.70312 34.1641 1.70312C33.6589 1.70312 33.2135 1.79948 32.8281 1.99219C32.4479 2.1849 32.1276 2.45833 31.8672 2.8125C31.612 3.16667 31.4193 3.59115 31.2891 4.08594C31.1589 4.58073 31.0938 5.13021 31.0938 5.73438V6.88281C31.0938 7.4401 31.151 7.96354 31.2656 8.45312C31.3854 8.94271 31.5651 9.3724 31.8047 9.74219C32.0443 10.112 32.349 10.4036 32.7188 10.6172C33.0885 10.8255 33.526 10.9297 34.0312 10.9297C34.6719 10.9297 35.1823 10.8281 35.5625 10.625C35.9427 10.4219 36.2292 10.1302 36.4219 9.75C36.6198 9.36979 36.7604 8.91406 36.8438 8.38281ZM45.3516 10.0469V3.54688H46.8047V12H45.4219L45.3516 10.0469ZM45.625 8.26562L46.2266 8.25C46.2266 8.8125 46.1667 9.33333 46.0469 9.8125C45.9323 10.2865 45.7448 10.6979 45.4844 11.0469C45.224 11.3958 44.8828 11.6693 44.4609 11.8672C44.0391 12.0599 43.526 12.1562 42.9219 12.1562C42.5104 12.1562 42.1328 12.0964 41.7891 11.9766C41.4505 11.8568 41.1589 11.6719 40.9141 11.4219C40.6693 11.1719 40.4792 10.8464 40.3438 10.4453C40.2135 10.0443 40.1484 9.5625 40.1484 9V3.54688H41.5938V9.01562C41.5938 9.39583 41.6354 9.71094 41.7188 9.96094C41.8073 10.2057 41.9245 10.401 42.0703 10.5469C42.2214 10.6875 42.388 10.7865 42.5703 10.8438C42.7578 10.901 42.9505 10.9297 43.1484 10.9297C43.763 10.9297 44.25 10.8125 44.6094 10.5781C44.9688 10.3385 45.2266 10.0182 45.3828 9.61719C45.5443 9.21094 45.625 8.76042 45.625 8.26562ZM53.9297 9.75781C53.9297 9.54948 53.8828 9.35677 53.7891 9.17969C53.7005 8.9974 53.5156 8.83333 53.2344 8.6875C52.9583 8.53646 52.5417 8.40625 51.9844 8.29688C51.5156 8.19792 51.0911 8.08073 50.7109 7.94531C50.3359 7.8099 50.0156 7.64583 49.75 7.45312C49.4896 7.26042 49.2891 7.03385 49.1484 6.77344C49.0078 6.51302 48.9375 6.20833 48.9375 5.85938C48.9375 5.52604 49.0104 5.21094 49.1562 4.91406C49.3073 4.61719 49.5182 4.35417 49.7891 4.125C50.0651 3.89583 50.3958 3.71615 50.7812 3.58594C51.1667 3.45573 51.5964 3.39062 52.0703 3.39062C52.7474 3.39062 53.3255 3.51042 53.8047 3.75C54.2839 3.98958 54.651 4.3099 54.9062 4.71094C55.1615 5.10677 55.2891 5.54688 55.2891 6.03125H53.8438C53.8438 5.79688 53.7734 5.57031 53.6328 5.35156C53.4974 5.1276 53.2969 4.94271 53.0312 4.79688C52.7708 4.65104 52.4505 4.57812 52.0703 4.57812C51.6693 4.57812 51.3438 4.64062 51.0938 4.76562C50.849 4.88542 50.6693 5.03906 50.5547 5.22656C50.4453 5.41406 50.3906 5.61198 50.3906 5.82031C50.3906 5.97656 50.4167 6.11719 50.4688 6.24219C50.526 6.36198 50.625 6.47396 50.7656 6.57812C50.9062 6.67708 51.1042 6.77083 51.3594 6.85938C51.6146 6.94792 51.9401 7.03646 52.3359 7.125C53.0286 7.28125 53.599 7.46875 54.0469 7.6875C54.4948 7.90625 54.8281 8.17448 55.0469 8.49219C55.2656 8.8099 55.375 9.19531 55.375 9.64844C55.375 10.0182 55.2969 10.3568 55.1406 10.6641C54.9896 10.9714 54.7682 11.237 54.4766 11.4609C54.1901 11.6797 53.8464 11.8516 53.4453 11.9766C53.0495 12.0964 52.6042 12.1562 52.1094 12.1562C51.3646 12.1562 50.7344 12.0234 50.2188 11.7578C49.7031 11.4922 49.3125 11.1484 49.0469 10.7266C48.7812 10.3047 48.6484 9.85938 48.6484 9.39062H50.1016C50.1224 9.78646 50.237 10.1016 50.4453 10.3359C50.6536 10.5651 50.9089 10.7292 51.2109 10.8281C51.513 10.9219 51.8125 10.9688 52.1094 10.9688C52.5052 10.9688 52.8359 10.9167 53.1016 10.8125C53.3724 10.7083 53.5781 10.5651 53.7188 10.3828C53.8594 10.2005 53.9297 9.99219 53.9297 9.75781ZM60.8125 3.54688V4.65625H56.2422V3.54688H60.8125ZM57.7891 1.49219H59.2344V9.90625C59.2344 10.1927 59.2786 10.4089 59.3672 10.5547C59.4557 10.7005 59.5703 10.7969 59.7109 10.8438C59.8516 10.8906 60.0026 10.9141 60.1641 10.9141C60.2839 10.9141 60.4089 10.9036 60.5391 10.8828C60.6745 10.8568 60.776 10.8359 60.8438 10.8203L60.8516 12C60.737 12.0365 60.5859 12.0703 60.3984 12.1016C60.2161 12.138 59.9948 12.1562 59.7344 12.1562C59.3802 12.1562 59.0547 12.0859 58.7578 11.9453C58.4609 11.8047 58.224 11.5703 58.0469 11.2422C57.875 10.9089 57.7891 10.4609 57.7891 9.89844V1.49219ZM61.9688 7.86719V7.6875C61.9688 7.07812 62.0573 6.51302 62.2344 5.99219C62.4115 5.46615 62.6667 5.01042 63 4.625C63.3333 4.23438 63.737 3.93229 64.2109 3.71875C64.6849 3.5 65.2161 3.39062 65.8047 3.39062C66.3984 3.39062 66.9323 3.5 67.4062 3.71875C67.8854 3.93229 68.2917 4.23438 68.625 4.625C68.9635 5.01042 69.2214 5.46615 69.3984 5.99219C69.5755 6.51302 69.6641 7.07812 69.6641 7.6875V7.86719C69.6641 8.47656 69.5755 9.04167 69.3984 9.5625C69.2214 10.0833 68.9635 10.5391 68.625 10.9297C68.2917 11.3151 67.888 11.6172 67.4141 11.8359C66.9453 12.0495 66.4141 12.1562 65.8203 12.1562C65.2266 12.1562 64.6927 12.0495 64.2188 11.8359C63.7448 11.6172 63.3385 11.3151 63 10.9297C62.6667 10.5391 62.4115 10.0833 62.2344 9.5625C62.0573 9.04167 61.9688 8.47656 61.9688 7.86719ZM63.4141 7.6875V7.86719C63.4141 8.28906 63.4635 8.6875 63.5625 9.0625C63.6615 9.43229 63.8099 9.76042 64.0078 10.0469C64.2109 10.3333 64.4635 10.5599 64.7656 10.7266C65.0677 10.888 65.4193 10.9688 65.8203 10.9688C66.2161 10.9688 66.5625 10.888 66.8594 10.7266C67.1615 10.5599 67.4115 10.3333 67.6094 10.0469C67.8073 9.76042 67.9557 9.43229 68.0547 9.0625C68.1589 8.6875 68.2109 8.28906 68.2109 7.86719V7.6875C68.2109 7.27083 68.1589 6.8776 68.0547 6.50781C67.9557 6.13281 67.8047 5.80208 67.6016 5.51562C67.4036 5.22396 67.1536 4.99479 66.8516 4.82812C66.5547 4.66146 66.2057 4.57812 65.8047 4.57812C65.4089 4.57812 65.0599 4.66146 64.7578 4.82812C64.4609 4.99479 64.2109 5.22396 64.0078 5.51562C63.8099 5.80208 63.6615 6.13281 63.5625 6.50781C63.4635 6.8776 63.4141 7.27083 63.4141 7.6875ZM72.9141 5.22656V12H71.4609V3.54688H72.8359L72.9141 5.22656ZM72.6172 7.45312L71.9453 7.42969C71.9505 6.85156 72.026 6.31771 72.1719 5.82812C72.3177 5.33333 72.5339 4.90365 72.8203 4.53906C73.1068 4.17448 73.4635 3.89323 73.8906 3.69531C74.3177 3.49219 74.8125 3.39062 75.375 3.39062C75.7708 3.39062 76.1354 3.44792 76.4688 3.5625C76.8021 3.67188 77.0911 3.84635 77.3359 4.08594C77.5807 4.32552 77.7708 4.63281 77.9062 5.00781C78.0417 5.38281 78.1094 5.83594 78.1094 6.36719V12H76.6641V6.4375C76.6641 5.99479 76.5885 5.64062 76.4375 5.375C76.2917 5.10938 76.0833 4.91667 75.8125 4.79688C75.5417 4.67188 75.224 4.60938 74.8594 4.60938C74.4323 4.60938 74.0755 4.6849 73.7891 4.83594C73.5026 4.98698 73.2734 5.19531 73.1016 5.46094C72.9297 5.72656 72.8047 6.03125 72.7266 6.375C72.6536 6.71354 72.6172 7.07292 72.6172 7.45312ZM78.0938 6.65625L77.125 6.95312C77.1302 6.48958 77.2057 6.04427 77.3516 5.61719C77.5026 5.1901 77.7188 4.8099 78 4.47656C78.2865 4.14323 78.638 3.88021 79.0547 3.6875C79.4714 3.48958 79.9479 3.39062 80.4844 3.39062C80.9375 3.39062 81.3385 3.45052 81.6875 3.57031C82.0417 3.6901 82.3385 3.875 82.5781 4.125C82.8229 4.36979 83.0078 4.6849 83.1328 5.07031C83.2578 5.45573 83.3203 5.91406 83.3203 6.44531V12H81.8672V6.42969C81.8672 5.95573 81.7917 5.58854 81.6406 5.32812C81.4948 5.0625 81.2865 4.8776 81.0156 4.77344C80.75 4.66406 80.4323 4.60938 80.0625 4.60938C79.7448 4.60938 79.4635 4.66406 79.2188 4.77344C78.974 4.88281 78.7682 5.03385 78.6016 5.22656C78.4349 5.41406 78.3073 5.63021 78.2188 5.875C78.1354 6.11979 78.0938 6.38021 78.0938 6.65625ZM89.0156 12.1562C88.4271 12.1562 87.8932 12.0573 87.4141 11.8594C86.9401 11.6562 86.5312 11.3724 86.1875 11.0078C85.849 10.6432 85.5885 10.2109 85.4062 9.71094C85.224 9.21094 85.1328 8.66406 85.1328 8.07031V7.74219C85.1328 7.05469 85.2344 6.44271 85.4375 5.90625C85.6406 5.36458 85.9167 4.90625 86.2656 4.53125C86.6146 4.15625 87.0104 3.8724 87.4531 3.67969C87.8958 3.48698 88.3542 3.39062 88.8281 3.39062C89.4323 3.39062 89.9531 3.49479 90.3906 3.70312C90.8333 3.91146 91.1953 4.20312 91.4766 4.57812C91.7578 4.94792 91.9661 5.38542 92.1016 5.89062C92.237 6.39062 92.3047 6.9375 92.3047 7.53125V8.17969H85.9922V7H90.8594V6.89062C90.8385 6.51562 90.7604 6.15104 90.625 5.79688C90.4948 5.44271 90.2865 5.15104 90 4.92188C89.7135 4.69271 89.3229 4.57812 88.8281 4.57812C88.5 4.57812 88.1979 4.64844 87.9219 4.78906C87.6458 4.92448 87.4089 5.1276 87.2109 5.39844C87.013 5.66927 86.8594 6 86.75 6.39062C86.6406 6.78125 86.5859 7.23177 86.5859 7.74219V8.07031C86.5859 8.47135 86.6406 8.84896 86.75 9.20312C86.8646 9.55208 87.0286 9.85938 87.2422 10.125C87.4609 10.3906 87.724 10.599 88.0312 10.75C88.3438 10.901 88.6979 10.9766 89.0938 10.9766C89.6042 10.9766 90.0365 10.8724 90.3906 10.6641C90.7448 10.4557 91.0547 10.1771 91.3203 9.82812L92.1953 10.5234C92.013 10.7995 91.7812 11.0625 91.5 11.3125C91.2188 11.5625 90.8724 11.7656 90.4609 11.9219C90.0547 12.0781 89.5729 12.1562 89.0156 12.1562ZM95.4375 4.875V12H93.9922V3.54688H95.3984L95.4375 4.875ZM98.0781 3.5L98.0703 4.84375C97.9505 4.81771 97.8359 4.80208 97.7266 4.79688C97.6224 4.78646 97.5026 4.78125 97.3672 4.78125C97.0339 4.78125 96.7396 4.83333 96.4844 4.9375C96.2292 5.04167 96.013 5.1875 95.8359 5.375C95.6589 5.5625 95.5182 5.78646 95.4141 6.04688C95.3151 6.30208 95.25 6.58333 95.2188 6.89062L94.8125 7.125C94.8125 6.61458 94.862 6.13542 94.9609 5.6875C95.0651 5.23958 95.224 4.84375 95.4375 4.5C95.651 4.15104 95.9219 3.88021 96.25 3.6875C96.5833 3.48958 96.9792 3.39062 97.4375 3.39062C97.5417 3.39062 97.6615 3.40365 97.7969 3.42969C97.9323 3.45052 98.026 3.47396 98.0781 3.5ZM104.336 9.75781C104.336 9.54948 104.289 9.35677 104.195 9.17969C104.107 8.9974 103.922 8.83333 103.641 8.6875C103.365 8.53646 102.948 8.40625 102.391 8.29688C101.922 8.19792 101.497 8.08073 101.117 7.94531C100.742 7.8099 100.422 7.64583 100.156 7.45312C99.8958 7.26042 99.6953 7.03385 99.5547 6.77344C99.4141 6.51302 99.3438 6.20833 99.3438 5.85938C99.3438 5.52604 99.4167 5.21094 99.5625 4.91406C99.7135 4.61719 99.9245 4.35417 100.195 4.125C100.471 3.89583 100.802 3.71615 101.188 3.58594C101.573 3.45573 102.003 3.39062 102.477 3.39062C103.154 3.39062 103.732 3.51042 104.211 3.75C104.69 3.98958 105.057 4.3099 105.312 4.71094C105.568 5.10677 105.695 5.54688 105.695 6.03125H104.25C104.25 5.79688 104.18 5.57031 104.039 5.35156C103.904 5.1276 103.703 4.94271 103.438 4.79688C103.177 4.65104 102.857 4.57812 102.477 4.57812C102.076 4.57812 101.75 4.64062 101.5 4.76562C101.255 4.88542 101.076 5.03906 100.961 5.22656C100.852 5.41406 100.797 5.61198 100.797 5.82031C100.797 5.97656 100.823 6.11719 100.875 6.24219C100.932 6.36198 101.031 6.47396 101.172 6.57812C101.312 6.67708 101.51 6.77083 101.766 6.85938C102.021 6.94792 102.346 7.03646 102.742 7.125C103.435 7.28125 104.005 7.46875 104.453 7.6875C104.901 7.90625 105.234 8.17448 105.453 8.49219C105.672 8.8099 105.781 9.19531 105.781 9.64844C105.781 10.0182 105.703 10.3568 105.547 10.6641C105.396 10.9714 105.174 11.237 104.883 11.4609C104.596 11.6797 104.253 11.8516 103.852 11.9766C103.456 12.0964 103.01 12.1562 102.516 12.1562C101.771 12.1562 101.141 12.0234 100.625 11.7578C100.109 11.4922 99.7188 11.1484 99.4531 10.7266C99.1875 10.3047 99.0547 9.85938 99.0547 9.39062H100.508C100.529 9.78646 100.643 10.1016 100.852 10.3359C101.06 10.5651 101.315 10.7292 101.617 10.8281C101.919 10.9219 102.219 10.9688 102.516 10.9688C102.911 10.9688 103.242 10.9167 103.508 10.8125C103.779 10.7083 103.984 10.5651 104.125 10.3828C104.266 10.2005 104.336 9.99219 104.336 9.75781Z" fill="#FF6600"/>
</svg>
