<svg width="143" height="16" viewBox="0 0 143 16" fill="none" xmlns="http://www.w3.org/2000/svg">
<path d="M4.51562 7.53906H1.47656V6.3125H4.51562C5.10417 6.3125 5.58073 6.21875 5.94531 6.03125C6.3099 5.84375 6.57552 5.58333 6.74219 5.25C6.91406 4.91667 7 4.53646 7 4.10938C7 3.71875 6.91406 3.35156 6.74219 3.00781C6.57552 2.66406 6.3099 2.38802 5.94531 2.17969C5.58073 1.96615 5.10417 1.85938 4.51562 1.85938H1.82812V12H0.320312V0.625H4.51562C5.375 0.625 6.10156 0.773438 6.69531 1.07031C7.28906 1.36719 7.73958 1.77865 8.04688 2.30469C8.35417 2.82552 8.50781 3.42188 8.50781 4.09375C8.50781 4.82292 8.35417 5.44531 8.04688 5.96094C7.73958 6.47656 7.28906 6.86979 6.69531 7.14062C6.10156 7.40625 5.375 7.53906 4.51562 7.53906ZM11.6406 4.875V12H10.1953V3.54688H11.6016L11.6406 4.875ZM14.2812 3.5L14.2734 4.84375C14.1536 4.81771 14.0391 4.80208 13.9297 4.79688C13.8255 4.78646 13.7057 4.78125 13.5703 4.78125C13.237 4.78125 12.9427 4.83333 12.6875 4.9375C12.4323 5.04167 12.2161 5.1875 12.0391 5.375C11.862 5.5625 11.7214 5.78646 11.6172 6.04688C11.5182 6.30208 11.4531 6.58333 11.4219 6.89062L11.0156 7.125C11.0156 6.61458 11.0651 6.13542 11.1641 5.6875C11.2682 5.23958 11.4271 4.84375 11.6406 4.5C11.8542 4.15104 12.125 3.88021 12.4531 3.6875C12.7865 3.48958 13.1823 3.39062 13.6406 3.39062C13.7448 3.39062 13.8646 3.40365 14 3.42969C14.1354 3.45052 14.2292 3.47396 14.2812 3.5ZM15.0781 7.86719V7.6875C15.0781 7.07812 15.1667 6.51302 15.3438 5.99219C15.5208 5.46615 15.776 5.01042 16.1094 4.625C16.4427 4.23438 16.8464 3.93229 17.3203 3.71875C17.7943 3.5 18.3255 3.39062 18.9141 3.39062C19.5078 3.39062 20.0417 3.5 20.5156 3.71875C20.9948 3.93229 21.401 4.23438 21.7344 4.625C22.0729 5.01042 22.3307 5.46615 22.5078 5.99219C22.6849 6.51302 22.7734 7.07812 22.7734 7.6875V7.86719C22.7734 8.47656 22.6849 9.04167 22.5078 9.5625C22.3307 10.0833 22.0729 10.5391 21.7344 10.9297C21.401 11.3151 20.9974 11.6172 20.5234 11.8359C20.0547 12.0495 19.5234 12.1562 18.9297 12.1562C18.3359 12.1562 17.8021 12.0495 17.3281 11.8359C16.8542 11.6172 16.4479 11.3151 16.1094 10.9297C15.776 10.5391 15.5208 10.0833 15.3438 9.5625C15.1667 9.04167 15.0781 8.47656 15.0781 7.86719ZM16.5234 7.6875V7.86719C16.5234 8.28906 16.5729 8.6875 16.6719 9.0625C16.7708 9.43229 16.9193 9.76042 17.1172 10.0469C17.3203 10.3333 17.5729 10.5599 17.875 10.7266C18.1771 10.888 18.5286 10.9688 18.9297 10.9688C19.3255 10.9688 19.6719 10.888 19.9688 10.7266C20.2708 10.5599 20.5208 10.3333 20.7188 10.0469C20.9167 9.76042 21.0651 9.43229 21.1641 9.0625C21.2682 8.6875 21.3203 8.28906 21.3203 7.86719V7.6875C21.3203 7.27083 21.2682 6.8776 21.1641 6.50781C21.0651 6.13281 20.9141 5.80208 20.7109 5.51562C20.513 5.22396 20.263 4.99479 19.9609 4.82812C19.6641 4.66146 19.3151 4.57812 18.9141 4.57812C18.5182 4.57812 18.1693 4.66146 17.8672 4.82812C17.5703 4.99479 17.3203 5.22396 17.1172 5.51562C16.9193 5.80208 16.7708 6.13281 16.6719 6.50781C16.5729 6.8776 16.5234 7.27083 16.5234 7.6875ZM29.9141 10.3594V0H31.3672V12H30.0391L29.9141 10.3594ZM24.2266 7.86719V7.70312C24.2266 7.05729 24.3047 6.47135 24.4609 5.94531C24.6224 5.41406 24.849 4.95833 25.1406 4.57812C25.4375 4.19792 25.7891 3.90625 26.1953 3.70312C26.6068 3.49479 27.0651 3.39062 27.5703 3.39062C28.1016 3.39062 28.5651 3.48438 28.9609 3.67188C29.362 3.85417 29.7005 4.1224 29.9766 4.47656C30.2578 4.82552 30.4792 5.2474 30.6406 5.74219C30.8021 6.23698 30.9141 6.79688 30.9766 7.42188V8.14062C30.9193 8.76042 30.8073 9.31771 30.6406 9.8125C30.4792 10.3073 30.2578 10.7292 29.9766 11.0781C29.7005 11.4271 29.362 11.6953 28.9609 11.8828C28.5599 12.0651 28.0911 12.1562 27.5547 12.1562C27.0599 12.1562 26.6068 12.0495 26.1953 11.8359C25.7891 11.6224 25.4375 11.3229 25.1406 10.9375C24.849 10.5521 24.6224 10.099 24.4609 9.57812C24.3047 9.05208 24.2266 8.48177 24.2266 7.86719ZM25.6797 7.70312V7.86719C25.6797 8.28906 25.7214 8.6849 25.8047 9.05469C25.8932 9.42448 26.0286 9.75 26.2109 10.0312C26.3932 10.3125 26.625 10.5339 26.9062 10.6953C27.1875 10.8516 27.5234 10.9297 27.9141 10.9297C28.3932 10.9297 28.7865 10.8281 29.0938 10.625C29.4062 10.4219 29.6562 10.1536 29.8438 9.82031C30.0312 9.48698 30.1771 9.125 30.2812 8.73438V6.85156C30.2188 6.5651 30.1276 6.28906 30.0078 6.02344C29.8932 5.7526 29.7422 5.51302 29.5547 5.30469C29.3724 5.09115 29.1458 4.92188 28.875 4.79688C28.6094 4.67188 28.2943 4.60938 27.9297 4.60938C27.5339 4.60938 27.1927 4.69271 26.9062 4.85938C26.625 5.02083 26.3932 5.24479 26.2109 5.53125C26.0286 5.8125 25.8932 6.14062 25.8047 6.51562C25.7214 6.88542 25.6797 7.28125 25.6797 7.70312ZM38.7891 10.0469V3.54688H40.2422V12H38.8594L38.7891 10.0469ZM39.0625 8.26562L39.6641 8.25C39.6641 8.8125 39.6042 9.33333 39.4844 9.8125C39.3698 10.2865 39.1823 10.6979 38.9219 11.0469C38.6615 11.3958 38.3203 11.6693 37.8984 11.8672C37.4766 12.0599 36.9635 12.1562 36.3594 12.1562C35.9479 12.1562 35.5703 12.0964 35.2266 11.9766C34.888 11.8568 34.5964 11.6719 34.3516 11.4219C34.1068 11.1719 33.9167 10.8464 33.7812 10.4453C33.651 10.0443 33.5859 9.5625 33.5859 9V3.54688H35.0312V9.01562C35.0312 9.39583 35.0729 9.71094 35.1562 9.96094C35.2448 10.2057 35.362 10.401 35.5078 10.5469C35.6589 10.6875 35.8255 10.7865 36.0078 10.8438C36.1953 10.901 36.388 10.9297 36.5859 10.9297C37.2005 10.9297 37.6875 10.8125 38.0469 10.5781C38.4062 10.3385 38.6641 10.0182 38.8203 9.61719C38.9818 9.21094 39.0625 8.76042 39.0625 8.26562ZM45.8281 10.9688C46.1719 10.9688 46.4896 10.8984 46.7812 10.7578C47.0729 10.6172 47.3125 10.4245 47.5 10.1797C47.6875 9.92969 47.7943 9.64583 47.8203 9.32812H49.1953C49.1693 9.82812 49 10.2943 48.6875 10.7266C48.3802 11.1536 47.9766 11.5 47.4766 11.7656C46.9766 12.026 46.4271 12.1562 45.8281 12.1562C45.1927 12.1562 44.638 12.0443 44.1641 11.8203C43.6953 11.5964 43.3047 11.2891 42.9922 10.8984C42.6849 10.5078 42.4531 10.0599 42.2969 9.55469C42.1458 9.04427 42.0703 8.50521 42.0703 7.9375V7.60938C42.0703 7.04167 42.1458 6.50521 42.2969 6C42.4531 5.48958 42.6849 5.03906 42.9922 4.64844C43.3047 4.25781 43.6953 3.95052 44.1641 3.72656C44.638 3.5026 45.1927 3.39062 45.8281 3.39062C46.4896 3.39062 47.0677 3.52604 47.5625 3.79688C48.0573 4.0625 48.4453 4.42708 48.7266 4.89062C49.013 5.34896 49.1693 5.86979 49.1953 6.45312H47.8203C47.7943 6.10417 47.6953 5.78906 47.5234 5.50781C47.3568 5.22656 47.1276 5.0026 46.8359 4.83594C46.5495 4.66406 46.2135 4.57812 45.8281 4.57812C45.3854 4.57812 45.013 4.66667 44.7109 4.84375C44.4141 5.01562 44.1771 5.25 44 5.54688C43.8281 5.83854 43.7031 6.16406 43.625 6.52344C43.5521 6.8776 43.5156 7.23958 43.5156 7.60938V7.9375C43.5156 8.30729 43.5521 8.67188 43.625 9.03125C43.6979 9.39062 43.8203 9.71615 43.9922 10.0078C44.1693 10.2995 44.4062 10.5339 44.7031 10.7109C45.0052 10.8828 45.3802 10.9688 45.8281 10.9688ZM54.3594 3.54688V4.65625H49.7891V3.54688H54.3594ZM51.3359 1.49219H52.7812V9.90625C52.7812 10.1927 52.8255 10.4089 52.9141 10.5547C53.0026 10.7005 53.1172 10.7969 53.2578 10.8438C53.3984 10.8906 53.5495 10.9141 53.7109 10.9141C53.8307 10.9141 53.9557 10.9036 54.0859 10.8828C54.2214 10.8568 54.3229 10.8359 54.3906 10.8203L54.3984 12C54.2839 12.0365 54.1328 12.0703 53.9453 12.1016C53.763 12.138 53.5417 12.1562 53.2812 12.1562C52.9271 12.1562 52.6016 12.0859 52.3047 11.9453C52.0078 11.8047 51.7708 11.5703 51.5938 11.2422C51.4219 10.9089 51.3359 10.4609 51.3359 9.89844V1.49219ZM57.625 3.54688V12H56.1719V3.54688H57.625ZM56.0625 1.30469C56.0625 1.07031 56.1328 0.872396 56.2734 0.710938C56.4193 0.549479 56.6328 0.46875 56.9141 0.46875C57.1901 0.46875 57.401 0.549479 57.5469 0.710938C57.6979 0.872396 57.7734 1.07031 57.7734 1.30469C57.7734 1.52865 57.6979 1.72135 57.5469 1.88281C57.401 2.03906 57.1901 2.11719 56.9141 2.11719C56.6328 2.11719 56.4193 2.03906 56.2734 1.88281C56.1328 1.72135 56.0625 1.52865 56.0625 1.30469ZM59.5625 7.86719V7.6875C59.5625 7.07812 59.651 6.51302 59.8281 5.99219C60.0052 5.46615 60.2604 5.01042 60.5938 4.625C60.9271 4.23438 61.3307 3.93229 61.8047 3.71875C62.2786 3.5 62.8099 3.39062 63.3984 3.39062C63.9922 3.39062 64.526 3.5 65 3.71875C65.4792 3.93229 65.8854 4.23438 66.2188 4.625C66.5573 5.01042 66.8151 5.46615 66.9922 5.99219C67.1693 6.51302 67.2578 7.07812 67.2578 7.6875V7.86719C67.2578 8.47656 67.1693 9.04167 66.9922 9.5625C66.8151 10.0833 66.5573 10.5391 66.2188 10.9297C65.8854 11.3151 65.4818 11.6172 65.0078 11.8359C64.5391 12.0495 64.0078 12.1562 63.4141 12.1562C62.8203 12.1562 62.2865 12.0495 61.8125 11.8359C61.3385 11.6172 60.9323 11.3151 60.5938 10.9297C60.2604 10.5391 60.0052 10.0833 59.8281 9.5625C59.651 9.04167 59.5625 8.47656 59.5625 7.86719ZM61.0078 7.6875V7.86719C61.0078 8.28906 61.0573 8.6875 61.1562 9.0625C61.2552 9.43229 61.4036 9.76042 61.6016 10.0469C61.8047 10.3333 62.0573 10.5599 62.3594 10.7266C62.6615 10.888 63.013 10.9688 63.4141 10.9688C63.8099 10.9688 64.1562 10.888 64.4531 10.7266C64.7552 10.5599 65.0052 10.3333 65.2031 10.0469C65.401 9.76042 65.5495 9.43229 65.6484 9.0625C65.7526 8.6875 65.8047 8.28906 65.8047 7.86719V7.6875C65.8047 7.27083 65.7526 6.8776 65.6484 6.50781C65.5495 6.13281 65.3984 5.80208 65.1953 5.51562C64.9974 5.22396 64.7474 4.99479 64.4453 4.82812C64.1484 4.66146 63.7995 4.57812 63.3984 4.57812C63.0026 4.57812 62.6536 4.66146 62.3516 4.82812C62.0547 4.99479 61.8047 5.22396 61.6016 5.51562C61.4036 5.80208 61.2552 6.13281 61.1562 6.50781C61.0573 6.8776 61.0078 7.27083 61.0078 7.6875ZM70.5156 5.35156V12H69.0703V3.54688H70.4375L70.5156 5.35156ZM70.1719 7.45312L69.5703 7.42969C69.5755 6.85156 69.6615 6.31771 69.8281 5.82812C69.9948 5.33333 70.2292 4.90365 70.5312 4.53906C70.8333 4.17448 71.1927 3.89323 71.6094 3.69531C72.0312 3.49219 72.4974 3.39062 73.0078 3.39062C73.4245 3.39062 73.7995 3.44792 74.1328 3.5625C74.4661 3.67188 74.75 3.84896 74.9844 4.09375C75.224 4.33854 75.4062 4.65625 75.5312 5.04688C75.6562 5.43229 75.7188 5.90365 75.7188 6.46094V12H74.2656V6.44531C74.2656 6.0026 74.2005 5.64844 74.0703 5.38281C73.9401 5.11198 73.75 4.91667 73.5 4.79688C73.25 4.67188 72.9427 4.60938 72.5781 4.60938C72.2188 4.60938 71.8906 4.6849 71.5938 4.83594C71.3021 4.98698 71.0495 5.19531 70.8359 5.46094C70.6276 5.72656 70.4635 6.03125 70.3438 6.375C70.2292 6.71354 70.1719 7.07292 70.1719 7.45312ZM88.9688 8.38281H90.4688C90.3906 9.10156 90.1849 9.74479 89.8516 10.3125C89.5182 10.8802 89.0469 11.3307 88.4375 11.6641C87.8281 11.9922 87.0677 12.1562 86.1562 12.1562C85.4896 12.1562 84.8828 12.0312 84.3359 11.7812C83.7943 11.5312 83.3281 11.1771 82.9375 10.7188C82.5469 10.2552 82.2448 9.70052 82.0312 9.05469C81.8229 8.40365 81.7188 7.67969 81.7188 6.88281V5.75C81.7188 4.95312 81.8229 4.23177 82.0312 3.58594C82.2448 2.9349 82.5495 2.3776 82.9453 1.91406C83.3464 1.45052 83.8281 1.09375 84.3906 0.84375C84.9531 0.59375 85.5859 0.46875 86.2891 0.46875C87.1484 0.46875 87.875 0.630208 88.4688 0.953125C89.0625 1.27604 89.5234 1.72396 89.8516 2.29688C90.1849 2.86458 90.3906 3.52344 90.4688 4.27344H88.9688C88.8958 3.74219 88.7604 3.28646 88.5625 2.90625C88.3646 2.52083 88.0833 2.22396 87.7188 2.01562C87.3542 1.80729 86.8776 1.70312 86.2891 1.70312C85.7839 1.70312 85.3385 1.79948 84.9531 1.99219C84.5729 2.1849 84.2526 2.45833 83.9922 2.8125C83.737 3.16667 83.5443 3.59115 83.4141 4.08594C83.2839 4.58073 83.2188 5.13021 83.2188 5.73438V6.88281C83.2188 7.4401 83.276 7.96354 83.3906 8.45312C83.5104 8.94271 83.6901 9.3724 83.9297 9.74219C84.1693 10.112 84.474 10.4036 84.8438 10.6172C85.2135 10.8255 85.651 10.9297 86.1562 10.9297C86.7969 10.9297 87.3073 10.8281 87.6875 10.625C88.0677 10.4219 88.3542 10.1302 88.5469 9.75C88.7448 9.36979 88.8854 8.91406 88.9688 8.38281ZM97.2891 10.5547V6.20312C97.2891 5.86979 97.2214 5.58073 97.0859 5.33594C96.9557 5.08594 96.7578 4.89323 96.4922 4.75781C96.2266 4.6224 95.8984 4.55469 95.5078 4.55469C95.1432 4.55469 94.8229 4.61719 94.5469 4.74219C94.276 4.86719 94.0625 5.03125 93.9062 5.23438C93.7552 5.4375 93.6797 5.65625 93.6797 5.89062H92.2344C92.2344 5.58854 92.3125 5.28906 92.4688 4.99219C92.625 4.69531 92.849 4.42708 93.1406 4.1875C93.4375 3.94271 93.7917 3.75 94.2031 3.60938C94.6198 3.46354 95.0833 3.39062 95.5938 3.39062C96.2083 3.39062 96.75 3.49479 97.2188 3.70312C97.6927 3.91146 98.0625 4.22656 98.3281 4.64844C98.599 5.0651 98.7344 5.58854 98.7344 6.21875V10.1562C98.7344 10.4375 98.7578 10.737 98.8047 11.0547C98.8568 11.3724 98.9323 11.6458 99.0312 11.875V12H97.5234C97.4505 11.8333 97.3932 11.612 97.3516 11.3359C97.3099 11.0547 97.2891 10.7943 97.2891 10.5547ZM97.5391 6.875L97.5547 7.89062H96.0938C95.6823 7.89062 95.3151 7.92448 94.9922 7.99219C94.6693 8.05469 94.3984 8.15104 94.1797 8.28125C93.9609 8.41146 93.7943 8.57552 93.6797 8.77344C93.5651 8.96615 93.5078 9.19271 93.5078 9.45312C93.5078 9.71875 93.5677 9.96094 93.6875 10.1797C93.8073 10.3984 93.987 10.5729 94.2266 10.7031C94.4714 10.8281 94.7708 10.8906 95.125 10.8906C95.5677 10.8906 95.9583 10.7969 96.2969 10.6094C96.6354 10.4219 96.9036 10.1927 97.1016 9.92188C97.3047 9.65104 97.4141 9.38802 97.4297 9.13281L98.0469 9.82812C98.0104 10.0469 97.9115 10.2891 97.75 10.5547C97.5885 10.8203 97.3724 11.0755 97.1016 11.3203C96.8359 11.5599 96.5182 11.7604 96.1484 11.9219C95.7839 12.0781 95.3724 12.1562 94.9141 12.1562C94.3411 12.1562 93.8385 12.0443 93.4062 11.8203C92.9792 11.5964 92.6458 11.2969 92.4062 10.9219C92.1719 10.5417 92.0547 10.1172 92.0547 9.64844C92.0547 9.19531 92.1432 8.79688 92.3203 8.45312C92.4974 8.10417 92.7526 7.8151 93.0859 7.58594C93.4193 7.35156 93.8203 7.17448 94.2891 7.05469C94.7578 6.9349 95.2812 6.875 95.8594 6.875H97.5391ZM102.453 5.17188V15.25H101V3.54688H102.328L102.453 5.17188ZM108.148 7.70312V7.86719C108.148 8.48177 108.076 9.05208 107.93 9.57812C107.784 10.099 107.57 10.5521 107.289 10.9375C107.013 11.3229 106.672 11.6224 106.266 11.8359C105.859 12.0495 105.393 12.1562 104.867 12.1562C104.331 12.1562 103.857 12.0677 103.445 11.8906C103.034 11.7135 102.685 11.4557 102.398 11.1172C102.112 10.7786 101.883 10.3724 101.711 9.89844C101.544 9.42448 101.43 8.89062 101.367 8.29688V7.42188C101.43 6.79688 101.547 6.23698 101.719 5.74219C101.891 5.2474 102.117 4.82552 102.398 4.47656C102.685 4.1224 103.031 3.85417 103.438 3.67188C103.844 3.48438 104.312 3.39062 104.844 3.39062C105.375 3.39062 105.846 3.49479 106.258 3.70312C106.669 3.90625 107.016 4.19792 107.297 4.57812C107.578 4.95833 107.789 5.41406 107.93 5.94531C108.076 6.47135 108.148 7.05729 108.148 7.70312ZM106.695 7.86719V7.70312C106.695 7.28125 106.651 6.88542 106.562 6.51562C106.474 6.14062 106.336 5.8125 106.148 5.53125C105.966 5.24479 105.732 5.02083 105.445 4.85938C105.159 4.69271 104.818 4.60938 104.422 4.60938C104.057 4.60938 103.74 4.67188 103.469 4.79688C103.203 4.92188 102.977 5.09115 102.789 5.30469C102.602 5.51302 102.448 5.7526 102.328 6.02344C102.214 6.28906 102.128 6.5651 102.07 6.85156V8.875C102.174 9.23958 102.32 9.58333 102.508 9.90625C102.695 10.224 102.945 10.4818 103.258 10.6797C103.57 10.8724 103.964 10.9688 104.438 10.9688C104.828 10.9688 105.164 10.888 105.445 10.7266C105.732 10.5599 105.966 10.3333 106.148 10.0469C106.336 9.76042 106.474 9.43229 106.562 9.0625C106.651 8.6875 106.695 8.28906 106.695 7.86719ZM114.977 10.5547V6.20312C114.977 5.86979 114.909 5.58073 114.773 5.33594C114.643 5.08594 114.445 4.89323 114.18 4.75781C113.914 4.6224 113.586 4.55469 113.195 4.55469C112.831 4.55469 112.51 4.61719 112.234 4.74219C111.964 4.86719 111.75 5.03125 111.594 5.23438C111.443 5.4375 111.367 5.65625 111.367 5.89062H109.922C109.922 5.58854 110 5.28906 110.156 4.99219C110.312 4.69531 110.536 4.42708 110.828 4.1875C111.125 3.94271 111.479 3.75 111.891 3.60938C112.307 3.46354 112.771 3.39062 113.281 3.39062C113.896 3.39062 114.438 3.49479 114.906 3.70312C115.38 3.91146 115.75 4.22656 116.016 4.64844C116.286 5.0651 116.422 5.58854 116.422 6.21875V10.1562C116.422 10.4375 116.445 10.737 116.492 11.0547C116.544 11.3724 116.62 11.6458 116.719 11.875V12H115.211C115.138 11.8333 115.081 11.612 115.039 11.3359C114.997 11.0547 114.977 10.7943 114.977 10.5547ZM115.227 6.875L115.242 7.89062H113.781C113.37 7.89062 113.003 7.92448 112.68 7.99219C112.357 8.05469 112.086 8.15104 111.867 8.28125C111.648 8.41146 111.482 8.57552 111.367 8.77344C111.253 8.96615 111.195 9.19271 111.195 9.45312C111.195 9.71875 111.255 9.96094 111.375 10.1797C111.495 10.3984 111.674 10.5729 111.914 10.7031C112.159 10.8281 112.458 10.8906 112.812 10.8906C113.255 10.8906 113.646 10.7969 113.984 10.6094C114.323 10.4219 114.591 10.1927 114.789 9.92188C114.992 9.65104 115.102 9.38802 115.117 9.13281L115.734 9.82812C115.698 10.0469 115.599 10.2891 115.438 10.5547C115.276 10.8203 115.06 11.0755 114.789 11.3203C114.523 11.5599 114.206 11.7604 113.836 11.9219C113.471 12.0781 113.06 12.1562 112.602 12.1562C112.029 12.1562 111.526 12.0443 111.094 11.8203C110.667 11.5964 110.333 11.2969 110.094 10.9219C109.859 10.5417 109.742 10.1172 109.742 9.64844C109.742 9.19531 109.831 8.79688 110.008 8.45312C110.185 8.10417 110.44 7.8151 110.773 7.58594C111.107 7.35156 111.508 7.17448 111.977 7.05469C112.445 6.9349 112.969 6.875 113.547 6.875H115.227ZM122.078 10.9688C122.422 10.9688 122.74 10.8984 123.031 10.7578C123.323 10.6172 123.562 10.4245 123.75 10.1797C123.938 9.92969 124.044 9.64583 124.07 9.32812H125.445C125.419 9.82812 125.25 10.2943 124.938 10.7266C124.63 11.1536 124.227 11.5 123.727 11.7656C123.227 12.026 122.677 12.1562 122.078 12.1562C121.443 12.1562 120.888 12.0443 120.414 11.8203C119.945 11.5964 119.555 11.2891 119.242 10.8984C118.935 10.5078 118.703 10.0599 118.547 9.55469C118.396 9.04427 118.32 8.50521 118.32 7.9375V7.60938C118.32 7.04167 118.396 6.50521 118.547 6C118.703 5.48958 118.935 5.03906 119.242 4.64844C119.555 4.25781 119.945 3.95052 120.414 3.72656C120.888 3.5026 121.443 3.39062 122.078 3.39062C122.74 3.39062 123.318 3.52604 123.812 3.79688C124.307 4.0625 124.695 4.42708 124.977 4.89062C125.263 5.34896 125.419 5.86979 125.445 6.45312H124.07C124.044 6.10417 123.945 5.78906 123.773 5.50781C123.607 5.22656 123.378 5.0026 123.086 4.83594C122.799 4.66406 122.464 4.57812 122.078 4.57812C121.635 4.57812 121.263 4.66667 120.961 4.84375C120.664 5.01562 120.427 5.25 120.25 5.54688C120.078 5.83854 119.953 6.16406 119.875 6.52344C119.802 6.8776 119.766 7.23958 119.766 7.60938V7.9375C119.766 8.30729 119.802 8.67188 119.875 9.03125C119.948 9.39062 120.07 9.71615 120.242 10.0078C120.419 10.2995 120.656 10.5339 120.953 10.7109C121.255 10.8828 121.63 10.9688 122.078 10.9688ZM128.641 3.54688V12H127.188V3.54688H128.641ZM127.078 1.30469C127.078 1.07031 127.148 0.872396 127.289 0.710938C127.435 0.549479 127.648 0.46875 127.93 0.46875C128.206 0.46875 128.417 0.549479 128.562 0.710938C128.714 0.872396 128.789 1.07031 128.789 1.30469C128.789 1.52865 128.714 1.72135 128.562 1.88281C128.417 2.03906 128.206 2.11719 127.93 2.11719C127.648 2.11719 127.435 2.03906 127.289 1.88281C127.148 1.72135 127.078 1.52865 127.078 1.30469ZM134.5 3.54688V4.65625H129.93V3.54688H134.5ZM131.477 1.49219H132.922V9.90625C132.922 10.1927 132.966 10.4089 133.055 10.5547C133.143 10.7005 133.258 10.7969 133.398 10.8438C133.539 10.8906 133.69 10.9141 133.852 10.9141C133.971 10.9141 134.096 10.9036 134.227 10.8828C134.362 10.8568 134.464 10.8359 134.531 10.8203L134.539 12C134.424 12.0365 134.273 12.0703 134.086 12.1016C133.904 12.138 133.682 12.1562 133.422 12.1562C133.068 12.1562 132.742 12.0859 132.445 11.9453C132.148 11.8047 131.911 11.5703 131.734 11.2422C131.562 10.9089 131.477 10.4609 131.477 9.89844V1.49219ZM138.57 11.125L140.922 3.54688H142.469L139.078 13.3047C139 13.513 138.896 13.737 138.766 13.9766C138.641 14.2214 138.479 14.4531 138.281 14.6719C138.083 14.8906 137.844 15.0677 137.562 15.2031C137.286 15.3438 136.956 15.4141 136.57 15.4141C136.456 15.4141 136.31 15.3984 136.133 15.3672C135.956 15.3359 135.831 15.3099 135.758 15.2891L135.75 14.1172C135.792 14.1224 135.857 14.1276 135.945 14.1328C136.039 14.1432 136.104 14.1484 136.141 14.1484C136.469 14.1484 136.747 14.1042 136.977 14.0156C137.206 13.9323 137.398 13.7891 137.555 13.5859C137.716 13.388 137.854 13.1146 137.969 12.7656L138.57 11.125ZM136.844 3.54688L139.039 10.1094L139.414 11.6328L138.375 12.1641L135.266 3.54688H136.844Z" fill="#FF6600"/>
</svg>
