<svg width="61" height="16" viewBox="0 0 61 16" fill="none" xmlns="http://www.w3.org/2000/svg">
<path d="M4.42969 8.5625L6.6875 0.625H7.78125L7.14844 3.71094L4.71875 12H3.63281L4.42969 8.5625ZM2.09375 0.625L3.89062 8.40625L4.42969 12H3.35156L0.59375 0.625H2.09375ZM10.7031 8.39844L12.4609 0.625H13.9688L11.2188 12H10.1406L10.7031 8.39844ZM7.94531 0.625L10.1406 8.5625L10.9375 12H9.85156L7.50781 3.71094L6.86719 0.625H7.94531ZM16.8672 0V12H15.4219V0H16.8672ZM16.5234 7.45312L15.9219 7.42969C15.9271 6.85156 16.013 6.31771 16.1797 5.82812C16.3464 5.33333 16.5807 4.90365 16.8828 4.53906C17.1849 4.17448 17.5443 3.89323 17.9609 3.69531C18.3828 3.49219 18.849 3.39062 19.3594 3.39062C19.776 3.39062 20.151 3.44792 20.4844 3.5625C20.8177 3.67188 21.1016 3.84896 21.3359 4.09375C21.5755 4.33854 21.7578 4.65625 21.8828 5.04688C22.0078 5.43229 22.0703 5.90365 22.0703 6.46094V12H20.6172V6.44531C20.6172 6.0026 20.5521 5.64844 20.4219 5.38281C20.2917 5.11198 20.1016 4.91667 19.8516 4.79688C19.6016 4.67188 19.2943 4.60938 18.9297 4.60938C18.5703 4.60938 18.2422 4.6849 17.9453 4.83594C17.6536 4.98698 17.401 5.19531 17.1875 5.46094C16.9792 5.72656 16.8151 6.03125 16.6953 6.375C16.5807 6.71354 16.5234 7.07292 16.5234 7.45312ZM26.6094 11.125L28.9609 3.54688H30.5078L27.1172 13.3047C27.0391 13.513 26.9349 13.737 26.8047 13.9766C26.6797 14.2214 26.5182 14.4531 26.3203 14.6719C26.1224 14.8906 25.8828 15.0677 25.6016 15.2031C25.3255 15.3438 24.9948 15.4141 24.6094 15.4141C24.4948 15.4141 24.349 15.3984 24.1719 15.3672C23.9948 15.3359 23.8698 15.3099 23.7969 15.2891L23.7891 14.1172C23.8307 14.1224 23.8958 14.1276 23.9844 14.1328C24.0781 14.1432 24.1432 14.1484 24.1797 14.1484C24.5078 14.1484 24.7865 14.1042 25.0156 14.0156C25.2448 13.9323 25.4375 13.7891 25.5938 13.5859C25.7552 13.388 25.8932 13.1146 26.0078 12.7656L26.6094 11.125ZM24.8828 3.54688L27.0781 10.1094L27.4531 11.6328L26.4141 12.1641L23.3047 3.54688H24.8828ZM42.5078 0.625H44.0078V8.32031C44.0078 9.17448 43.8177 9.88542 43.4375 10.4531C43.0573 11.0208 42.5521 11.4479 41.9219 11.7344C41.2969 12.0156 40.6172 12.1562 39.8828 12.1562C39.112 12.1562 38.4141 12.0156 37.7891 11.7344C37.1693 11.4479 36.6771 11.0208 36.3125 10.4531C35.9531 9.88542 35.7734 9.17448 35.7734 8.32031V0.625H37.2656V8.32031C37.2656 8.91406 37.375 9.40365 37.5938 9.78906C37.8125 10.1745 38.1172 10.4609 38.5078 10.6484C38.9036 10.8359 39.362 10.9297 39.8828 10.9297C40.4089 10.9297 40.8672 10.8359 41.2578 10.6484C41.6536 10.4609 41.9609 10.1745 42.1797 9.78906C42.3984 9.40365 42.5078 8.91406 42.5078 8.32031V0.625ZM51.0781 9.75781C51.0781 9.54948 51.0312 9.35677 50.9375 9.17969C50.849 8.9974 50.6641 8.83333 50.3828 8.6875C50.1068 8.53646 49.6901 8.40625 49.1328 8.29688C48.6641 8.19792 48.2396 8.08073 47.8594 7.94531C47.4844 7.8099 47.1641 7.64583 46.8984 7.45312C46.638 7.26042 46.4375 7.03385 46.2969 6.77344C46.1562 6.51302 46.0859 6.20833 46.0859 5.85938C46.0859 5.52604 46.1589 5.21094 46.3047 4.91406C46.4557 4.61719 46.6667 4.35417 46.9375 4.125C47.2135 3.89583 47.5443 3.71615 47.9297 3.58594C48.3151 3.45573 48.7448 3.39062 49.2188 3.39062C49.8958 3.39062 50.474 3.51042 50.9531 3.75C51.4323 3.98958 51.7995 4.3099 52.0547 4.71094C52.3099 5.10677 52.4375 5.54688 52.4375 6.03125H50.9922C50.9922 5.79688 50.9219 5.57031 50.7812 5.35156C50.6458 5.1276 50.4453 4.94271 50.1797 4.79688C49.9193 4.65104 49.599 4.57812 49.2188 4.57812C48.8177 4.57812 48.4922 4.64062 48.2422 4.76562C47.9974 4.88542 47.8177 5.03906 47.7031 5.22656C47.5938 5.41406 47.5391 5.61198 47.5391 5.82031C47.5391 5.97656 47.5651 6.11719 47.6172 6.24219C47.6745 6.36198 47.7734 6.47396 47.9141 6.57812C48.0547 6.67708 48.2526 6.77083 48.5078 6.85938C48.763 6.94792 49.0885 7.03646 49.4844 7.125C50.1771 7.28125 50.7474 7.46875 51.1953 7.6875C51.6432 7.90625 51.9766 8.17448 52.1953 8.49219C52.4141 8.8099 52.5234 9.19531 52.5234 9.64844C52.5234 10.0182 52.4453 10.3568 52.2891 10.6641C52.138 10.9714 51.9167 11.237 51.625 11.4609C51.3385 11.6797 50.9948 11.8516 50.5938 11.9766C50.1979 12.0964 49.7526 12.1562 49.2578 12.1562C48.513 12.1562 47.8828 12.0234 47.3672 11.7578C46.8516 11.4922 46.4609 11.1484 46.1953 10.7266C45.9297 10.3047 45.7969 9.85938 45.7969 9.39062H47.25C47.2708 9.78646 47.3854 10.1016 47.5938 10.3359C47.8021 10.5651 48.0573 10.7292 48.3594 10.8281C48.6615 10.9219 48.9609 10.9688 49.2578 10.9688C49.6536 10.9688 49.9844 10.9167 50.25 10.8125C50.5208 10.7083 50.7266 10.5651 50.8672 10.3828C51.0078 10.2005 51.0781 9.99219 51.0781 9.75781ZM57.5625 8.79688H56.1094C56.1146 8.29688 56.1589 7.88802 56.2422 7.57031C56.3307 7.2474 56.474 6.95312 56.6719 6.6875C56.8698 6.42188 57.1328 6.11979 57.4609 5.78125C57.7005 5.53646 57.9193 5.30729 58.1172 5.09375C58.3203 4.875 58.4844 4.64062 58.6094 4.39062C58.7344 4.13542 58.7969 3.83073 58.7969 3.47656C58.7969 3.11719 58.7318 2.80729 58.6016 2.54688C58.4766 2.28646 58.2891 2.08594 58.0391 1.94531C57.7943 1.80469 57.4896 1.73438 57.125 1.73438C56.8229 1.73438 56.5365 1.78906 56.2656 1.89844C55.9948 2.00781 55.776 2.17708 55.6094 2.40625C55.4427 2.63021 55.3568 2.92448 55.3516 3.28906H53.9062C53.9167 2.70052 54.0625 2.19531 54.3438 1.77344C54.6302 1.35156 55.0156 1.02865 55.5 0.804688C55.9844 0.580729 56.526 0.46875 57.125 0.46875C57.7865 0.46875 58.349 0.588542 58.8125 0.828125C59.2812 1.06771 59.638 1.41146 59.8828 1.85938C60.1276 2.30208 60.25 2.82812 60.25 3.4375C60.25 3.90625 60.1536 4.33854 59.9609 4.73438C59.7734 5.125 59.5312 5.49219 59.2344 5.83594C58.9375 6.17969 58.6224 6.50781 58.2891 6.82031C58.0026 7.08594 57.8099 7.38542 57.7109 7.71875C57.612 8.05208 57.5625 8.41146 57.5625 8.79688ZM56.0469 11.2734C56.0469 11.0391 56.1198 10.8411 56.2656 10.6797C56.4115 10.5182 56.6224 10.4375 56.8984 10.4375C57.1797 10.4375 57.3932 10.5182 57.5391 10.6797C57.6849 10.8411 57.7578 11.0391 57.7578 11.2734C57.7578 11.4974 57.6849 11.6901 57.5391 11.8516C57.3932 12.013 57.1797 12.0938 56.8984 12.0938C56.6224 12.0938 56.4115 12.013 56.2656 11.8516C56.1198 11.6901 56.0469 11.4974 56.0469 11.2734Z" fill="#FF6600"/>
</svg>
